<?xml version="1.0" encoding="iso-8859-1"?>
<!-- Generator: Adobe Illustrator 19.0.0, SVG Export Plug-In . SVG Version: 6.00 Build 0)  -->
<svg version="1.1" id="Layer_1" xmlns="http://www.w3.org/2000/svg" xmlns:xlink="http://www.w3.org/1999/xlink" x="0px" y="0px"
	 viewBox="0 0 512.054 512.054" style="enable-background:new 0 0 512.054 512.054;" xml:space="preserve">
<g id="XMLID_666_">
	<polygon id="XMLID_515_" style="fill:#FFFFFF;" points="10,221.077 256.057,502.027 502.054,221.077 	"/>
	<polygon id="XMLID_743_" style="fill:#78D2FA;" points="10,221.077 256.057,502.027 502.054,221.077 	"/>
	<polygon id="XMLID_187_" style="fill:#78D2FA;" points="92.388,96.04 10.012,221.077 502.054,221.077 420.055,96.04 	"/>
	<polygon id="XMLID_186_" style="fill:#FFFFFF;" points="174.058,221.077 256.057,96.04 338.056,221.077 	"/>
	<polygon id="XMLID_185_" style="fill:#C8F5FF;" points="338.056,221.077 420.055,96.04 502.054,221.077 	"/>
	<polygon id="XMLID_184_" style="fill:#C8F5FF;" points="10.389,221.077 92.387,96.04 174.387,221.077 	"/>
	<polygon id="XMLID_742_" style="fill:#C8F5FF;" points="338.056,221.077 174.058,221.077 256.057,501.027 	"/>
	<path id="XMLID_190_" style="fill:#7D9BFF;" d="M100.423,393.835L100.423,393.835c0-31.36-25.423-56.783-56.783-56.783v0
		c31.36,0,56.783-25.423,56.783-56.783h0c0,31.36,25.423,56.783,56.783,56.783v0C125.846,337.052,100.423,362.475,100.423,393.835z"
		/>
	<path id="XMLID_188_" style="fill:#7D9BFF;" d="M462.054,90.027L462.054,90.027c0-22.091-17.909-40-40-40v0
		c22.091,0,40-17.909,40-40h0c0,22.091,17.909,40,40,40v0C479.963,50.027,462.054,67.936,462.054,90.027z"/>
	<g id="XMLID_994_">
		<path id="XMLID_1686_" d="M428.417,90.556c-1.849-2.818-4.992-4.516-8.362-4.516H92.388c-3.363,0-6.501,1.69-8.351,4.499
			L1.906,215.204c-0.391,0.539-0.73,1.121-1.013,1.743c-1.621,3.574-1.001,7.766,1.585,10.718l41.629,47.532
			c3.639,4.155,9.956,4.573,14.111,0.935c4.154-3.639,4.572-9.957,0.934-14.111l-27.1-30.944h134.515l67.595,230.772l-76.383-87.214
			c-3.638-4.155-9.957-4.573-14.111-0.935c-4.154,3.639-4.572,9.957-0.934,14.111l105.801,120.804
			c1.898,2.168,4.641,3.412,7.523,3.412c2.882,0,5.624-1.244,7.522-3.413l112.642-128.646c3.639-4.155,3.22-10.473-0.936-14.111
			c-4.156-3.639-10.474-3.22-14.111,0.936l-83.219,95.043l67.591-230.759h134.459l-62.19,71.027
			c-3.639,4.155-3.22,10.473,0.936,14.111c1.897,1.662,4.245,2.477,6.584,2.477c2.782,0,5.551-1.155,7.527-3.413l76.714-87.614
			c2.959-3.379,3.302-8.316,0.839-12.071L428.417,90.556z M483.537,211.077H356.573l63.483-96.802L483.537,211.077z
			 M174.222,202.591l-63.318-96.551H237.54L174.222,202.591z M256.057,114.275l63.482,96.802H192.575L256.057,114.275z
			 M274.574,106.04h126.965l-63.483,96.802L274.574,106.04z M92.368,114.246l63.502,96.831H28.576L92.368,114.246z M256.057,465.452
			l-68.649-234.375h137.299L256.057,465.452z"/>
		<path id="XMLID_1712_" d="M167.206,337.052c0-5.523-4.478-10-10-10c-25.796,0-46.783-20.987-46.783-46.783c0-5.523-4.478-10-10-10
			s-10,4.477-10,10c0,25.796-20.987,46.783-46.783,46.783c-5.522,0-10,4.477-10,10s4.478,10,10,10
			c25.796,0,46.783,20.987,46.783,46.783c0,5.523,4.478,10,10,10s10-4.477,10-10c0-25.796,20.987-46.783,46.783-46.783
			C162.729,347.052,167.206,342.575,167.206,337.052z M100.423,358.715c-5.452-8.783-12.88-16.211-21.662-21.663
			c8.782-5.452,16.21-12.879,21.662-21.663c5.452,8.783,12.88,16.211,21.662,21.663
			C113.303,342.504,105.875,349.931,100.423,358.715z"/>
		<path id="XMLID_1717_" d="M422.054,60.027c16.542,0,30,13.458,30,30c0,5.523,4.478,10,10,10s10-4.477,10-10
			c0-16.542,13.458-30,30-30c5.522,0,10-4.477,10-10s-4.478-10-10-10c-16.542,0-30-13.458-30-30c0-5.523-4.478-10-10-10
			s-10,4.477-10,10c0,16.542-13.458,30-30,30c-5.522,0-10,4.477-10,10S416.532,60.027,422.054,60.027z M462.054,39.996
			c2.853,3.798,6.233,7.178,10.031,10.031c-3.798,2.853-7.179,6.233-10.031,10.031c-2.853-3.798-6.233-7.178-10.031-10.031
			C455.821,47.174,459.201,43.794,462.054,39.996z"/>
		<path id="XMLID_1718_" d="M395.757,332.477c-2.631,0-5.2,1.06-7.07,2.93c-1.86,1.86-2.93,4.44-2.93,7.07
			c0,2.63,1.069,5.21,2.93,7.07c1.86,1.86,4.439,2.93,7.07,2.93c2.63,0,5.21-1.07,7.069-2.93c1.86-1.86,2.931-4.44,2.931-7.07
			c0-2.63-1.07-5.21-2.931-7.07C400.967,333.537,398.387,332.477,395.757,332.477z"/>
	</g>
</g>
<g>
</g>
<g>
</g>
<g>
</g>
<g>
</g>
<g>
</g>
<g>
</g>
<g>
</g>
<g>
</g>
<g>
</g>
<g>
</g>
<g>
</g>
<g>
</g>
<g>
</g>
<g>
</g>
<g>
</g>
</svg>
