<?xml version="1.0" encoding="iso-8859-1"?>
<!-- Generator: Adobe Illustrator 19.0.0, SVG Export Plug-In . SVG Version: 6.00 Build 0)  -->
<svg version="1.1" id="Layer_1" xmlns="http://www.w3.org/2000/svg" xmlns:xlink="http://www.w3.org/1999/xlink" x="0px" y="0px"
	 viewBox="0 0 511.947 511.947" style="enable-background:new 0 0 511.947 511.947;" xml:space="preserve">
<g id="XMLID_155_">
	<path id="XMLID_273_" style="fill:#D7FA91;" d="M286.563,440.187c68.773,39.706,156.623,16.296,196.22-52.288
		c17.337-30.029,22.548-63.74,17.157-95.484l0.072,0.042l-25.66-178.551l-154.38,62.067L286.563,440.187z"/>
	<g id="XMLID_73_">
		<path id="XMLID_74_" style="fill:#A5DC69;" d="M32.826,373.152c47.159,81.682,151.788,109.563,233.696,62.274
			s110.076-151.841,62.917-233.523c-20.443-35.409-51.689-60.699-87.199-74.146l0.01-0.006L42.867,46.829L12.306,259.481
			l0.086-0.049C5.971,297.238,12.177,337.387,32.826,373.152z"/>
	</g>
	<g id="XMLID_143_">
		<path id="XMLID_206_" d="M509.999,291.954c-0.016-0.306-0.045-0.613-0.089-0.919l-25.66-178.55
			c-0.437-3.039-2.245-5.708-4.904-7.241c-2.658-1.533-5.874-1.761-8.725-0.615l-118.091,47.477
			c-5.124,2.06-7.607,7.884-5.548,13.008c2.061,5.125,7.886,7.608,13.009,5.548l106.273-42.727l23.679,164.759
			c0.013,0.464,0.059,0.93,0.138,1.396c5.177,30.479-0.491,62.019-15.958,88.81c-17.813,30.853-46.608,52.903-81.084,62.09
			c-34.484,9.189-70.522,4.409-101.476-13.462c-0.214-0.124-0.434-0.228-0.653-0.334c6.636-5.043,12.879-10.504,18.701-16.345
			l117.066-31.368c5.335-1.429,8.501-6.913,7.071-12.248c-1.429-5.334-6.916-8.501-12.247-7.071l-90.077,24.136
			c9.898-14.724,17.641-30.963,22.933-48.336l80.364-21.533c5.335-1.429,8.501-6.913,7.071-12.248
			c-1.429-5.334-6.916-8.501-12.247-7.071l-59.132,15.844l22.236-38.515l46.99-12.591c5.335-1.429,8.501-6.913,7.071-12.248
			c-1.43-5.334-6.916-8.501-12.247-7.071l-27.672,7.415l21.278-36.855c2.762-4.783,1.123-10.899-3.66-13.66
			c-4.784-2.762-10.899-1.123-13.66,3.66l-21.278,36.854l-7.415-27.672c-1.43-5.334-6.914-8.501-12.247-7.071
			c-5.335,1.429-8.501,6.913-7.071,12.248l12.591,46.99l-13.011,22.536c0.384-32.01-7.806-63.642-24.221-92.073
			c-20.671-35.802-53.292-63.607-91.896-78.338c-0.063-0.027-0.128-0.054-0.192-0.081l-45.247-18.364
			c-5.121-2.077-10.949,0.389-13.026,5.505c-2.077,5.118,0.388,10.95,5.505,13.027l44.835,18.196c0.203,0.093,0.41,0.179,0.62,0.259
			c34.485,13.06,63.636,37.846,82.081,69.794c21.47,37.188,27.133,80.535,15.946,122.058c-10.32,38.302-33.844,70.813-66.7,92.534
			l-16.782-29.067l36.383-135.782c1.43-5.335-1.736-10.818-7.071-12.248c-5.338-1.429-10.817,1.737-12.247,7.071L239.1,367.932
			l-37.022-64.124l25.241-94.198c1.43-5.335-1.736-10.818-7.071-12.248c-5.336-1.43-10.817,1.737-12.247,7.071l-20.064,74.88
			l-29.184-50.548l15.201-56.729c1.43-5.335-1.736-10.818-7.071-12.248c-5.337-1.429-10.817,1.737-12.247,7.071L144.61,204.27
			l-27.647-47.887c-2.761-4.783-8.877-6.422-13.66-3.66c-4.783,2.761-6.422,8.877-3.66,13.66l27.647,47.886l-37.41-10.024
			c-5.336-1.43-10.817,1.737-12.247,7.071c-1.43,5.335,1.736,10.818,7.071,12.248l56.728,15.201l29.184,50.548l-74.878-20.063
			c-5.336-1.43-10.817,1.737-12.247,7.071c-1.43,5.335,1.736,10.818,7.071,12.248l94.196,25.24l37.022,64.124l-116.463-31.206
			c-5.337-1.43-10.817,1.737-12.247,7.071c-1.43,5.335,1.736,10.818,7.071,12.248l135.781,36.382l16.78,29.064
			c-75.566,37.662-168.564,10.537-211.216-63.338c-18.644-32.293-25.475-70.309-19.235-107.046c0.085-0.496,0.13-0.991,0.138-1.484
			L50.947,60.901l66.244,26.886c5.122,2.078,10.949-0.388,13.026-5.505c2.077-5.118-0.388-10.95-5.505-13.027L46.627,37.563
			c-2.849-1.155-6.074-0.937-8.74,0.594c-2.667,1.531-4.481,4.205-4.919,7.25L2.408,258.059c-0.049,0.337-0.079,0.675-0.093,1.01
			c-6.637,40.913,1.104,83.148,21.851,119.083c33.41,57.869,94.284,90.237,156.862,90.236c27.638,0,55.603-6.338,81.685-19.558
			l12.29,21.286c1.853,3.208,5.213,5.001,8.67,5.001c1.696,0,3.416-0.432,4.99-1.341c4.783-2.761,6.422-8.877,3.66-13.66
			l-4.557-7.893c22.096,11.471,46.196,17.339,70.585,17.339c13.289,0,26.663-1.737,39.839-5.248
			c39.646-10.565,72.766-35.928,93.254-71.416C509.03,362.438,515.602,326.638,509.999,291.954z"/>
		<path id="XMLID_213_" d="M158.172,103.632c2.63,0,5.21-1.07,7.069-2.93c1.87-1.87,2.931-4.45,2.931-7.08s-1.061-5.2-2.931-7.07
			c-1.859-1.86-4.439-2.93-7.069-2.93c-2.631,0-5.21,1.07-7.07,2.93c-1.86,1.87-2.93,4.44-2.93,7.07c0,2.64,1.069,5.21,2.93,7.08
			C152.962,102.563,155.541,103.632,158.172,103.632z"/>
		<path id="XMLID_255_" d="M427.654,186.1c1.957,2.694,5.007,4.125,8.1,4.125c2.037,0,4.094-0.621,5.868-1.909
			c4.469-3.245,5.461-9.499,2.216-13.967l-0.06-0.082c-3.246-4.469-9.5-5.46-13.968-2.215c-4.469,3.245-5.461,9.499-2.216,13.967
			L427.654,186.1z"/>
	</g>
</g>
<g>
</g>
<g>
</g>
<g>
</g>
<g>
</g>
<g>
</g>
<g>
</g>
<g>
</g>
<g>
</g>
<g>
</g>
<g>
</g>
<g>
</g>
<g>
</g>
<g>
</g>
<g>
</g>
<g>
</g>
</svg>
