<?xml version="1.0" encoding="iso-8859-1"?>
<!-- Generator: Adobe Illustrator 19.0.0, SVG Export Plug-In . SVG Version: 6.00 Build 0)  -->
<svg version="1.1" id="Layer_1" xmlns="http://www.w3.org/2000/svg" xmlns:xlink="http://www.w3.org/1999/xlink" x="0px" y="0px"
	 viewBox="0 0 512.013 512.013" style="enable-background:new 0 0 512.013 512.013;" xml:space="preserve">
<g id="XMLID_30_">
	<path id="XMLID_745_" style="fill:#C8F5FF;" d="M448.003,166.013h-384c-29.823,0-54,24.177-54,54v228c0,29.823,24.177,54,54,54h384
		c29.823,0,54-24.177,54-54v-228C502.003,190.189,477.827,166.013,448.003,166.013z"/>
	<path id="XMLID_901_" style="fill:#FF5A5A;" d="M448.003,166.013h-384c-29.823,0-54,24.177-54,54v70.296l5.54-0.296h140.95h201.716
		h140.95h2.844v-70C502.003,190.189,477.827,166.013,448.003,166.013z"/>
	<circle id="XMLID_246_" style="fill:#78D2FA;" cx="256.003" cy="334.013" r="108"/>
	<circle id="XMLID_2276_" style="fill:#FFFFFF;" cx="256.003" cy="334.013" r="66.121"/>
	<circle id="XMLID_249_" style="fill:#78D2FA;" cx="256.003" cy="334.013" r="24"/>
	<circle id="XMLID_250_" style="fill:#FF6E37;" cx="92.466" cy="228.013" r="20"/>
	<path id="XMLID_252_" style="fill:#7D9BFF;" d="M99.726,130.013h-14.52c-10.86,0-19.663,8.804-19.663,19.663v16.337h53.846v-16.337
		C119.389,138.816,110.586,130.013,99.726,130.013z"/>
	<path id="XMLID_248_" style="fill:#F0F0FA;" d="M158.685,129.098l-9.768,36.915h224l-9.768-36.915
		c-4.224-15.965-18.669-27.085-35.184-27.085H193.87C177.355,102.013,162.91,113.133,158.685,129.098z"/>
	<g id="XMLID_1940_">
		<path id="XMLID_1941_" d="M256.003,258.013c-41.906,0-76,34.093-76,76s34.094,76,76,76s76-34.093,76-76c0-5.523-4.478-10-10-10
			s-10,4.477-10,10c0,30.878-25.121,56-56,56s-56-25.122-56-56s25.121-56,56-56c5.522,0,10-4.477,10-10
			S261.526,258.013,256.003,258.013z"/>
		<path id="XMLID_1955_" d="M222.003,334.013c0,18.748,15.252,34,34,34s34-15.252,34-34s-15.252-34-34-34
			S222.003,315.265,222.003,334.013z M270.003,334.013c0,7.72-6.28,14-14,14s-14-6.28-14-14s6.28-14,14-14
			S270.003,326.293,270.003,334.013z"/>
		<path id="XMLID_1958_" d="M502.003,406.013c-5.522,0-10,4.477-10,10v32c0,24.262-19.738,44-44,44h-384c-24.262,0-44-19.738-44-44
			v-148H143.04c-3.287,10.873-5.037,22.308-5.037,34c0,65.065,52.935,118,118,118s118-52.935,118-118c0-11.722-1.73-23.151-4.986-34
			h122.986v28.5c0,5.523,4.478,10,10,10s10-4.477,10-10v-108.5c0-35.29-28.71-64-64-64h-67.388l-7.798-29.473
			c-5.379-20.329-23.822-34.527-44.852-34.527H193.87c-21.029,0-39.473,14.198-44.852,34.527l-7.798,29.473h-11.831v-6.336
			c0-16.356-13.307-29.664-29.663-29.664H85.206c-16.356,0-29.663,13.307-29.663,29.664v6.913
			c-31.303,4.155-55.539,31.004-55.539,63.423v228c0,35.29,28.71,64,64,64h384c35.29,0,64-28.71,64-64v-32
			C512.003,410.49,507.526,406.013,502.003,406.013z M168.352,131.656c3.061-11.566,13.554-19.644,25.518-19.644h134.096
			c11.964,0,22.457,8.078,25.518,19.644l6.444,24.356h-198.02L168.352,131.656z M75.542,149.676c0-5.329,4.335-9.664,9.663-9.664
			h14.521c5.328,0,9.663,4.335,9.663,9.664v6.336H75.542V149.676z M64.003,176.013h1.539h53.847h29.528h224h75.086
			c24.262,0,44,19.738,44,44v60H360.959c-12.325-23.973-32.764-43.511-58.649-54.565c-5.078-2.167-10.956,0.19-13.124,5.27
			c-2.169,5.079,0.189,10.955,5.269,13.124c36.175,15.448,59.549,50.842,59.549,90.171c0,54.038-43.963,98-98,98s-98-43.962-98-98
			c0-38.304,22.529-73.326,57.396-89.221c5.025-2.291,7.241-8.222,4.95-13.248c-2.29-5.025-8.223-7.239-13.247-4.951
			c-24.557,11.196-44.018,30.28-55.951,53.419H20.003v-60C20.003,195.751,39.742,176.013,64.003,176.013z"/>
		<path id="XMLID_1963_" d="M92.466,258.013c16.542,0,30-13.458,30-30s-13.458-30-30-30s-30,13.458-30,30
			S75.924,258.013,92.466,258.013z M92.466,218.013c5.514,0,10,4.486,10,10s-4.486,10-10,10s-10-4.486-10-10
			S86.953,218.013,92.466,218.013z"/>
		<path id="XMLID_1964_" d="M408.959,238.013h25.893c5.522,0,10-4.477,10-10s-4.478-10-10-10h-25.893c-5.522,0-10,4.477-10,10
			S403.437,238.013,408.959,238.013z"/>
		<path id="XMLID_1965_" d="M255.889,68.111c5.522,0,10-4.477,10-10V10c0-5.523-4.478-10-10-10s-10,4.477-10,10v48.111
			C245.889,63.634,250.367,68.111,255.889,68.111z"/>
		<path id="XMLID_1966_" d="M325.048,79.023c2.559,0,5.118-0.977,7.071-2.929l19.631-19.63c3.905-3.905,3.905-10.237,0-14.142
			s-10.235-3.905-14.143,0l-19.631,19.63c-3.905,3.905-3.905,10.237,0,14.142C319.93,78.047,322.489,79.023,325.048,79.023z"/>
		<path id="XMLID_1967_" d="M180.015,76.451c1.953,1.953,4.512,2.929,7.071,2.929s5.118-0.977,7.071-2.929
			c3.905-3.905,3.905-10.237,0-14.142l-19.631-19.63c-3.906-3.905-10.236-3.905-14.143,0c-3.905,3.905-3.905,10.237,0,14.142
			L180.015,76.451z"/>
		<path id="XMLID_1968_" d="M256.009,236.013c2.63,0,5.199-1.07,7.069-2.93c1.86-1.86,2.92-4.44,2.92-7.07
			c0-2.63-1.06-5.21-2.92-7.07c-1.87-1.86-4.439-2.93-7.069-2.93c-2.641,0-5.221,1.07-7.08,2.93c-1.86,1.86-2.931,4.44-2.931,7.07
			c0,2.63,1.07,5.21,2.931,7.07C250.799,234.942,253.369,236.013,256.009,236.013z"/>
		<path id="XMLID_1969_" d="M501.999,363.513c-2.63,0-5.21,1.07-7.069,2.93c-1.86,1.86-2.931,4.44-2.931,7.07
			c0,2.63,1.07,5.21,2.931,7.07c1.859,1.86,4.439,2.93,7.069,2.93c2.641,0,5.21-1.07,7.07-2.93c1.87-1.86,2.94-4.44,2.94-7.07
			c0-2.63-1.07-5.21-2.94-7.07C507.208,364.583,504.639,363.513,501.999,363.513z"/>
	</g>
</g>
<g>
</g>
<g>
</g>
<g>
</g>
<g>
</g>
<g>
</g>
<g>
</g>
<g>
</g>
<g>
</g>
<g>
</g>
<g>
</g>
<g>
</g>
<g>
</g>
<g>
</g>
<g>
</g>
<g>
</g>
</svg>
