<?xml version="1.0" encoding="iso-8859-1"?>
<!-- Generator: Adobe Illustrator 19.0.0, SVG Export Plug-In . SVG Version: 6.00 Build 0)  -->
<svg version="1.1" id="Layer_1" xmlns="http://www.w3.org/2000/svg" xmlns:xlink="http://www.w3.org/1999/xlink" x="0px" y="0px"
	 viewBox="0 0 512 512" style="enable-background:new 0 0 512 512;" xml:space="preserve">
<g id="XMLID_1028_">
	<path id="XMLID_46_" style="fill:#AAE6FF;" d="M368.638,346.309c-86.194,49.764-196.409,20.232-246.173-65.962
		S102.233,83.938,188.427,34.174S384.836,13.942,434.6,100.136S454.832,296.545,368.638,346.309z"/>
	<path id="XMLID_47_" style="fill:#A5DC69;" d="M291.251,144.313c-1.297,0.304-3.81,0.942-4.898,1.814
		c-1.357,1.088,0.763,2.503-0.011,3.123c-1.337,1.07-2.306,3.01-5.169,2.827c-5.981-0.382-15.173-8.118-20.637-11.042
		c8.81-9.067-5.129-10.425-10.561-9.971c-7.036,0.589-19.21-0.046-25.565,3.532c-4.411,2.483-10.338,12.79-13.892,16.884
		c-4.946,5.698-9.923,10.645-13.146,17.466c-11.823,25.025,6.374,53.756,34.974,50.396c7.94-0.933,16.27-5.925,23.307,0.663
		c5.186,4.855,2.441,9.423,3.816,15.085c1.19,4.899,6.615,7.913,8.492,12.412c3.599,8.624,1.32,14.019-1.249,21.973
		c-3.372,10.438,5.349,22.831,8.742,32.904c1.709,5.072,6.69,19.276,11.579,21.499c7.688,3.495,19.738-6.987,24.329-12.625
		c3.589-4.408,2.417-8.885,4.828-13.012c2.609-4.466,5.912-5.808,7.739-11.565c1.97-6.207,4.017-7.751,8.179-12.279
		c6.699-7.29,5.659-11.551,2.981-20.195c-5.565-17.957,14.65-26.351,23.755-39.533c9.508-13.765-8.871-9.176-16.074-13.885
		c-7.406-4.841-10.642-14.04-14.212-21.667c-3.569-7.627-6.523-19.089-12.434-25.354
		C311.57,148.938,297.718,146.701,291.251,144.313z"/>
	<path id="XMLID_48_" style="fill:#A5DC69;" d="M434.6,100.136C403.56,46.374,349.002,14.66,291.425,10.478L267.858,40.04
		l-50.509,17.708l-13.55,32.848l20.902,29.281l2.222-6.19c3.709-10.335,13.508-17.229,24.488-17.229h34.449l39.598,13.915
		l13.639,13.02v8.27l18.962,36.32l5.522-2.036c11.923-4.397,22.75-11.327,31.736-20.312l-4.578-6.867
		c-1.456-2.184,0.11-5.108,2.734-5.108h11.049c3.236,0,6.309,1.417,8.411,3.877l9.027,10.568c0.86,1.007,1.532,2.16,1.985,3.404
		l9.961,27.392l4.742-4.742c2.99-2.99,4.504-7.064,4.574-11.291c0.057-3.399,1.531-6.624,4.073-8.891l3.631-3.238
		c0.913-0.814,1.931-1.476,3.016-1.976C449.993,132.101,443.6,115.725,434.6,100.136z"/>
	<path id="XMLID_49_" style="fill:#A5DC69;" d="M182.526,286.739c8.125-2.639,12.571-11.365,9.932-19.49l-2.321-7.143
		c-1.014-3.12-1.009-6.482,0.014-9.6v0c2.899-8.838-2.602-18.218-11.731-20.001l-18.211-3.559l-33.266-25.293l-27.502,8.935
		c2.701,23.884,10.239,47.615,23.024,69.761c11.825,20.481,27.067,37.755,44.585,51.534l8.195-42.777L182.526,286.739z"/>
	<path id="XMLID_930_" style="fill:#878791;" d="M324.532,462h-92c-22.091,0-40,17.909-40,40v0h172v0
		C364.532,479.909,346.624,462,324.532,462z"/>
	<g id="XMLID_1807_">
		<path id="XMLID_1948_" d="M431.267,343.512c-0.103,0.103-0.208,0.201-0.311,0.304l-17.711-17.711
			c34.708-34.591,56.219-82.416,56.219-135.173C469.464,85.651,383.813,0,278.532,0c-52.588,0-100.277,21.371-134.841,55.884
			l-17.869-17.869c3.879-3.907,3.872-10.219-0.025-14.115c-3.905-3.905-10.238-3.905-14.142,0
			c-39.407,39.407-63.663,91.649-68.298,147.104c-4.581,54.8,10.121,109.686,41.398,154.549c1.944,2.788,5.052,4.282,8.212,4.282
			c1.974,0,3.968-0.583,5.71-1.798c4.53-3.159,5.643-9.392,2.484-13.922c-56.01-80.338-50.523-187.178,11.167-261.309l17.953,17.953
			c-26.671,32.839-42.681,74.668-42.681,120.172c0,105.28,85.651,190.932,190.932,190.932c45.334,0,87.02-15.892,119.803-42.383
			l17.794,17.794c-73.216,60.556-178.862,66.565-258.664,12.436c-4.571-3.102-10.789-1.908-13.889,2.663
			c-3.1,4.57-1.908,10.789,2.663,13.889c37.266,25.277,79.684,38.547,122.293,40.303V452h-36c-27.57,0-50,22.43-50,50
			c0,5.523,4.477,10,10,10h172c5.523,0,10-4.477,10-10c0-27.57-22.43-50-50-50h-36v-25.459
			c57.446-2.483,113.82-25.829,156.877-68.886c3.905-3.905,3.905-10.237,0-14.143C441.504,339.608,435.172,339.608,431.267,343.512z
			 M443.021,144.386l-2.385,2.127c-2.241,1.999-4.031,4.42-5.292,7.09l-2.005-5.514c-0.864-2.376-2.136-4.556-3.779-6.48
			l-9.026-10.567c-4.008-4.692-9.845-7.383-16.015-7.383h-11.049c-4.909,0-9.398,2.689-11.714,7.018
			c-2.255,4.215-2.075,9.281,0.451,13.315c-5.861,4.74-12.428,8.646-19.383,11.516l-13.729-26.298v-5.816
			c0-2.732-1.118-5.346-3.095-7.233l-13.639-13.021c-1.027-0.98-2.25-1.73-3.59-2.201l-39.598-13.915
			c-1.065-0.374-2.187-0.565-3.315-0.565H251.41c-11.261,0-21.675,5.29-28.385,13.861l-7.872-11.027l9.731-23.589l46.282-16.226
			c1.775-0.623,3.338-1.733,4.511-3.203l20.245-25.395C366.322,28.024,424.23,78.07,443.021,144.386z M325.536,257.163
			c2.226,7.184,2.226,7.184-0.792,10.468c-0.531,0.577-1.025,1.104-1.488,1.596c-3.469,3.693-6.465,6.882-8.859,14.423
			c-0.47,1.48-1.004,2.083-2.434,3.692c-1.287,1.449-2.888,3.252-4.408,5.855c-1.887,3.23-2.511,6.338-2.966,8.608
			c-0.41,2.042-0.568,2.625-0.982,3.133c-3.537,4.344-9.227,8.483-12.144,9.434c-1.144-1.743-3.417-5.935-6.533-15.186
			c-1.099-3.261-2.59-6.547-4.033-9.725c-2.775-6.112-5.92-13.04-4.669-16.913l0.545-1.67c2.549-7.77,5.185-15.804,0.417-27.228
			c-1.513-3.627-3.904-6.257-5.825-8.371c-0.766-0.843-1.909-2.1-2.205-2.666c-0.153-0.731-0.147-1.715-0.139-2.943
			c0.026-4.033,0.071-10.783-6.535-16.967c-9.168-8.584-19.888-5.932-26.292-4.348c-1.837,0.455-3.573,0.884-5.016,1.054
			c-9.292,1.091-17.584-2.395-22.738-9.567c-5.436-7.563-6.212-17.766-2.027-26.626c2.062-4.364,5.307-8.015,9.064-12.243
			c0.859-0.966,1.726-1.942,2.591-2.939c1.519-1.75,3.128-4.035,4.833-6.455c1.771-2.515,5.043-7.158,6.548-8.345
			c2.819-1.457,10.452-1.727,15.042-1.89c2.146-0.076,4.179-0.148,6.042-0.295c0.001,0.505,0.04,1.013,0.119,1.52
			c0.482,3.103,2.395,5.799,5.164,7.281c1.26,0.674,3.122,1.915,5.092,3.229c6.006,4.003,12.814,8.542,19.625,8.976
			c6.763,0.43,10.59-3.471,12.032-4.941c0.064-0.066,0.127-0.131,0.191-0.195c0.453-0.379,0.893-0.814,1.301-1.3
			c0.604,0.166,1.219,0.332,1.84,0.5c3.626,0.982,11.147,3.018,13.007,4.567c2.784,2.999,5.136,9.087,7.213,14.463
			c1.069,2.768,2.175,5.629,3.381,8.207c0.495,1.057,0.982,2.146,1.477,3.249c3.356,7.488,7.534,16.807,16.32,22.55
			c3.173,2.074,6.845,3.018,10.202,3.623c-1.807,1.935-3.902,3.886-6.07,5.905C332.318,227.167,319.841,238.787,325.536,257.163z
			 M109.713,217.764l15.343-4.984l29.101,22.126c1.218,0.926,2.633,1.561,4.135,1.854l18.211,3.559
			c2.106,0.412,3.202,1.806,3.668,2.6s1.147,2.431,0.479,4.471c-1.695,5.168-1.703,10.633-0.022,15.806l2.321,7.143
			c0.932,2.868-0.643,5.958-3.511,6.89l-7.281,2.365c-3.466,1.126-6.046,4.049-6.731,7.629l-5.171,26.991
			C133.938,288.956,115.669,255.383,109.713,217.764z M177.796,328.934l6.158-32.145l1.661-0.54
			c13.356-4.338,20.692-18.734,16.353-32.09l-2.321-7.143c-0.361-1.111-0.359-2.285,0.005-3.394
			c2.275-6.936,1.462-14.525-2.23-20.821c-3.692-6.297-9.919-10.711-17.084-12.112l-15.929-3.112l-31.414-23.886
			c-2.609-1.982-6.023-2.562-9.143-1.55l-16.118,5.236c-0.08-2.14-0.134-4.287-0.134-6.446c0-91.694,72.577-166.747,163.302-170.753
			l-9.07,11.377L214.04,48.311c-2.689,0.943-4.849,2.989-5.936,5.624l-13.55,32.848c-1.313,3.184-0.896,6.82,1.105,9.624
			l20.902,29.281c0.351,0.491,0.754,0.929,1.177,1.342c-3.781,2.759-7.098,7.232-11.186,13.034
			c-1.343,1.906-2.732,3.877-3.588,4.863c-0.814,0.938-1.629,1.855-2.437,2.764c-4.38,4.928-8.91,10.025-12.199,16.986
			c-7.29,15.43-5.807,33.378,3.87,46.842c9.383,13.056,24.824,19.691,41.313,17.757c2.691-0.316,5.238-0.946,7.485-1.502
			c5.761-1.425,6.844-1.38,7.82-0.466c0.07,0.065,0.123,0.12,0.163,0.162c0.051,0.452,0.045,1.375,0.041,2.073
			c-0.014,2.016-0.032,4.776,0.729,7.909c1.254,5.166,4.467,8.701,6.813,11.282c0.769,0.846,1.931,2.125,2.168,2.622
			c1.821,4.363,1.261,6.512-0.963,13.291l-0.574,1.757c-3.63,11.24,1.427,22.378,5.491,31.329c1.294,2.85,2.516,5.542,3.291,7.842
			c6.913,20.519,12.431,25.37,16.917,27.409c2.532,1.151,5.091,1.644,7.618,1.643c14.519-0.001,27.945-16.248,28.604-17.057
			c3.597-4.417,4.491-8.878,5.083-11.83c0.198-0.986,0.422-2.104,0.626-2.453c0.521-0.893,1.181-1.635,2.094-2.664
			c2.02-2.274,4.786-5.39,6.542-10.92c1.019-3.21,1.531-3.755,4.374-6.781c0.509-0.542,1.053-1.121,1.637-1.756
			c10.801-11.752,7.938-20.989,5.17-29.922c-1.718-5.542,0.815-8.979,10.419-17.923c4.211-3.921,8.565-7.976,12.012-12.966
			c1.644-2.38,6.647-9.624,3.357-17.254c-3.237-7.507-11.104-8.713-16.849-9.594c-1.688-0.259-4.5-0.69-5.4-1.131
			c-3.845-2.556-6.441-8.348-8.952-13.95c-0.54-1.204-1.073-2.392-1.613-3.545c-0.913-1.952-1.849-4.374-2.839-6.937
			c-2.754-7.129-5.875-15.209-11.378-21.041c-5.14-5.448-14.241-7.912-22.271-10.086c-2.527-0.684-4.913-1.331-6.411-1.883
			c-1.84-0.679-3.838-0.802-5.748-0.355c-4.155,0.975-6.808,2.095-8.869,3.748c-0.694,0.557-1.363,1.236-1.955,2.023
			c-1.598-0.927-3.354-2.063-4.81-3.025c0.309-2.939-0.434-5.347-1.192-6.95c-4.847-10.253-20.007-9.524-23-9.274
			c-1.458,0.122-3.352,0.189-5.356,0.26c-2.875,0.102-6.013,0.214-9.176,0.515l1.726-4.809c2.277-6.344,8.336-10.607,15.076-10.607
			h32.743l35.957,12.635l8.986,8.579v3.991c0,1.612,0.39,3.199,1.135,4.628l18.961,36.32c2.328,4.459,7.604,6.495,12.325,4.754
			l5.521-2.036c13.186-4.862,25.409-12.686,35.348-22.624c2.372-2.373,3.334-5.691,2.773-8.833c0.061,0.046,0.117,0.099,0.167,0.158
			l9.026,10.567c0.083,0.098,0.148,0.208,0.191,0.327l9.961,27.392c1.168,3.212,3.896,5.605,7.232,6.345
			c0.72,0.16,1.445,0.237,2.166,0.237c2.623,0,5.175-1.033,7.071-2.929l4.742-4.743c1.205-1.205,2.273-2.524,3.202-3.936
			c0.357,4.501,0.545,9.048,0.545,13.639c0,94.252-76.68,170.932-170.932,170.932C240.894,361.863,206.066,349.626,177.796,328.934z
			 M352.819,492H204.246c4.127-11.641,15.249-20,28.287-20h92C337.57,472,348.691,480.359,352.819,492z"/>
		<path id="XMLID_1973_" d="M118.726,338.989c-5.523,0-10,4.477-10,10v1.594c0,5.523,4.477,10,10,10s10-4.477,10-10v-1.594
			C128.726,343.466,124.249,338.989,118.726,338.989z"/>
	</g>
</g>
<g>
</g>
<g>
</g>
<g>
</g>
<g>
</g>
<g>
</g>
<g>
</g>
<g>
</g>
<g>
</g>
<g>
</g>
<g>
</g>
<g>
</g>
<g>
</g>
<g>
</g>
<g>
</g>
<g>
</g>
</svg>
