<?xml version="1.0" encoding="iso-8859-1"?>
<!-- Generator: Adobe Illustrator 19.0.0, SVG Export Plug-In . SVG Version: 6.00 Build 0)  -->
<svg version="1.1" id="Layer_1" xmlns="http://www.w3.org/2000/svg" xmlns:xlink="http://www.w3.org/1999/xlink" x="0px" y="0px"
	 viewBox="0 0 512.031 512.031" style="enable-background:new 0 0 512.031 512.031;" xml:space="preserve">
<g id="XMLID_1257_">
	<path id="XMLID_174_" style="fill:#C8F5FF;" d="M399.698,350.408l16.166,0c47.589,0,86.167-38.578,86.167-86.167
		s-38.578-86.168-86.167-86.168c-11.328,0-22.135,2.208-32.043,6.181c-9.086-72.853-71.229-129.229-146.544-129.229
		c-77.729,0-141.433,60.047-147.256,136.284c-13.835-0.089-27.871,3.418-40.672,10.924c-37.899,22.223-50.607,70.961-28.385,108.86
		c15.365,26.204,43.406,40.355,71.776,39.255v0.058l21.624,0L399.698,350.408z"/>
	<g id="XMLID_75_">
		<path id="XMLID_2724_" d="M138.479,201.311c-0.256,0-0.513-0.01-0.772-0.029c-5.507-0.421-9.63-5.226-9.209-10.733
			c2.088-27.342,14.33-52.723,34.469-71.466c20.247-18.843,46.638-29.22,74.311-29.22c5.523,0,10,4.477,10,10s-4.477,10-10,10
			c-46.295,0-85.318,36.111-88.838,82.209C148.038,197.319,143.656,201.311,138.479,201.311z"/>
	</g>
	<g id="XMLID_116_">
		<path id="XMLID_2723_" d="M89.615,360.409c-31.763,0-61.134-16.728-77.276-44.257C0.239,295.518-3.1,271.408,2.935,248.262
			s20.722-42.556,41.356-54.655c11.256-6.601,23.79-10.645,36.684-11.888c4.809-36.129,21.968-69.398,48.897-94.46
			c29.263-27.234,67.407-42.233,107.405-42.233c75.339,0,139.759,53.418,154.521,126.1c7.832-2.029,15.886-3.053,24.065-3.053
			c53.027,0,96.167,43.141,96.167,96.167s-43.141,96.167-96.167,96.167h-16.166c-5.523,0-10-4.477-10-10s4.477-10,10-10h16.166
			c41.999,0,76.167-34.168,76.167-76.167s-34.168-76.167-76.167-76.167c-9.753,0-19.282,1.838-28.32,5.463
			c-2.878,1.153-6.129,0.906-8.801-0.667c-2.671-1.575-4.461-4.3-4.845-7.377c-8.565-68.677-67.299-120.466-136.621-120.466
			c-71.541,0-131.844,55.805-137.285,127.046c-0.398,5.215-4.748,9.238-9.97,9.238c-0.167,0-0.338-0.001-0.508-0.001
			c-12.313,0-24.443,3.298-35.106,9.552c-16.026,9.396-27.433,24.472-32.12,42.448c-4.688,17.976-2.094,36.702,7.303,52.728
			c12.999,22.167,37.05,35.329,62.762,34.32c0.493-0.019,0.981-0.001,1.465,0.051h20.547c5.523,0,10,4.477,10,10s-4.477,10-10,10
			H92.741c-0.255,0-0.509-0.01-0.759-0.028C91.191,360.399,90.403,360.409,89.615,360.409z"/>
	</g>
	<g id="XMLID_173_">
		<path id="XMLID_2722_" d="M270.532,113.516c-2.63,0-5.21-1.07-7.07-2.93c-1.86-1.86-2.93-4.44-2.93-7.07
			c0-2.63,1.07-5.21,2.93-7.07c1.86-1.86,4.44-2.93,7.07-2.93c2.63,0,5.21,1.07,7.07,2.93c1.86,1.86,2.93,4.44,2.93,7.07
			c0,2.63-1.07,5.21-2.93,7.07S273.161,113.516,270.532,113.516z"/>
	</g>
	<polygon id="XMLID_115_" style="fill:#A5DC69;" points="345.522,329.007 256.032,174.006 166.541,329.007 216.032,329.007 
		216.032,457.006 296.032,457.006 296.032,329.007 	"/>
	<g id="XMLID_2003_">
		<path id="XMLID_2006_" d="M296.032,396.516c-2.63,0-5.21-1.07-7.07-2.93c-1.86-1.86-2.93-4.44-2.93-7.07
			c0-2.63,1.07-5.21,2.93-7.07c1.86-1.86,4.44-2.93,7.07-2.93c2.63,0,5.21,1.07,7.07,2.93c1.86,1.86,2.93,4.44,2.93,7.07
			c0,2.63-1.07,5.21-2.93,7.07S298.661,396.516,296.032,396.516z"/>
	</g>
	<g id="XMLID_117_">
		<path id="XMLID_2005_" d="M296.032,467.005h-80c-5.523,0-10-4.477-10-10V339.007h-39.49c-3.573,0-6.874-1.906-8.66-5
			c-1.787-3.094-1.787-6.906,0-10l89.49-155.001c1.786-3.094,5.087-5,8.66-5c3.573,0,6.874,1.906,8.66,5l89.49,155.001
			c1.787,3.094,1.787,6.906,0,10c-1.786,3.094-5.087,5-8.66,5h-39.49v7.509c0,5.523-4.477,10-10,10s-10-4.477-10-10v-17.509
			c0-5.523,4.477-10,10-10h32.17l-72.17-125.001l-72.17,125.001h32.17c5.523,0,10,4.477,10,10v117.999h60v-20.989
			c0-5.523,4.477-10,10-10s10,4.477,10,10v30.989C306.032,462.528,301.554,467.005,296.032,467.005z"/>
	</g>
</g>
<g>
</g>
<g>
</g>
<g>
</g>
<g>
</g>
<g>
</g>
<g>
</g>
<g>
</g>
<g>
</g>
<g>
</g>
<g>
</g>
<g>
</g>
<g>
</g>
<g>
</g>
<g>
</g>
<g>
</g>
</svg>
