<?xml version="1.0" encoding="iso-8859-1"?>
<!-- Generator: Adobe Illustrator 19.0.0, SVG Export Plug-In . SVG Version: 6.00 Build 0)  -->
<svg version="1.1" id="Layer_1" xmlns="http://www.w3.org/2000/svg" xmlns:xlink="http://www.w3.org/1999/xlink" x="0px" y="0px"
	 viewBox="0 0 512.001 512.001" style="enable-background:new 0 0 512.001 512.001;" xml:space="preserve">
<g id="XMLID_378_">
	<polygon id="XMLID_1271_" style="fill:#FF6E37;" points="77.848,256 256.001,77.848 434.153,256 502.001,256 256.001,10.001 
		10.001,256 	"/>
	<polygon id="XMLID_1286_" style="fill:#FFFFFF;" points="64.001,256.917 64.001,502.001 448.001,502.001 448.001,256.917 
		256.001,77.848 	"/>
	<rect id="XMLID_1313_" x="204.001" y="302.001" style="fill:#9BBEFF;" width="104" height="200"/>
	<rect id="XMLID_1342_" x="350.001" y="302.001" style="fill:#F5C86E;" width="56" height="100"/>
	<rect id="XMLID_1341_" x="106.001" y="302.001" style="fill:#F5C86E;" width="56" height="100"/>
	<circle id="XMLID_1339_" style="fill:#F5C86E;" cx="256.001" cy="210.321" r="36"/>
	<g id="XMLID_2028_">
		<path id="XMLID_2050_" d="M502.001,492.001h-44v-79c0-5.523-4.478-10-10-10s-10,4.477-10,10v79h-120v-190c0-5.523-4.478-10-10-10
			h-104c-5.522,0-10,4.477-10,10v190h-120V266h3.848c2.652,0,5.195-1.054,7.071-2.929L256.001,91.99l171.081,171.081
			c1.876,1.875,4.419,2.929,7.071,2.929h3.848v75c0,5.523,4.478,10,10,10s10-4.477,10-10v-75h44c4.045,0,7.691-2.437,9.239-6.173
			c1.548-3.736,0.691-8.038-2.168-10.898l-246-246c-3.906-3.905-10.236-3.905-14.143,0l-94,94c-3.905,3.905-3.905,10.237,0,14.142
			c3.906,3.906,10.238,3.906,14.143,0l86.929-86.929L477.858,246h-39.563L263.072,70.777c-3.906-3.905-10.236-3.905-14.143,0
			L73.706,246H34.143l78.929-78.928c3.905-3.905,3.905-10.237,0-14.143c-3.905-3.904-10.237-3.905-14.143,0l-96,96
			c-2.859,2.86-3.716,7.161-2.168,10.898S5.956,266,10.001,266h44v226h-44c-5.522,0-10,4.477-10,10s4.478,10,10,10h54h140h104h140
			h54c5.522,0,10-4.477,10-10S507.523,492.001,502.001,492.001z M214.001,492.001v-180h84v180H214.001z"/>
		<path id="XMLID_2054_" d="M350.001,292.001c-5.522,0-10,4.477-10,10v100c0,5.523,4.478,10,10,10h56c5.522,0,10-4.477,10-10v-100
			c0-5.523-4.478-10-10-10H350.001z M396.001,392.001h-36v-80h36V392.001z"/>
		<path id="XMLID_2057_" d="M106.001,292.001c-5.522,0-10,4.477-10,10v100c0,5.523,4.478,10,10,10h56c5.522,0,10-4.477,10-10v-100
			c0-5.523-4.478-10-10-10H106.001z M152.001,392.001h-36v-80h36V392.001z"/>
		<path id="XMLID_2060_" d="M210.001,210.321c0,25.364,20.636,46,46,46s46-20.636,46-46s-20.636-46-46-46
			S210.001,184.957,210.001,210.321z M282.001,210.321c0,14.336-11.663,26-26,26s-26-11.664-26-26s11.663-26,26-26
			S282.001,195.985,282.001,210.321z"/>
		<path id="XMLID_2061_" d="M237.001,392.001c-2.63,0-5.21,1.07-7.07,2.93c-1.86,1.86-2.93,4.44-2.93,7.07
			c0,2.63,1.069,5.21,2.93,7.07s4.44,2.93,7.07,2.93s5.21-1.07,7.069-2.93c1.86-1.86,2.931-4.44,2.931-7.07
			c0-2.63-1.07-5.21-2.931-7.07C242.211,393.071,239.63,392.001,237.001,392.001z"/>
		<path id="XMLID_2062_" d="M133.001,143.001c2.63,0,5.21-1.07,7.069-2.93c1.86-1.86,2.931-4.44,2.931-7.07
			c0-2.63-1.07-5.21-2.931-7.07c-1.859-1.86-4.439-2.93-7.069-2.93s-5.21,1.07-7.07,2.93c-1.86,1.86-2.93,4.44-2.93,7.07
			c0,2.63,1.069,5.21,2.93,7.07S130.371,143.001,133.001,143.001z"/>
		<path id="XMLID_2063_" d="M448.001,364.33c-2.63,0-5.21,1.07-7.07,2.93c-1.86,1.87-2.93,4.44-2.93,7.07
			c0,2.63,1.069,5.21,2.93,7.08c1.86,1.86,4.44,2.92,7.07,2.92s5.21-1.06,7.069-2.92c1.86-1.87,2.931-4.44,2.931-7.08
			c0-2.63-1.07-5.21-2.931-7.07C453.211,365.401,450.63,364.33,448.001,364.33z"/>
	</g>
</g>
<g>
</g>
<g>
</g>
<g>
</g>
<g>
</g>
<g>
</g>
<g>
</g>
<g>
</g>
<g>
</g>
<g>
</g>
<g>
</g>
<g>
</g>
<g>
</g>
<g>
</g>
<g>
</g>
<g>
</g>
</svg>
