<?xml version="1.0" encoding="iso-8859-1"?>
<!-- Generator: Adobe Illustrator 19.0.0, SVG Export Plug-In . SVG Version: 6.00 Build 0)  -->
<svg version="1.1" id="Layer_1" xmlns="http://www.w3.org/2000/svg" xmlns:xlink="http://www.w3.org/1999/xlink" x="0px" y="0px"
	 viewBox="0 0 511.98 511.98" style="enable-background:new 0 0 511.98 511.98;" xml:space="preserve">
<g id="XMLID_718_">
	<circle id="XMLID_535_" style="fill:#D7D7E6;" cx="247.044" cy="294.722" r="207.258"/>
	<polyline id="XMLID_263_" style="fill:#878791;" points="218.044,87.464 218.044,54 276.044,54 276.044,87.464 	"/>
	<polyline id="XMLID_661_" style="fill:#878791;" points="373.091,127.662 396.754,104 437.766,145.012 414.104,168.674 	"/>
	<rect id="XMLID_663_" x="186.044" y="10" style="fill:#7D9BFF;" width="122" height="44"/>
	<path id="XMLID_662_" style="fill:#7D9BFF;" d="M449.566,156.812L384.954,92.2l16.656-16.656c7.984-7.984,20.929-7.984,28.913,0
		l35.699,35.699c7.984,7.984,7.984,20.929,0,28.913L449.566,156.812z"/>
	<circle id="XMLID_440_" style="fill:#FFFFFF;" cx="247.044" cy="294.722" r="163.229"/>
	<circle id="XMLID_427_" style="fill:#F5B955;" cx="247.044" cy="294.722" r="24"/>
	<polyline id="XMLID_1387_" style="fill:#F5B955;" points="233.53,274.884 318.047,223.718 266.882,308.236 	"/>
	<g id="XMLID_2036_">
		<path id="XMLID_2037_" d="M354.559,460.133c-31.985,20.834-69.164,31.847-107.516,31.847
			c-108.769,0-197.259-88.49-197.259-197.258c0-39.497,11.629-77.604,33.631-110.205c3.09-4.578,1.883-10.793-2.695-13.883
			c-4.577-3.09-10.794-1.883-13.883,2.695c-24.24,35.917-37.053,77.895-37.053,121.393c0,58.032,22.599,112.59,63.634,153.625
			c41.035,41.035,95.593,63.634,153.625,63.634c42.237,0,83.19-12.134,118.432-35.089c4.628-3.014,5.936-9.209,2.921-13.837
			S359.186,457.118,354.559,460.133z"/>
		<path id="XMLID_2082_" d="M387.847,432.871l-0.332,0.337c-3.89,3.92-3.865,10.252,0.055,14.142
			c1.951,1.935,4.497,2.901,7.044,2.901c2.571,0,5.144-0.986,7.099-2.957l0.414-0.42c3.867-3.943,3.806-10.274-0.138-14.142
			C398.045,428.865,391.714,428.928,387.847,432.871z"/>
		<path id="XMLID_2085_" d="M442.494,163.883c1.953,1.953,4.512,2.929,7.071,2.929c2.559,0,5.118-0.977,7.071-2.929l16.657-16.657
			c11.869-11.871,11.869-31.185,0-43.055l-35.699-35.699c-5.751-5.75-13.396-8.917-21.527-8.917c-8.133,0-15.777,3.167-21.527,8.917
			l-16.657,16.656c-1.875,1.875-2.929,4.419-2.929,7.071c0,2.652,1.054,5.196,2.929,7.071l4.729,4.729l-11.982,11.982
			c-25.408-17.647-54.141-29.549-84.585-35.036V64h22c5.522,0,10-4.477,10-10V10c0-5.523-4.478-10-10-10h-122
			c-5.522,0-10,4.477-10,10v44c0,5.523,4.478,10,10,10h22v16.964c-28.621,5.19-55.933,16.089-80.457,32.261
			c-4.611,3.041-5.884,9.243-2.844,13.854c3.042,4.611,9.245,5.884,13.854,2.843c32.201-21.234,69.701-32.458,108.447-32.458
			c108.769,0,197.259,88.49,197.259,197.259c0,36.886-10.242,72.854-29.618,104.013c-2.916,4.69-1.479,10.856,3.212,13.773
			c1.644,1.022,3.468,1.509,5.271,1.509c3.342,0,6.607-1.674,8.502-4.721c21.35-34.333,32.634-73.952,32.634-114.575
			c0-44.811-13.486-87.544-38.519-123.585l11.982-11.982L442.494,163.883z M408.682,82.615c1.973-1.973,4.595-3.059,7.385-3.059
			c2.789,0,5.412,1.086,7.385,3.06l35.699,35.698c4.072,4.072,4.072,10.699,0,14.771l-9.586,9.585l-4.714-4.714
			c-0.005-0.005-0.009-0.01-0.014-0.015l-41.013-41.012c-0.002-0.002-0.004-0.003-0.006-0.005l-4.723-4.723L408.682,82.615z
			 M196.044,20h102v24h-22h-58h-22V20z M228.044,78.292V64h38v14.294c-6.284-0.541-12.619-0.83-19-0.83
			C240.675,77.463,234.337,77.745,228.044,78.292z M413.516,155.119c-4.061-4.825-8.336-9.51-12.848-14.022
			c-4.512-4.512-9.197-8.787-14.022-12.848l10.107-10.107l26.87,26.87L413.516,155.119z"/>
		<path id="XMLID_2089_" d="M247.044,194.986c5.522,0,10-4.477,10-10v-22c0-5.523-4.478-10-10-10s-10,4.477-10,10v22
			C237.044,190.509,241.521,194.986,247.044,194.986z"/>
		<path id="XMLID_2090_" d="M340.193,211.57c2.631,0,5.21-1.07,7.07-2.93c1.86-1.86,2.93-4.44,2.93-7.07s-1.069-5.21-2.93-7.07
			c-1.86-1.86-4.439-2.93-7.07-2.93c-2.63,0-5.21,1.07-7.069,2.93c-1.86,1.86-2.931,4.44-2.931,7.07c0,2.64,1.07,5.21,2.931,7.07
			C334.983,210.5,337.563,211.57,340.193,211.57z"/>
		<path id="XMLID_2091_" d="M346.779,294.722c0,5.523,4.478,10,10,10h22c5.522,0,10-4.477,10-10s-4.478-10-10-10h-22
			C351.257,284.722,346.779,289.199,346.779,294.722z"/>
		<path id="XMLID_2093_" d="M340.193,397.87c2.631,0,5.21-1.06,7.07-2.93c1.86-1.86,2.93-4.43,2.93-7.07c0-2.63-1.069-5.2-2.93-7.07
			c-1.86-1.86-4.439-2.93-7.07-2.93c-2.63,0-5.21,1.07-7.069,2.93c-1.86,1.86-2.931,4.44-2.931,7.07c0,2.64,1.07,5.22,2.931,7.07
			C334.983,396.81,337.563,397.87,340.193,397.87z"/>
		<path id="XMLID_2094_" d="M247.044,394.458c-5.522,0-10,4.477-10,10v22c0,5.523,4.478,10,10,10s10-4.477,10-10v-22
			C257.044,398.935,252.566,394.458,247.044,394.458z"/>
		<path id="XMLID_2095_" d="M153.893,377.87c-2.63,0-5.21,1.07-7.069,2.93c-1.86,1.86-2.931,4.44-2.931,7.07
			c0,2.64,1.07,5.21,2.931,7.07c1.859,1.87,4.439,2.93,7.069,2.93s5.21-1.06,7.07-2.93c1.86-1.86,2.93-4.43,2.93-7.07
			c0-2.63-1.069-5.21-2.93-7.07S156.523,377.87,153.893,377.87z"/>
		<path id="XMLID_2096_" d="M115.308,304.722h22c5.522,0,10-4.477,10-10s-4.478-10-10-10h-22c-5.522,0-10,4.477-10,10
			S109.786,304.722,115.308,304.722z"/>
		<path id="XMLID_2097_" d="M153.893,211.57c2.63,0,5.21-1.07,7.07-2.93c1.86-1.86,2.93-4.44,2.93-7.07s-1.069-5.21-2.93-7.07
			c-1.86-1.86-4.44-2.93-7.07-2.93s-5.21,1.07-7.069,2.93c-1.86,1.86-2.931,4.44-2.931,7.07s1.07,5.21,2.931,7.07
			C148.683,210.5,151.263,211.57,153.893,211.57z"/>
		<path id="XMLID_2100_" d="M247.044,328.722c11.36,0,21.43-5.606,27.607-14.191c0.739-0.915,1.428-2.116,1.989-3.105l49.962-82.53
			c2.384-3.938,1.771-8.995-1.483-12.25c-3.256-3.255-8.312-3.867-12.25-1.483l-82.545,49.972c-0.893,0.507-2.143,1.242-2.989,1.908
			c-8.641,6.171-14.291,16.274-14.291,27.678C213.044,313.47,228.296,328.722,247.044,328.722z M233.044,294.722
			c0-4.788,2.419-9.019,6.096-11.545l1.356-0.821c1.955-1.04,4.182-1.634,6.547-1.634c7.72,0,14,6.28,14,14
			c0,2.363-0.594,4.589-1.632,6.543l-0.826,1.364c-2.526,3.675-6.755,6.093-11.542,6.093
			C239.324,308.722,233.044,302.442,233.044,294.722z M275.037,275.455c-2.355-3.411-5.315-6.371-8.727-8.726l22.114-13.388
			L275.037,275.455z"/>
		<path id="XMLID_2104_" d="M247.044,467.952c95.52,0,173.229-77.71,173.229-173.229s-77.71-173.229-173.229-173.229
			S73.814,199.203,73.814,294.722S151.524,467.952,247.044,467.952z M247.044,141.493c84.491,0,153.229,68.738,153.229,153.229
			s-68.738,153.229-153.229,153.229S93.814,379.213,93.814,294.722S162.552,141.493,247.044,141.493z"/>
		<path id="XMLID_2105_" d="M101.103,157.56c2.63,0,5.21-1.07,7.07-2.93s2.93-4.44,2.93-7.07c0-2.63-1.069-5.21-2.93-7.07
			s-4.44-2.93-7.07-2.93s-5.21,1.07-7.069,2.93c-1.86,1.86-2.931,4.44-2.931,7.07c0,2.64,1.07,5.21,2.931,7.07
			C95.893,156.49,98.473,157.56,101.103,157.56z"/>
	</g>
</g>
<g>
</g>
<g>
</g>
<g>
</g>
<g>
</g>
<g>
</g>
<g>
</g>
<g>
</g>
<g>
</g>
<g>
</g>
<g>
</g>
<g>
</g>
<g>
</g>
<g>
</g>
<g>
</g>
<g>
</g>
</svg>
