<?xml version="1.0" encoding="iso-8859-1"?>
<!-- Generator: Adobe Illustrator 19.0.0, SVG Export Plug-In . SVG Version: 6.00 Build 0)  -->
<svg version="1.1" id="Layer_1" xmlns="http://www.w3.org/2000/svg" xmlns:xlink="http://www.w3.org/1999/xlink" x="0px" y="0px"
	 viewBox="0 0 512 512" style="enable-background:new 0 0 512 512;" xml:space="preserve">
<g id="XMLID_933_">
	<path id="XMLID_851_" style="fill:#78D2FA;" d="M50.826,113.592v187.295c0,74.482,49.113,112.143,102.553,143.426
		C205.012,474.537,255.932,502,255.932,502h0.136c0,0,50.921-27.463,102.553-57.688c53.44-31.283,102.553-68.943,102.553-143.426
		V113.592L256.068,10h-0.136h0.136h-0.136L50.826,113.592z"/>
	<g id="XMLID_847_">
		<path id="XMLID_848_" style="fill:#FFFFFF;" d="M90.825,138.201v162.687c0,50.565,30.346,78.222,82.762,108.905
			c31.535,18.46,63.091,36.034,82.413,46.667c19.322-10.633,50.878-28.207,82.414-46.667c52.415-30.684,82.761-58.34,82.761-108.905
			V138.201L256,54.779L90.825,138.201z"/>
	</g>
	<path id="XMLID_807_" style="fill:#AAE6FF;" d="M234.723,244.51L234.723,244.51c0,9.408-6.548,17.549-15.738,19.565l-16.201,3.554
		C180.137,272.597,164,292.658,164,315.844V346h184v-30.128c0-23.199-16.155-43.267-38.818-48.222l-16.388-3.583
		c-9.196-2.011-15.751-10.154-15.751-19.567v-0.057L234.723,244.51z"/>
	<path id="XMLID_850_" style="fill:#FFE6C3;" d="M222.823,269.266c18.323,18.323,48.031,18.323,66.354,0l4.566-4.992l-0.948-0.207
		c-9.196-2.011-15.751-10.154-15.751-19.568v-0.057l-42.32,0.069c0,9.408-6.548,17.549-15.738,19.565l-0.117,0.026L222.823,269.266z
		"/>
	<path id="XMLID_335_" style="fill:#FFE6C3;" d="M256,247.402L256,247.402c-25.405,0-46-20.595-46-46v-36.8
		c0-25.405,20.595-46,46-46h0c25.405,0,46,20.595,46,46v36.8C302,226.807,281.405,247.402,256,247.402z"/>
	<path id="XMLID_781_" style="fill:#FF824B;" d="M256,118.602L256,118.602c-25.405,0-46,20.595-46,46v18.16l0.567,0.131h29.411
		c21.033,0,41.204-8.355,56.076-23.228l2.998-2.998l1.906-1.799C296.492,134.141,278.065,118.602,256,118.602z"/>
	<g id="XMLID_2042_">
		<path id="XMLID_2043_" d="M465.683,104.665L260.751,1.163c-1.387-0.737-2.967-1.156-4.645-1.163c-0.013-0.001-0.012,0-0.017,0
			c-0.013,0-0.016,0-0.022,0h-0.135c-0.007,0-0.009,0-0.022,0c-0.005,0-0.003,0-0.017,0c-1.678,0.006-3.258,0.426-4.645,1.163
			L46.318,104.665c-3.368,1.701-5.492,5.153-5.492,8.926v187.295c0,36.505,10.981,67.362,33.57,94.333
			c20.914,24.971,49.109,43.192,73.932,57.722c51.191,29.967,102.348,57.584,102.858,57.86c1.459,0.787,3.09,1.198,4.747,1.198
			h0.135c1.657,0,3.288-0.412,4.747-1.198c0.511-0.276,51.667-27.893,102.858-57.86c4.767-2.79,6.368-8.916,3.578-13.682
			c-2.789-4.767-8.913-6.369-13.682-3.578C311.652,460.22,269.746,483.18,256,490.66c-13.743-7.479-55.641-30.434-97.569-54.978
			c-47.224-27.644-97.605-63.137-97.605-134.795V119.744L256,21.169l195.175,98.575v181.143c0,36.772-12.335,66.076-38.817,92.222
			c-3.931,3.88-3.971,10.211-0.091,14.142c3.88,3.931,10.213,3.97,14.142,0.091c30.123-29.74,44.767-64.562,44.767-106.455V113.592
			C471.175,109.818,469.051,106.367,465.683,104.665z"/>
		<path id="XMLID_2071_" d="M431.175,138.201c0-3.773-2.124-7.225-5.492-8.926L260.508,45.852c-2.834-1.432-6.182-1.432-9.016,0
			L86.318,129.274c-3.368,1.701-5.492,5.153-5.492,8.926v162.687c0,26.433,7.858,48.77,24.023,68.287
			c13.486,16.283,32.533,31.011,63.687,49.248c31.094,18.202,62.104,35.496,82.644,46.798c1.501,0.826,3.161,1.239,4.821,1.239
			s3.32-0.413,4.821-1.239c20.538-11.302,51.548-28.595,82.645-46.798c31.153-18.237,50.199-32.965,63.686-49.248
			c16.165-19.518,24.023-41.854,24.023-68.287V138.201z M411.175,300.887c0,46.003-27.348,70.733-77.813,100.275
			c-28.564,16.721-57.075,32.68-77.362,43.879c-20.288-11.199-48.8-27.159-77.361-43.878
			c-50.466-29.542-77.813-54.272-77.813-100.275V144.353L256,65.982l155.175,78.371V300.887z"/>
		<path id="XMLID_2074_" d="M200,164.602v36.8c0,19.097,9.615,35.984,24.252,46.096c-1.063,3.353-3.852,6.029-7.409,6.809
			l-16.201,3.554c-13.173,2.89-25.082,10.268-33.534,20.776S154,302.358,154,315.844V346c0,5.523,4.478,10,10,10h184
			c5.522,0,10-4.477,10-10v-30.128c0-27.688-19.633-52.077-46.681-57.991l-16.389-3.584c-3.502-0.766-6.262-3.366-7.364-6.67
			C302.307,237.53,312,220.579,312,201.402v-36.8c0-30.878-25.121-56-56-56S200,133.724,200,164.602z M338,315.872V336H174v-20.157
			c0-18.347,13.007-34.516,30.927-38.447l9.882-2.167c0.287,0.385,0.594,0.759,0.943,1.108
			c11.097,11.096,25.673,16.645,40.249,16.645s29.152-5.548,40.249-16.645c0.34-0.34,0.64-0.704,0.92-1.078l9.877,2.16
			C324.983,281.341,338,297.512,338,315.872z M276.8,266.584c-12.539,8.559-29.215,8.529-41.726-0.088
			c3.212-2.993,5.766-6.662,7.435-10.747c4.323,1.074,8.84,1.653,13.491,1.653c4.577,0,9.022-0.564,13.283-1.605
			C270.971,259.904,273.553,263.588,276.8,266.584z M256,237.402c-19.851,0-36-16.149-36-36v-8.509h19.979
			c18.933,0,36.954-5.871,52.021-16.718v25.227C292,221.253,275.851,237.402,256,237.402z M289.679,151.9l-0.695,0.695
			c-13.089,13.089-30.493,20.298-49.005,20.298H220v-8.291c0-19.851,16.149-36,36-36C271.381,128.602,284.532,138.3,289.679,151.9z"
			/>
		<path id="XMLID_2080_" d="M390.71,413.89c-2.63,0-5.2,1.07-7.07,2.93c-1.86,1.86-2.92,4.44-2.92,7.07c0,2.63,1.06,5.21,2.92,7.07
			c1.87,1.86,4.44,2.93,7.07,2.93c2.64,0,5.21-1.07,7.069-2.93c1.87-1.86,2.94-4.44,2.94-7.07c0-2.63-1.07-5.21-2.94-7.07
			C395.92,414.96,393.35,413.89,390.71,413.89z"/>
	</g>
	<g id="XMLID_2137_">
		<g id="XMLID_2139_">
			<path id="XMLID_733_" d="M130.82,178.96c-2.63,0-5.199-1.07-7.069-2.93c-1.86-1.86-2.92-4.44-2.92-7.07s1.06-5.21,2.92-7.07
				c1.87-1.86,4.439-2.93,7.069-2.93c2.641,0,5.221,1.07,7.08,2.93c1.86,1.86,2.931,4.44,2.931,7.07s-1.07,5.21-2.931,7.07
				C136.03,177.89,133.46,178.96,130.82,178.96z"/>
		</g>
		<g id="XMLID_2138_">
			<path id="XMLID_721_" d="M130.825,266c-5.522,0-10-4.477-10-10v-53.609c0-5.523,4.478-10,10-10s10,4.477,10,10V256
				C140.825,261.523,136.348,266,130.825,266z"/>
		</g>
	</g>
</g>
<g>
</g>
<g>
</g>
<g>
</g>
<g>
</g>
<g>
</g>
<g>
</g>
<g>
</g>
<g>
</g>
<g>
</g>
<g>
</g>
<g>
</g>
<g>
</g>
<g>
</g>
<g>
</g>
<g>
</g>
</svg>
