<?xml version="1.0" encoding="iso-8859-1"?>
<!-- Generator: Adobe Illustrator 19.0.0, SVG Export Plug-In . SVG Version: 6.00 Build 0)  -->
<svg version="1.1" id="Layer_1" xmlns="http://www.w3.org/2000/svg" xmlns:xlink="http://www.w3.org/1999/xlink" x="0px" y="0px"
	 viewBox="0 0 512.008 512.008" style="enable-background:new 0 0 512.008 512.008;" xml:space="preserve">
<g id="XMLID_176_">
	<path id="XMLID_1236_" style="fill:#FAE196;" d="M288.675,324.461L132.081,481.056c-27.928,27.928-73.207,27.928-101.135,0l0,0
		c-27.928-27.928-27.928-73.207,0-101.135L187.54,223.326L288.675,324.461z"/>
	<path id="XMLID_939_" style="fill:#FF6E37;" d="M30.946,481.055L30.946,481.055c27.928,27.928,73.207,27.928,101.135,0
		L30.946,379.92C3.018,407.848,3.018,453.128,30.946,481.055z"/>
	<path id="XMLID_1163_" style="fill:#F5C86E;" d="M231.458,280.557L231.458,280.557c-61.717-61.717-61.717-161.779,0-223.495
		l47.055-47.055l223.495,223.495l-47.055,47.055C393.236,342.273,293.174,342.273,231.458,280.557z"/>
	
		<rect id="XMLID_1225_" x="339.265" y="-15.158" transform="matrix(0.7071 -0.7071 0.7071 0.7071 7.0885 302.8673)" style="fill:#FF6E37;" width="59.745" height="316.069"/>
	<path id="XMLID_147_" style="fill:#FF6E37;" d="M161.58,451.556l86.597-86.597l-20.599-20.599
		c-11.424-11.424-29.947-11.424-41.371,0l-45.225,45.225c-11.424,11.424-11.424,29.947,0,41.371L161.58,451.556z"/>
	<path id="XMLID_148_" style="fill:#FF5A5A;" d="M119.434,291.432l-18.981-18.981c-4.097-4.097-4.097-10.74,0-14.837l18.035-18.035
		c4.097-4.097,10.74-4.097,14.837,0l18.981,18.981L119.434,291.432z"/>
	<g id="XMLID_2013_">
		<path id="XMLID_2273_" d="M509.079,226.43L285.584,2.936c-3.905-3.905-10.237-3.905-14.143,0l-47.055,47.055
			c-13.391,13.391-24.324,28.75-32.498,45.651c-2.405,4.972-0.323,10.952,4.649,13.356c4.971,2.405,10.951,0.323,13.356-4.649
			c6.737-13.929,15.609-26.675,26.398-37.93L445.592,275.72c-27.684,26.542-63.914,41.124-102.387,41.124
			c-39.542,0-76.716-15.398-104.677-43.358c-28.888-28.889-44.272-67.299-43.317-108.157c0.129-5.521-4.242-10.102-9.764-10.23
			c-5.529-0.152-10.102,4.242-10.23,9.764c-0.405,17.337,1.784,34.285,6.394,50.426c-0.397,0.293-0.783,0.608-1.142,0.968
			l-28.163,28.163l-11.909-11.909c-3.87-3.871-9.016-6.002-14.49-6.002c-5.473,0-10.619,2.131-14.49,6.001l-18.035,18.035
			c-7.989,7.99-7.989,20.99,0,28.98l11.909,11.909l-81.417,81.417C8.479,388.245,0,408.715,0,430.488s8.479,42.243,23.875,57.639
			c15.396,15.396,35.866,23.875,57.639,23.875c21.773,0,42.243-8.479,57.639-23.875l29.496-29.496
			c0.001-0.001,0.003-0.002,0.004-0.004l86.597-86.597c0,0,0.001-0.001,0.001-0.001l40.496-40.496
			c0.369-0.369,0.692-0.766,0.991-1.174c14.919,4.268,30.522,6.485,46.468,6.485c44.884,0,87.081-17.479,118.819-49.216
			l47.055-47.055c1.875-1.875,2.929-4.419,2.929-7.071S510.954,228.306,509.079,226.43z M107.525,265.38
			c-0.043-0.043-0.144-0.144-0.144-0.347c0-0.204,0.101-0.305,0.144-0.348l18.035-18.035c0.043-0.043,0.144-0.144,0.347-0.144
			s0.304,0.101,0.348,0.144l11.909,11.909l-18.73,18.73L107.525,265.38z M38.017,473.984c-21.576-21.576-23.731-55.317-6.488-79.337
			l85.829,85.829c-10.381,7.478-22.799,11.525-35.846,11.525C65.083,492.001,49.635,485.603,38.017,473.984z M148.052,423.885
			c-7.507-7.507-7.507-19.722,0-27.229l45.226-45.226c3.636-3.637,8.472-5.639,13.614-5.639s9.978,2.002,13.615,5.64l13.528,13.528
			l-72.455,72.455L148.052,423.885z M248.177,350.817l-13.528-13.528c-7.414-7.415-17.271-11.498-27.757-11.498
			s-20.343,4.083-27.757,11.497l-45.226,45.226c-15.305,15.305-15.305,40.208,0,55.514l13.528,13.528l-15.357,15.357l-86.992-86.992
			l81.417-81.417l32.872-32.872l29.666-29.666c8.29,19.003,20.172,36.491,35.344,51.662c15.127,15.127,32.635,27.007,51.673,35.307
			L248.177,350.817z M384.688,186.531l28.104-28.104l30.648,30.648l-28.104,28.104L384.688,186.531z M339.897,141.74l28.104-28.104
			l30.648,30.648l-28.104,28.104L339.897,141.74z M295.106,96.95l28.104-28.104l30.648,30.648l-28.104,28.104L295.106,96.95z
			 M278.513,24.149l30.554,30.554l-28.104,28.104l-30.554-30.554L278.513,24.149z M459.762,261.605l-30.283-30.283l28.104-28.104
			l30.283,30.283L459.762,261.605z"/>
		<path id="XMLID_2284_" d="M371.916,50.332c5.523,0,10-4.477,10-10V11.516c0-5.523-4.477-10-10-10s-10,4.477-10,10v28.815
			C361.916,45.855,366.393,50.332,371.916,50.332z"/>
		<path id="XMLID_2285_" d="M450.195,71.803c2.559,0,5.119-0.976,7.071-2.929l51.773-51.773c3.905-3.905,3.905-10.237,0-14.143
			c-3.905-3.905-10.237-3.905-14.143,0l-51.773,51.773c-3.905,3.905-3.905,10.237,0,14.143
			C445.077,70.827,447.636,71.803,450.195,71.803z"/>
		<path id="XMLID_2286_" d="M502,130.082h-29c-5.523,0-10,4.477-10,10s4.477,10,10,10h29c5.523,0,10-4.477,10-10
			S507.523,130.082,502,130.082z"/>
		<path id="XMLID_2287_" d="M425.158,77.077c-2.63,0-5.21,1.06-7.07,2.93c-1.86,1.86-2.93,4.44-2.93,7.07s1.07,5.21,2.93,7.07
			c1.86,1.86,4.44,2.93,7.07,2.93c2.63,0,5.21-1.07,7.07-2.93c1.87-1.86,2.93-4.44,2.93-7.07s-1.06-5.21-2.93-7.07
			C430.368,78.137,427.787,77.077,425.158,77.077z"/>
		<path id="XMLID_2289_" d="M189.69,141.174c2.63,0,5.21-1.07,7.08-2.93c1.86-1.86,2.92-4.44,2.92-7.07s-1.06-5.21-2.92-7.07
			c-1.87-1.86-4.44-2.93-7.08-2.93c-2.63,0-5.21,1.07-7.07,2.93c-1.86,1.86-2.93,4.43-2.93,7.07c0,2.63,1.07,5.21,2.93,7.07
			C184.48,140.104,187.06,141.174,189.69,141.174z"/>
	</g>
</g>
<g>
</g>
<g>
</g>
<g>
</g>
<g>
</g>
<g>
</g>
<g>
</g>
<g>
</g>
<g>
</g>
<g>
</g>
<g>
</g>
<g>
</g>
<g>
</g>
<g>
</g>
<g>
</g>
<g>
</g>
</svg>
