<?xml version="1.0" encoding="iso-8859-1"?>
<!-- Generator: Adobe Illustrator 19.0.0, SVG Export Plug-In . SVG Version: 6.00 Build 0)  -->
<svg version="1.1" id="Layer_1" xmlns="http://www.w3.org/2000/svg" xmlns:xlink="http://www.w3.org/1999/xlink" x="0px" y="0px"
	 viewBox="0 0 512 512" style="enable-background:new 0 0 512 512;" xml:space="preserve">
<g id="XMLID_495_">
	<path id="XMLID_975_" style="fill:#F0F0FA;" d="M472,384.083H40c-16.569,0-30-13.431-30-30V40c0-16.569,13.431-30,30-30h432
		c16.569,0,30,13.431,30,30v314.083C502,370.652,488.569,384.083,472,384.083z"/>
	<rect id="XMLID_1022_" x="207" y="385.083" style="fill:#BEBEBE;" width="96" height="68.917"/>
	<path id="XMLID_1040_" style="fill:#F0F0FA;" d="M309.333,454H202.667c-26.51,0-48,21.49-48,48v0h202.667v0
		C357.333,475.49,335.843,454,309.333,454z"/>
	<rect id="XMLID_345_" x="50" y="50.083" style="fill:#C8F5FF;" width="412" height="270"/>
	<g id="XMLID_2193_">
		<path id="XMLID_2194_" d="M400,374.08c-2.63,0-5.21,1.07-7.07,2.93c-1.86,1.86-2.93,4.44-2.93,7.07c0,2.63,1.07,5.21,2.93,7.07
			c1.86,1.87,4.44,2.93,7.07,2.93c2.63,0,5.21-1.06,7.07-2.93c1.86-1.86,2.93-4.44,2.93-7.07c0-2.63-1.07-5.21-2.93-7.07
			S402.63,374.08,400,374.08z"/>
		<path id="XMLID_2246_" d="M472,0H40C17.944,0,0,17.944,0,40v314.083c0,22.056,17.944,40,40,40h157v50.197
			c-29.332,2.858-52.333,27.65-52.333,57.719c0,5.523,4.477,10,10,10h202.667c5.523,0,10-4.477,10-10
			c0-30.749-24.055-55.972-54.333-57.872v-50.044h46.667c5.523,0,10-4.477,10-10s-4.477-10-10-10H40c-11.028,0-20-8.972-20-20V40
			c0-11.028,8.972-20,20-20h432c11.028,0,20,8.972,20,20v314.083c0,11.028-8.972,20-20,20h-37.333c-5.523,0-10,4.477-10,10
			s4.477,10,10,10H472c22.056,0,40-17.944,40-40V40C512,17.944,494.056,0,472,0z M345.999,492H166.001
			c4.4-16.118,19.171-28,36.665-28h106.667C326.827,464,341.598,475.882,345.999,492z M293,444h-76v-49.917h76V444z"/>
		<path id="XMLID_2248_" d="M247.93,345.01c-1.86,1.86-2.93,4.44-2.93,7.07c0,2.64,1.07,5.21,2.93,7.07
			c1.86,1.87,4.44,2.93,7.07,2.93c2.63,0,5.21-1.06,7.07-2.93c1.86-1.86,2.93-4.43,2.93-7.07c0-2.63-1.07-5.21-2.93-7.07
			s-4.44-2.93-7.07-2.93C252.37,342.08,249.79,343.15,247.93,345.01z"/>
		<path id="XMLID_2249_" d="M195.193,120.176c-3.905-3.905-10.237-3.905-14.143,0l-56.066,56.066
			c-3.905,3.905-3.905,10.237,0,14.143l56.066,56.066c1.953,1.953,4.512,2.929,7.071,2.929s5.119-0.976,7.071-2.929
			c3.905-3.905,3.905-10.237,0-14.143l-48.996-48.995l48.996-48.995C199.098,130.413,199.098,124.081,195.193,120.176z"/>
		<path id="XMLID_2250_" d="M316.807,246.451c1.953,1.953,4.512,2.929,7.071,2.929s5.119-0.976,7.071-2.929l56.066-56.066
			c3.905-3.905,3.905-10.237,0-14.143l-56.066-56.066c-3.905-3.905-10.237-3.905-14.143,0c-3.905,3.905-3.905,10.237,0,14.143
			l48.996,48.995l-48.996,48.995C312.902,236.214,312.902,242.546,316.807,246.451z"/>
		<path id="XMLID_2251_" d="M238.442,252.579c0.867,0.232,1.738,0.343,2.595,0.343c4.415,0,8.456-2.947,9.653-7.414l29.938-111.731
			c1.43-5.335-1.736-10.818-7.071-12.248c-5.334-1.432-10.818,1.737-12.248,7.071l-29.938,111.731
			C229.942,245.666,233.108,251.149,238.442,252.579z"/>
		<path id="XMLID_2252_" d="M472,320.083v-270c0-5.523-4.477-10-10-10H303c-5.523,0-10,4.477-10,10s4.477,10,10,10h149v250H60v-250
			h153.5c5.523,0,10-4.477,10-10s-4.477-10-10-10H50c-5.523,0-10,4.477-10,10v270c0,5.523,4.477,10,10,10h412
			C467.523,330.083,472,325.606,472,320.083z"/>
		<path id="XMLID_2253_" d="M265.07,57.16c1.86-1.87,2.93-4.44,2.93-7.08c0-2.63-1.07-5.21-2.93-7.07s-4.44-2.93-7.07-2.93
			c-2.63,0-5.21,1.07-7.07,2.93c-1.86,1.86-2.93,4.44-2.93,7.07c0,2.63,1.07,5.21,2.93,7.08c1.86,1.86,4.44,2.92,7.07,2.92
			C260.63,60.08,263.21,59.02,265.07,57.16z"/>
	</g>
</g>
<g>
</g>
<g>
</g>
<g>
</g>
<g>
</g>
<g>
</g>
<g>
</g>
<g>
</g>
<g>
</g>
<g>
</g>
<g>
</g>
<g>
</g>
<g>
</g>
<g>
</g>
<g>
</g>
<g>
</g>
</svg>
