<?xml version="1.0" encoding="iso-8859-1"?>
<!-- Generator: Adobe Illustrator 19.0.0, SVG Export Plug-In . SVG Version: 6.00 Build 0)  -->
<svg version="1.1" id="Layer_1" xmlns="http://www.w3.org/2000/svg" xmlns:xlink="http://www.w3.org/1999/xlink" x="0px" y="0px"
	 viewBox="0 0 512.75 512.75" style="enable-background:new 0 0 512.75 512.75;" xml:space="preserve">
<g id="XMLID_1407_">
	<path id="XMLID_1175_" style="fill:#F0F0FA;" d="M390.75,258.377H122c-61.856,0-112,50.144-112,112s50.144,112,112,112
		c43.085,0,80.48-24.332,99.213-60h70.324c18.733,35.668,56.129,60,99.213,60c61.856,0,112-50.144,112-112
		S452.606,258.377,390.75,258.377z"/>
	<path id="XMLID_823_" style="fill:#878791;" d="M158.005,350.504h-16v-16c0-11.046-8.954-20-20-20s-20,8.954-20,20v16h-16
		c-11.046,0-20,8.954-20,20v0c0,11.046,8.954,20,20,20h16v16c0,11.046,8.954,20,20,20s20-8.954,20-20v-16h16
		c11.046,0,20-8.954,20-20v0C178.005,359.458,169.051,350.504,158.005,350.504z"/>
	<circle id="XMLID_1306_" style="fill:#FF6E37;" cx="389.006" cy="325.476" r="20"/>
	<circle id="XMLID_1305_" style="fill:#A5DC69;" cx="389.006" cy="415.532" r="20"/>
	<circle id="XMLID_894_" style="fill:#6E87F5;" cx="343.978" cy="370.504" r="20"/>
	<circle id="XMLID_1303_" style="fill:#DC4B4B;" cx="434.034" cy="370.504" r="20"/>
	<path id="XMLID_1363_" style="fill:#9BBEFF;" d="M253.505,218.377L253.505,218.377c-19.882,0-36,16.118-36,36v4h72v-4
		C289.505,234.495,273.387,218.377,253.505,218.377z"/>
	<g id="XMLID_2160_">
		<path id="XMLID_2210_" d="M390.75,248.377h-8.078c-5.522,0-10,4.477-10,10s4.478,10,10,10h8.078c56.243,0,102,45.757,102,102
			s-45.757,102-102,102c-38.031,0-72.655-20.94-90.359-54.65c-1.729-3.29-5.138-5.35-8.854-5.35h-70.324
			c-3.716,0-7.125,2.061-8.854,5.35c-17.704,33.709-52.328,54.65-90.359,54.65c-56.243,0-102-45.757-102-102s45.757-102,102-102
			h95.505h72h21c5.522,0,10-4.477,10-10s-4.478-10-10-10h-11.404c-2.403-18.352-15.657-33.327-33.096-38.26v-53.002
			c0-15.3-12.447-27.748-27.747-27.748h-36.506c-4.271,0-7.747-3.476-7.747-7.748V70.035c0-5.523-4.478-10-10-10s-10,4.477-10,10
			v51.586c0,15.3,12.447,27.748,27.747,27.748h36.506c4.271,0,7.747,3.476,7.747,7.748v51.883
			c-19.863,3.272-35.468,19.309-38.096,39.379H122c-67.271,0-122,54.729-122,122s54.729,122,122,122
			c43.438,0,83.158-22.839,105.085-60h58.58c21.927,37.161,61.647,60,105.085,60c67.271,0,122-54.729,122-122
			S458.021,248.377,390.75,248.377z M253.505,228.377c12.272,0,22.586,8.546,25.302,20h-50.604
			C230.919,236.924,241.232,228.377,253.505,228.377z"/>
		<path id="XMLID_2211_" d="M345.005,268.383c2.63,0,5.21-1.07,7.069-2.94c1.86-1.86,2.931-4.43,2.931-7.06
			c0-2.64-1.07-5.21-2.931-7.08c-1.859-1.86-4.439-2.92-7.069-2.92s-5.21,1.06-7.07,2.92c-1.86,1.87-2.93,4.44-2.93,7.08
			c0,2.63,1.069,5.2,2.93,7.06C339.795,267.313,342.375,268.383,345.005,268.383z"/>
		<path id="XMLID_2214_" d="M122.005,436.504c16.542,0,30-13.458,30-30v-6h6c16.542,0,30-13.458,30-30s-13.458-30-30-30h-6v-6
			c0-16.542-13.458-30-30-30s-30,13.458-30,30v6h-6c-16.542,0-30,13.458-30,30s13.458,30,30,30h6v6
			C92.005,423.046,105.463,436.504,122.005,436.504z M86.005,380.504c-5.514,0-10-4.486-10-10s4.486-10,10-10h16
			c5.522,0,10-4.477,10-10v-16c0-5.514,4.486-10,10-10s10,4.486,10,10v16c0,5.523,4.478,10,10,10h16c5.514,0,10,4.486,10,10
			s-4.486,10-10,10h-16c-5.522,0-10,4.477-10,10v16c0,5.514-4.486,10-10,10s-10-4.486-10-10v-16c0-5.523-4.478-10-10-10H86.005z"/>
		<path id="XMLID_2217_" d="M389.006,355.476c16.542,0,30-13.458,30-30s-13.458-30-30-30s-30,13.458-30,30
			S372.464,355.476,389.006,355.476z M389.006,315.476c5.514,0,10,4.486,10,10s-4.486,10-10,10s-10-4.486-10-10
			S383.492,315.476,389.006,315.476z"/>
		<path id="XMLID_2220_" d="M389.006,385.532c-16.542,0-30,13.458-30,30s13.458,30,30,30s30-13.458,30-30
			S405.548,385.532,389.006,385.532z M389.006,425.532c-5.514,0-10-4.486-10-10s4.486-10,10-10s10,4.486,10,10
			S394.52,425.532,389.006,425.532z"/>
		<path id="XMLID_2223_" d="M464.034,370.504c0-16.542-13.458-30-30-30s-30,13.458-30,30s13.458,30,30,30
			S464.034,387.046,464.034,370.504z M424.034,370.504c0-5.514,4.486-10,10-10s10,4.486,10,10s-4.486,10-10,10
			S424.034,376.018,424.034,370.504z"/>
		<path id="XMLID_2226_" d="M343.978,400.504c16.542,0,30-13.458,30-30s-13.458-30-30-30s-30,13.458-30,30
			S327.436,400.504,343.978,400.504z M343.978,360.504c5.514,0,10,4.486,10,10s-4.486,10-10,10s-10-4.486-10-10
			S338.464,360.504,343.978,360.504z"/>
		<path id="XMLID_2227_" d="M184.005,40.373c2.63,0,5.21-1.07,7.069-2.93c1.86-1.87,2.931-4.44,2.931-7.07
			c0-2.64-1.07-5.21-2.931-7.07c-1.859-1.87-4.439-2.93-7.069-2.93s-5.21,1.06-7.07,2.93c-1.86,1.86-2.93,4.43-2.93,7.07
			c0,2.63,1.069,5.2,2.93,7.07C178.795,39.302,181.375,40.373,184.005,40.373z"/>
	</g>
</g>
<g>
</g>
<g>
</g>
<g>
</g>
<g>
</g>
<g>
</g>
<g>
</g>
<g>
</g>
<g>
</g>
<g>
</g>
<g>
</g>
<g>
</g>
<g>
</g>
<g>
</g>
<g>
</g>
<g>
</g>
</svg>
