<?xml version="1.0" encoding="iso-8859-1"?>
<!-- Generator: Adobe Illustrator 19.0.0, SVG Export Plug-In . SVG Version: 6.00 Build 0)  -->
<svg version="1.1" id="Layer_1" xmlns="http://www.w3.org/2000/svg" xmlns:xlink="http://www.w3.org/1999/xlink" x="0px" y="0px"
	 viewBox="0 0 512 512" style="enable-background:new 0 0 512 512;" xml:space="preserve">
<g id="XMLID_1327_">
	<path id="XMLID_921_" style="fill:#D7D7E6;" d="M406,160v294c0,26.51,21.49,48,48,48h0c26.51,0,48-21.49,48-48V160H406z"/>
	<path id="XMLID_874_" style="fill:#FFFFFF;" d="M454,502H58c-26.51,0-48-21.49-48-48V10h396v444C406,480.51,427.49,502,454,502
		L454,502"/>
	<rect id="XMLID_923_" x="64" y="64" style="fill:#FF5A5A;" width="147.081" height="128"/>
	<rect id="XMLID_920_" x="198.894" y="320.013" style="fill:#A5DC69;" width="147.081" height="128"/>
	<g id="XMLID_2411_">
		<path id="XMLID_2412_" d="M502,150h-64.914c-5.523,0-10,4.478-10,10s4.477,10,10,10H492v284c0,20.953-17.047,38-38,38
			s-38-17.047-38-38v-28h32c5.523,0,10-4.478,10-10s-4.477-10-10-10h-32v-44h32c5.523,0,10-4.478,10-10s-4.477-10-10-10h-32v-44h32
			c5.523,0,10-4.478,10-10s-4.477-10-10-10h-32v-44h32c5.523,0,10-4.478,10-10s-4.477-10-10-10h-32V10c0-5.522-4.477-10-10-10H256
			c-5.523,0-10,4.478-10,10s4.477,10,10,10h140v434c0,14.527,5.381,27.813,14.238,38H58c-20.953,0-38-17.047-38-38V20h129.336
			c5.523,0,10-4.478,10-10s-4.477-10-10-10H10C4.477,0,0,4.478,0,10v444c0,31.981,26.019,58,58,58h396c31.981,0,58-26.019,58-58V160
			C512,154.478,507.523,150,502,150z"/>
		<path id="XMLID_2436_" d="M64,54c-5.523,0-10,4.478-10,10v128c0,5.522,4.477,10,10,10h147.081c5.523,0,10-4.478,10-10V64
			c0-5.522-4.477-10-10-10H64z M201.081,182H74V74h127.081V182z"/>
		<path id="XMLID_2439_" d="M345.975,310.013H198.894c-5.523,0-10,4.478-10,10v128c0,5.522,4.477,10,10,10h147.081
			c5.523,0,10-4.478,10-10v-128C355.975,314.49,351.498,310.013,345.975,310.013z M335.975,438.013H208.894v-108h127.081V438.013z"
			/>
		<path id="XMLID_2440_" d="M146.333,438H64c-5.523,0-10,4.478-10,10s4.477,10,10,10h82.333c5.523,0,10-4.478,10-10
			S151.856,438,146.333,438z"/>
		<path id="XMLID_2441_" d="M146.333,374H64c-5.523,0-10,4.478-10,10s4.477,10,10,10h82.333c5.523,0,10-4.478,10-10
			S151.856,374,146.333,374z"/>
		<path id="XMLID_2442_" d="M146.333,310H64c-5.523,0-10,4.478-10,10s4.477,10,10,10h82.333c5.523,0,10-4.478,10-10
			S151.856,310,146.333,310z"/>
		<path id="XMLID_2443_" d="M54,256c0,5.522,4.477,10,10,10h241.533c5.523,0,10-4.478,10-10s-4.477-10-10-10H64
			C58.477,246,54,250.478,54,256z"/>
		<path id="XMLID_2444_" d="M265.078,202h80.91c5.523,0,10-4.478,10-10s-4.477-10-10-10h-80.91c-5.523,0-10,4.478-10,10
			S259.555,202,265.078,202z"/>
		<path id="XMLID_2445_" d="M265.078,138h80.91c5.523,0,10-4.478,10-10s-4.477-10-10-10h-80.91c-5.523,0-10,4.478-10,10
			S259.555,138,265.078,138z"/>
		<path id="XMLID_2446_" d="M265.078,74h80.91c5.523,0,10-4.478,10-10s-4.477-10-10-10h-80.91c-5.523,0-10,4.478-10,10
			S259.555,74,265.078,74z"/>
		<path id="XMLID_2447_" d="M353.06,248.93c-1.86-1.86-4.44-2.93-7.07-2.93s-5.21,1.069-7.07,2.93s-2.93,4.44-2.93,7.07
			s1.07,5.21,2.93,7.069c1.86,1.86,4.44,2.931,7.07,2.931s5.21-1.07,7.07-2.931c1.86-1.859,2.93-4.439,2.93-7.069
			S354.92,250.79,353.06,248.93z"/>
		<path id="XMLID_2448_" d="M206,20c2.63,0,5.21-1.07,7.07-2.931C214.93,15.21,216,12.63,216,10s-1.07-5.21-2.93-7.07
			S208.63,0,206,0c-2.63,0-5.21,1.069-7.07,2.93C197.07,4.79,196,7.37,196,10s1.07,5.21,2.93,7.069C200.79,18.93,203.37,20,206,20z"
			/>
	</g>
</g>
<g>
</g>
<g>
</g>
<g>
</g>
<g>
</g>
<g>
</g>
<g>
</g>
<g>
</g>
<g>
</g>
<g>
</g>
<g>
</g>
<g>
</g>
<g>
</g>
<g>
</g>
<g>
</g>
<g>
</g>
</svg>
