<?xml version="1.0" encoding="iso-8859-1"?>
<!-- Generator: Adobe Illustrator 19.0.0, SVG Export Plug-In . SVG Version: 6.00 Build 0)  -->
<svg version="1.1" id="Layer_1" xmlns="http://www.w3.org/2000/svg" xmlns:xlink="http://www.w3.org/1999/xlink" x="0px" y="0px"
	 viewBox="0 0 512 512" style="enable-background:new 0 0 512 512;" xml:space="preserve">
<g id="XMLID_149_">
	<path id="XMLID_298_" style="fill:#A5DC69;" d="M343.186,234.848H91V64h227.093c13.859,0,25.093,11.235,25.093,25.093V234.848z"/>
	<circle id="XMLID_405_" style="fill:#FF5A5A;" cx="91" cy="30" r="20"/>
	<path id="XMLID_338_" style="fill:#46C373;" d="M343.186,120.334h-90.256c-12.833,0-23.236,10.403-23.236,23.236v91.278h113.492
		V120.334z"/>
	<path id="XMLID_404_" style="fill:#D7FA91;" d="M255.181,177.591H435V352H255.181c-14.076,0-25.486-11.411-25.486-25.486V203.077
		C229.694,189.001,241.105,177.591,255.181,177.591z"/>
	<g id="XMLID_2421_">
		<path id="XMLID_2458_" d="M475,492H101V244.848h118.694v77.864c0,21.663,17.625,39.288,39.288,39.288H317.5
			c5.523,0,10-4.478,10-10s-4.477-10-10-10h-58.518c-10.636,0-19.288-8.652-19.288-19.288V186.073
			c5.702,3.228,12.281,5.081,19.288,5.081H425V342h-30.25c-5.523,0-10,4.478-10,10s4.477,10,10,10H435c5.523,0,10-4.478,10-10
			V181.153c0-5.522-4.477-10-10-10h-81.814V93.289c0-21.664-17.625-39.289-39.288-39.289H252.5c-5.523,0-10,4.478-10,10
			s4.477,10,10,10h61.398c10.636,0,19.288,8.653,19.288,19.289s-8.652,19.288-19.288,19.288h-54.916
			c-21.664,0-39.288,17.625-39.288,39.288v72.982H101V74h65.847c5.523,0,10-4.478,10-10s-4.477-10-10-10h-57.868
			C116.273,48.522,121,39.803,121,30c0-16.542-13.458-30-30-30S61,13.458,61,30c0,13.036,8.361,24.152,20,28.28V492H37
			c-5.523,0-10,4.478-10,10s4.477,10,10,10h438c5.523,0,10-4.478,10-10S480.523,492,475,492z M258.982,132.577h54.916
			c7.007,0,13.586-1.853,19.288-5.081v43.657h-74.204c-10.635,0-19.288-8.652-19.288-19.288S248.347,132.577,258.982,132.577z
			 M91,20c5.514,0,10,4.486,10,10s-4.486,10-10,10s-10-4.486-10-10S85.486,20,91,20z"/>
		<path id="XMLID_2460_" d="M209.5,74c2.63,0,5.21-1.07,7.07-2.931c1.86-1.859,2.93-4.439,2.93-7.069s-1.07-5.21-2.93-7.07
			S212.13,54,209.5,54c-2.63,0-5.21,1.069-7.07,2.93c-1.86,1.86-2.93,4.44-2.93,7.07s1.07,5.21,2.93,7.069
			C204.29,72.93,206.87,74,209.5,74z"/>
		<path id="XMLID_2461_" d="M348.93,344.93c-1.86,1.86-2.93,4.44-2.93,7.07s1.07,5.21,2.93,7.069c1.86,1.86,4.44,2.931,7.07,2.931
			c2.63,0,5.21-1.07,7.07-2.931c1.86-1.859,2.93-4.439,2.93-7.069s-1.07-5.21-2.93-7.07S358.63,342,356,342
			C353.37,342,350.79,343.069,348.93,344.93z"/>
	</g>
</g>
<g>
</g>
<g>
</g>
<g>
</g>
<g>
</g>
<g>
</g>
<g>
</g>
<g>
</g>
<g>
</g>
<g>
</g>
<g>
</g>
<g>
</g>
<g>
</g>
<g>
</g>
<g>
</g>
<g>
</g>
</svg>
