<?xml version="1.0" encoding="iso-8859-1"?>
<!-- Generator: Adobe Illustrator 19.0.0, SVG Export Plug-In . SVG Version: 6.00 Build 0)  -->
<svg version="1.1" id="Layer_1" xmlns="http://www.w3.org/2000/svg" xmlns:xlink="http://www.w3.org/1999/xlink" x="0px" y="0px"
	 viewBox="0 0 512.254 512.254" style="enable-background:new 0 0 512.254 512.254;" xml:space="preserve">
<g id="XMLID_72_">
	<circle id="XMLID_266_" style="fill:#F5C86E;" cx="256.127" cy="256.127" r="134"/>
	<g id="XMLID_110_">
		<path id="XMLID_1602_" d="M256.127,400.127c-42.959,0-83.354-18.972-110.827-52.052c-3.529-4.249-2.945-10.554,1.304-14.082
			c4.249-3.528,10.554-2.945,14.082,1.304c23.661,28.49,58.448,44.83,95.441,44.83c68.374,0,124-55.626,124-124s-55.626-124-124-124
			s-124,55.626-124,124c0,8.53,0.87,17.048,2.584,25.318c1.122,5.408-2.353,10.701-7.761,11.822
			c-5.405,1.124-10.701-2.353-11.822-7.761c-1.992-9.603-3.001-19.488-3.001-29.379c0-79.402,64.598-144,144-144s144,64.598,144,144
			S335.529,400.127,256.127,400.127z"/>
	</g>
	<g id="XMLID_111_">
		<path id="XMLID_1601_" d="M256.127,85.167c-5.523,0-10-4.477-10-10V10c0-5.523,4.477-10,10-10s10,4.477,10,10v65.167
			C266.127,80.69,261.65,85.167,256.127,85.167z"/>
	</g>
	<g id="XMLID_20_">
		<path id="XMLID_1600_" d="M256.127,512.254c-5.523,0-10-4.477-10-10v-65.167c0-5.523,4.477-10,10-10s10,4.477,10,10v65.167
			C266.127,507.777,261.65,512.254,256.127,512.254z"/>
	</g>
	<g id="XMLID_21_">
		<path id="XMLID_1599_" d="M502.254,266.127h-65.167c-5.523,0-10-4.477-10-10s4.477-10,10-10h65.167c5.523,0,10,4.477,10,10
			S507.777,266.127,502.254,266.127z"/>
	</g>
	<g id="XMLID_22_">
		<path id="XMLID_1598_" d="M75.167,266.127H10c-5.523,0-10-4.477-10-10s4.477-10,10-10h65.167c5.523,0,10,4.477,10,10
			S80.69,266.127,75.167,266.127z"/>
	</g>
	<g id="XMLID_23_">
		<path id="XMLID_1597_" d="M384.085,138.169c-2.559,0-5.119-0.977-7.071-2.929c-3.905-3.905-3.905-10.237,0-14.143l46.08-46.08
			c3.905-3.904,10.237-3.904,14.143,0c3.905,3.905,3.905,10.237,0,14.143l-46.08,46.08
			C389.204,137.192,386.644,138.169,384.085,138.169z"/>
	</g>
	<g id="XMLID_24_">
		<path id="XMLID_1596_" d="M82.089,440.165c-2.559,0-5.119-0.977-7.071-2.929c-3.905-3.905-3.905-10.237,0-14.143l46.08-46.08
			c3.905-3.904,10.237-3.904,14.143,0c3.905,3.905,3.905,10.237,0,14.143l-46.08,46.08
			C87.208,439.188,84.648,440.165,82.089,440.165z"/>
	</g>
	<g id="XMLID_25_">
		<path id="XMLID_1595_" d="M430.165,440.165c-2.559,0-5.119-0.977-7.071-2.929l-46.08-46.08c-3.905-3.905-3.905-10.237,0-14.143
			c3.905-3.904,10.237-3.904,14.143,0l46.08,46.08c3.905,3.905,3.905,10.237,0,14.143
			C435.284,439.188,432.724,440.165,430.165,440.165z"/>
	</g>
	<g id="XMLID_26_">
		<path id="XMLID_1594_" d="M128.169,138.169c-2.559,0-5.119-0.977-7.071-2.929l-46.08-46.08c-3.905-3.905-3.905-10.237,0-14.143
			c3.905-3.904,10.237-3.904,14.143,0l46.08,46.08c3.905,3.905,3.905,10.237,0,14.143
			C133.288,137.192,130.728,138.169,128.169,138.169z"/>
	</g>
	<g id="XMLID_505_">
		<path id="XMLID_1590_" d="M136.107,325.76c-2.63,0-5.21-1.07-7.07-2.93c-1.86-1.86-2.93-4.44-2.93-7.07
			c0-2.64,1.07-5.21,2.93-7.07c1.86-1.86,4.44-2.93,7.07-2.93c2.63,0,5.21,1.07,7.07,2.93s2.93,4.44,2.93,7.07s-1.07,5.21-2.93,7.07
			C141.317,324.69,138.737,325.76,136.107,325.76z"/>
	</g>
	<g id="XMLID_112_">
		<path id="XMLID_1591_" d="M343.701,260.015c-5.21,0-9.604-4.038-9.966-9.314c-1.193-17.349-8.312-34.007-20.045-46.905
			c-3.717-4.085-3.417-10.41,0.667-14.126c4.086-3.717,10.41-3.418,14.126,0.667c14.753,16.216,23.704,37.167,25.205,58.992
			c0.379,5.51-3.781,10.284-9.291,10.663C344.164,260.007,343.931,260.015,343.701,260.015z"/>
	</g>
	<g id="XMLID_268_">
		<path id="XMLID_1589_" d="M343.917,298c-2.63,0-5.21-1.07-7.07-2.93s-2.93-4.44-2.93-7.07c0-2.63,1.07-5.21,2.93-7.07
			c1.86-1.86,4.44-2.93,7.07-2.93c2.64,0,5.21,1.07,7.07,2.93c1.87,1.86,2.93,4.44,2.93,7.07c0,2.63-1.06,5.21-2.93,7.07
			C349.127,296.93,346.557,298,343.917,298z"/>
	</g>
</g>
<g>
</g>
<g>
</g>
<g>
</g>
<g>
</g>
<g>
</g>
<g>
</g>
<g>
</g>
<g>
</g>
<g>
</g>
<g>
</g>
<g>
</g>
<g>
</g>
<g>
</g>
<g>
</g>
<g>
</g>
</svg>
