<?xml version="1.0" encoding="iso-8859-1"?>
<!-- Generator: Adobe Illustrator 19.0.0, SVG Export Plug-In . SVG Version: 6.00 Build 0)  -->
<svg version="1.1" id="Layer_1" xmlns="http://www.w3.org/2000/svg" xmlns:xlink="http://www.w3.org/1999/xlink" x="0px" y="0px"
	 viewBox="0 0 512 512" style="enable-background:new 0 0 512 512;" xml:space="preserve">
<g id="XMLID_2531_">
	<g id="XMLID_741_">
		<path id="XMLID_748_" style="fill:#D7D7E6;" d="M120,54h272c11.046,0,20,8.954,20,20v408c0,11.046-8.954,20-20,20H120
			c-11.046,0-20-8.954-20-20V74C100,62.954,108.954,54,120,54z"/>
		<path id="XMLID_747_" style="fill:#46C373;" d="M313,10H199c-13.807,0-25,11.193-25,25v19h164V35C338,21.193,326.807,10,313,10z"
			/>
	</g>
	<rect id="XMLID_740_" x="140" y="94" style="fill:#D7FA91;" width="232" height="368"/>
	<rect id="XMLID_738_" x="140" y="385" style="fill:#A5DC69;" width="232" height="77"/>
	<polygon id="XMLID_737_" style="fill:#46C373;" points="256,156.094 256,226.381 309.985,226.381 256,347.094 256,276.807 
		202.015,276.807 	"/>
	<g id="XMLID_564_">
		<path id="XMLID_1010_" d="M392,44h-44v-9c0-19.299-15.701-35-35-35H199c-19.299,0-35,15.701-35,35v9h-44
			c-16.542,0-30,13.458-30,30v107.667c0,5.522,4.477,10,10,10s10-4.478,10-10V74c0-5.514,4.486-10,10-10h272c5.514,0,10,4.486,10,10
			v408c0,5.514-4.486,10-10,10H120c-5.514,0-10-4.486-10-10V256c0-5.522-4.477-10-10-10s-10,4.478-10,10v226
			c0,16.542,13.458,30,30,30h272c16.542,0,30-13.458,30-30V74C422,57.458,408.542,44,392,44z M184,44v-9c0-8.271,6.729-15,15-15h114
			c8.271,0,15,6.729,15,15v9H184z"/>
		<path id="XMLID_1030_" d="M372,472c5.523,0,10-4.478,10-10V94c0-5.522-4.477-10-10-10H140c-5.523,0-10,4.478-10,10v368
			c0,5.522,4.477,10,10,10H372z M362,104v348H150v-57h140.333c5.523,0,10-4.478,10-10s-4.477-10-10-10H150V104H362z"/>
		<path id="XMLID_2535_" d="M202.015,286.807H246v60.287c0,4.719,3.298,8.795,7.913,9.779c0.699,0.149,1.399,0.222,2.091,0.222
			c3.876,0,7.49-2.264,9.125-5.919l53.985-120.713c1.383-3.094,1.106-6.678-0.738-9.521c-1.843-2.844-5.002-4.561-8.391-4.561H266
			v-60.287c0-4.719-3.298-8.795-7.913-9.779c-4.613-0.985-9.29,1.389-11.216,5.697l-53.985,120.713
			c-1.383,3.094-1.106,6.678,0.738,9.521C195.467,285.09,198.626,286.807,202.015,286.807z M246,202.949v23.432
			c0,5.522,4.477,10,10,10h38.558L266,300.238v-23.432c0-5.522-4.477-10-10-10h-38.558L246,202.949z"/>
		<path id="XMLID_2537_" d="M332,395c2.63,0,5.21-1.07,7.07-2.931c1.86-1.859,2.93-4.439,2.93-7.069s-1.07-5.21-2.93-7.07
			S334.63,375,332,375c-2.63,0-5.21,1.069-7.07,2.93c-1.86,1.86-2.93,4.44-2.93,7.07s1.07,5.21,2.93,7.069
			C326.79,393.93,329.37,395,332,395z"/>
		<path id="XMLID_2538_" d="M100,229.67c2.63,0,5.21-1.07,7.07-2.93c1.86-1.87,2.93-4.44,2.93-7.07s-1.07-5.21-2.93-7.07
			c-1.86-1.87-4.44-2.93-7.07-2.93c-2.63,0-5.21,1.06-7.07,2.93c-1.86,1.86-2.93,4.44-2.93,7.07s1.07,5.2,2.93,7.07
			C94.79,228.6,97.37,229.67,100,229.67z"/>
	</g>
</g>
<g>
</g>
<g>
</g>
<g>
</g>
<g>
</g>
<g>
</g>
<g>
</g>
<g>
</g>
<g>
</g>
<g>
</g>
<g>
</g>
<g>
</g>
<g>
</g>
<g>
</g>
<g>
</g>
<g>
</g>
</svg>
