<?xml version="1.0" encoding="iso-8859-1"?>
<!-- Generator: Adobe Illustrator 19.0.0, SVG Export Plug-In . SVG Version: 6.00 Build 0)  -->
<svg version="1.1" id="Layer_1" xmlns="http://www.w3.org/2000/svg" xmlns:xlink="http://www.w3.org/1999/xlink" x="0px" y="0px"
	 viewBox="0 0 511.969 511.969" style="enable-background:new 0 0 511.969 511.969;" xml:space="preserve">
<g id="XMLID_1648_">
	<g id="XMLID_2314_">
		<polygon id="XMLID_2315_" style="fill:#FF5A5A;" points="190.431,111.755 95.397,111.755 10,197.152 57.517,244.669 
			267.186,454.338 314.703,501.855 400.1,416.458 400.1,321.424 		"/>
	</g>
	<path id="XMLID_2318_" style="fill:#C8F5FF;" d="M251.049,470.475l158.789-158.789c76.813-76.813,108.571-187.816,84.007-293.633
		l0,0l0.108,0.108l0,0C388.136-6.402,277.133,25.355,200.32,102.169L41.531,260.957L251.049,470.475z"/>
	<circle id="XMLID_2317_" style="fill:#7D9BFF;" cx="298.616" cy="213.289" r="74"/>
	<polygon id="XMLID_2313_" style="fill:#FF5A5A;" points="156.15,461.288 50.617,355.755 81.559,300.985 210.92,430.347 	"/>
	<path id="XMLID_2312_" style="fill:#F5C86E;" d="M136.707,441.754L136.707,441.754c-23.568,23.568-52.936,40.501-85.14,49.09
		L10,501.93l11.086-41.567c8.589-32.204,25.522-61.572,49.09-85.14l0,0L136.707,441.754z"/>
	<g id="XMLID_946_">
		<path id="XMLID_1038_" d="M503.904,17.174c-0.222-2.228-1.188-4.376-2.849-6.051l-0.107-0.108
			c-1.684-1.699-3.862-2.69-6.124-2.913C441.671-3.988,385.922-2.461,333.509,12.535c-52.873,15.126-101.374,43.676-140.261,82.563
			l-6.658,6.658H95.397c-2.652,0-5.195,1.054-7.071,2.929L2.929,190.081c-3.905,3.905-3.905,10.237,0,14.143l40.597,40.598
			l-9.065,9.065c-3.905,3.905-3.905,10.237,0,14.143l34.654,34.654L41.91,350.837c-2.209,3.911-1.54,8.814,1.636,11.99
			l12.642,12.642C35,398.921,19.589,427.174,11.425,457.786L0.338,499.353c-0.92,3.448,0.067,7.125,2.591,9.648
			c1.9,1.899,4.454,2.929,7.072,2.929c0.858,0,1.725-0.11,2.576-0.338l41.567-11.087c30.611-8.164,58.865-23.575,82.317-44.763
			l12.616,12.616c1.926,1.925,4.485,2.929,7.074,2.929c1.682,0,3.376-0.424,4.916-1.293l48.154-27.204l34.755,34.755
			c1.953,1.952,4.512,2.929,7.071,2.929s5.118-0.977,7.071-2.929l9.066-9.066l40.445,40.446c1.876,1.875,4.419,2.929,7.071,2.929
			s5.195-1.054,7.071-2.929l85.397-85.397c1.875-1.876,2.929-4.419,2.929-7.071v-90.891l6.81-6.81
			c38.886-38.887,67.436-87.389,82.563-140.261C514.468,126.079,515.995,70.328,503.904,17.174z M24.142,197.152l75.397-75.396
			h67.051l-90.622,90.622c-0.002,0.002-0.005,0.004-0.007,0.007s-0.004,0.005-0.007,0.008l-18.286,18.286L24.142,197.152z
			 M48.991,481.181l-24.876,6.635l6.635-24.876c7.259-27.215,20.881-52.362,39.596-73.314l51.958,51.958
			C101.352,460.3,76.206,473.923,48.991,481.181z M157.847,448.843l-13.327-13.327c-0.23-0.288-0.475-0.567-0.741-0.834
			c-0.266-0.266-0.546-0.51-0.833-0.74L77.99,368.986c-0.23-0.288-0.475-0.567-0.741-0.834c-0.266-0.266-0.546-0.51-0.833-0.74
			l-13.354-13.354l20.731-36.697l110.751,110.751L157.847,448.843z M390.1,412.315l-75.397,75.397l-33.374-33.375L390.1,345.567
			V412.315z M402.767,304.615L260.125,447.257c-0.003,0.003-0.007,0.006-0.01,0.009s-0.006,0.007-0.009,0.01l-9.056,9.056
			l-33.056-33.056c0,0-0.001-0.001-0.001-0.001L88.63,293.914c-0.002-0.002-0.005-0.004-0.007-0.007l-32.95-32.949l27.359-27.359
			l133.458,133.458c1.953,1.952,4.512,2.929,7.071,2.929s5.118-0.977,7.071-2.929c3.905-3.905,3.905-10.237,0-14.143L97.175,219.456
			L207.391,109.24C280.761,35.868,384.296,5.199,485.48,26.527C506.807,127.711,476.138,231.244,402.767,304.615z"/>
		<path id="XMLID_1050_" d="M372.616,203.29c-5.522,0-10,4.478-10,10l-0.004,0.634c-0.045,5.523,4.396,10.035,9.918,10.08
			c0.028,0,0.056,0.001,0.084,0.001c5.484,0,9.953-4.426,9.998-9.92l0.004-0.795C382.616,207.767,378.139,203.29,372.616,203.29z"/>
		<path id="XMLID_1068_" d="M367.603,241.925c-4.77-2.787-10.893-1.178-13.679,3.591c-11.448,19.599-32.641,31.773-55.308,31.773
			c-35.29,0-64-28.71-64-64s28.71-64,64-64c18.971,0,36.852,8.346,49.059,22.896c3.551,4.234,9.86,4.782,14.088,1.234
			c4.231-3.549,4.784-9.856,1.234-14.088c-16.016-19.093-39.482-30.043-64.381-30.043c-46.317,0-84,37.683-84,84s37.683,84,84,84
			c29.747,0,57.558-15.973,72.577-41.686C373.98,250.836,372.371,244.712,367.603,241.925z"/>
		<path id="XMLID_1069_" d="M247.02,373.45c-2.63,0-5.21,1.061-7.069,2.931c-1.86,1.859-2.931,4.43-2.931,7.069
			c0,2.63,1.07,5.21,2.931,7.07c1.859,1.86,4.439,2.93,7.069,2.93c2.641,0,5.21-1.069,7.07-2.93c1.87-1.87,2.93-4.44,2.93-7.07
			s-1.06-5.21-2.93-7.069C252.23,374.51,249.66,373.45,247.02,373.45z"/>
	</g>
</g>
<g>
</g>
<g>
</g>
<g>
</g>
<g>
</g>
<g>
</g>
<g>
</g>
<g>
</g>
<g>
</g>
<g>
</g>
<g>
</g>
<g>
</g>
<g>
</g>
<g>
</g>
<g>
</g>
<g>
</g>
</svg>
