<?xml version="1.0" encoding="iso-8859-1"?>
<!-- Generator: Adobe Illustrator 19.0.0, SVG Export Plug-In . SVG Version: 6.00 Build 0)  -->
<svg version="1.1" id="Layer_1" xmlns="http://www.w3.org/2000/svg" xmlns:xlink="http://www.w3.org/1999/xlink" x="0px" y="0px"
	 viewBox="0 0 512 512" style="enable-background:new 0 0 512 512;" xml:space="preserve">
<g id="XMLID_419_">
	<g id="XMLID_416_">
		<path id="XMLID_1783_" d="M401,512H57.026c-16.542,0-30-13.458-30-30V301c0-5.523,4.477-10,10-10s10,4.477,10,10v181
			c0,5.514,4.486,10,10,10H401c5.514,0,10-4.486,10-10v-98c0-5.523,4.477-10,10-10s10,4.477,10,10v98
			C431,498.542,417.542,512,401,512z"/>
	</g>
	<path id="XMLID_604_" d="M460.256,187.149c-8.59-8.59-18.59-14.919-29.255-19.032V107.99c-0.008-0.001-0.016-0.002-0.024-0.002
		c-0.001-2.601-0.993-5.157-2.905-7.069L330.084,2.931c-1.912-1.912-4.47-2.903-7.07-2.904c0-0.009-0.001-0.017-0.001-0.026H57.026
		c-16.542,0-30,13.458-30,30v186.333c0,5.523,4.477,10,10,10s10-4.477,10-10V30c0-5.514,4.486-10,10-10h255.987v67.99
		c0,16.542,13.458,30,30,30H411v45.114c-25.003-3.109-51.136,4.89-70.291,24.045l-142.521,142.52
		c-3.905,3.905-3.905,10.237,0,14.143c3.905,3.905,10.237,3.905,14.143,0l142.521-142.521c25.16-25.16,66.101-25.161,91.262,0
		c25.161,25.161,25.161,66.101,0,91.261L312.448,426.218c-15.69,15.689-41.219,15.69-56.908,0c-7.6-7.6-11.786-17.705-11.786-28.454
		c0-10.748,4.186-20.854,11.786-28.454l134.316-134.316c2.96-2.96,6.896-4.591,11.082-4.591s8.122,1.63,11.082,4.591
		c2.96,2.96,4.59,6.896,4.59,11.082s-1.63,8.122-4.591,11.082L290.966,378.21c-3.905,3.905-3.905,10.237,0,14.143
		c3.905,3.904,10.237,3.904,14.143,0L426.161,271.3c6.738-6.737,10.449-15.696,10.449-25.224s-3.711-18.487-10.448-25.224
		c-6.737-6.738-15.696-10.449-25.224-10.449s-18.486,3.711-25.224,10.448L241.398,355.167c-23.487,23.488-23.487,61.705,0,85.193
		c11.745,11.745,27.168,17.617,42.596,17.615c15.424-0.001,30.854-5.873,42.596-17.615l133.666-133.666
		C493.214,273.736,493.214,220.107,460.256,187.149z M343.013,97.99c-5.514,0-10-4.486-10-10V34.144l63.845,63.846H343.013z"/>
	<g id="XMLID_424_">
		<path id="XMLID_1778_" d="M37.029,269.21c-2.64,0-5.21-1.06-7.08-2.93c-1.86-1.86-2.92-4.44-2.92-7.07s1.06-5.21,2.92-7.07
			c1.87-1.86,4.44-2.93,7.08-2.93c2.63,0,5.21,1.07,7.07,2.93c1.86,1.86,2.93,4.44,2.93,7.07s-1.07,5.21-2.93,7.07
			C42.239,268.15,39.659,269.21,37.029,269.21z"/>
	</g>
	<g id="XMLID_425_">
		<path id="XMLID_1777_" d="M173.437,377.449c-4.217,0-8.138-2.688-9.51-6.916l-0.198-0.611c-1.705-5.253,1.172-10.894,6.425-12.599
			c5.253-1.705,10.894,1.172,12.599,6.425l0.198,0.611c1.705,5.253-1.172,10.894-6.425,12.599
			C175.501,377.29,174.46,377.449,173.437,377.449z"/>
	</g>
</g>
<g>
</g>
<g>
</g>
<g>
</g>
<g>
</g>
<g>
</g>
<g>
</g>
<g>
</g>
<g>
</g>
<g>
</g>
<g>
</g>
<g>
</g>
<g>
</g>
<g>
</g>
<g>
</g>
<g>
</g>
</svg>
