<?xml version="1.0" encoding="iso-8859-1"?>
<!-- Generator: Adobe Illustrator 19.0.0, SVG Export Plug-In . SVG Version: 6.00 Build 0)  -->
<svg version="1.1" id="Layer_1" xmlns="http://www.w3.org/2000/svg" xmlns:xlink="http://www.w3.org/1999/xlink" x="0px" y="0px"
	 viewBox="0 0 512.066 512.066" style="enable-background:new 0 0 512.066 512.066;" xml:space="preserve">
<g id="XMLID_375_">
	<g id="XMLID_482_">
		<path id="XMLID_676_" d="M470.033,0h-428c-23.159,0-42,18.841-42,42v329.917c0,23.159,18.841,42,42,42h176.291v24.083
			c0,18.565-9.222,35.798-24.668,46.097l-11.954,7.97H94.789c-5.523,0-10,4.477-10,10s4.477,10,10,10h322c5.523,0,10-4.477,10-10
			s-4.477-10-10-10h-86.425l-11.954-7.97c-15.447-10.299-24.668-27.532-24.668-46.097v-24.083h176.291c23.159,0,42-18.841,42-42V42
			C512.033,18.841,493.192,0,470.033,0z M296.579,492.066h-81.092c14.485-14.059,22.836-33.459,22.836-54.067v-24.083h35.419v24.083
			C273.742,458.607,282.094,478.007,296.579,492.066z M492.033,371.917c0,12.131-9.869,22-22,22h-428c-12.131,0-22-9.869-22-22V42
			c0-12.131,9.869-22,22-22h428c12.131,0,22,9.869,22,22V371.917z"/>
		<path id="XMLID_1790_" d="M418.033,44h-127c-5.523,0-10,4.477-10,10s4.477,10,10,10h127c16.542,0,30,13.458,30,30v225.917
			c0,16.542-13.458,30-30,30h-324c-16.542,0-30-13.458-30-30V94c0-16.542,13.458-30,30-30h126c5.523,0,10-4.477,10-10
			s-4.477-10-10-10h-126c-27.57,0-50,22.43-50,50v225.917c0,27.57,22.43,50,50,50h324c27.57,0,50-22.43,50-50V94
			C468.033,66.43,445.603,44,418.033,44z"/>
		<path id="XMLID_1793_" d="M201.584,165.774v73.055c0,10.973,5.673,20.8,15.176,26.287c4.752,2.744,9.964,4.115,15.177,4.115
			c5.212,0,10.426-1.372,15.177-4.115l63.267-36.527c9.503-5.486,15.177-15.313,15.177-26.287s-5.674-20.8-15.177-26.287
			l-63.267-36.527c-9.504-5.487-20.852-5.486-30.354,0C207.258,144.975,201.584,154.801,201.584,165.774z M221.584,165.774
			c0-5.395,3.62-8.067,5.177-8.966c0.946-0.546,2.84-1.424,5.229-1.424c1.542,0,3.292,0.366,5.125,1.424l63.267,36.527
			c4.672,2.698,5.177,7.169,5.177,8.966s-0.504,6.269-5.177,8.966l-63.267,36.527c-4.673,2.698-8.798,0.898-10.354,0
			c-1.557-0.899-5.177-3.571-5.177-8.966V165.774z"/>
		<path id="XMLID_1797_" d="M122.285,277c-16.542,0-30,13.458-30,30s13.458,30,30,30c13.036,0,24.152-8.361,28.28-20h257.134
			c5.523,0,10-4.477,10-10s-4.477-10-10-10H150.565C146.437,285.361,135.322,277,122.285,277z M122.285,317c-5.514,0-10-4.486-10-10
			s4.486-10,10-10s10,4.486,10,10S127.8,317,122.285,317z"/>
		<path id="XMLID_1798_" d="M256.033,64c2.63,0,5.21-1.07,7.07-2.93s2.93-4.44,2.93-7.07c0-2.63-1.07-5.21-2.93-7.07
			c-1.86-1.86-4.44-2.93-7.07-2.93c-2.63,0-5.21,1.07-7.07,2.93c-1.86,1.86-2.93,4.44-2.93,7.07c0,2.63,1.07,5.21,2.93,7.07
			C250.823,62.93,253.403,64,256.033,64z"/>
	</g>
</g>
<g>
</g>
<g>
</g>
<g>
</g>
<g>
</g>
<g>
</g>
<g>
</g>
<g>
</g>
<g>
</g>
<g>
</g>
<g>
</g>
<g>
</g>
<g>
</g>
<g>
</g>
<g>
</g>
<g>
</g>
</svg>
