<?xml version="1.0" encoding="iso-8859-1"?>
<!-- Generator: Adobe Illustrator 19.0.0, SVG Export Plug-In . SVG Version: 6.00 Build 0)  -->
<svg version="1.1" id="Layer_1" xmlns="http://www.w3.org/2000/svg" xmlns:xlink="http://www.w3.org/1999/xlink" x="0px" y="0px"
	 viewBox="0 0 512 512" style="enable-background:new 0 0 512 512;" xml:space="preserve">
<g id="XMLID_367_">
	<g id="XMLID_1839_">
		<path id="XMLID_1840_" d="M346.5,277.994h-181c-5.523,0-10,4.477-10,10s4.477,10,10,10h181c5.523,0,10-4.477,10-10
			S352.023,277.994,346.5,277.994z"/>
		<path id="XMLID_1841_" d="M165.5,325.993c-5.523,0-10,4.477-10,10s4.477,10,10,10h140c5.523,0,10-4.477,10-10s-4.477-10-10-10
			H165.5z"/>
		<path id="XMLID_1842_" d="M346.014,325.993h-0.11c-5.523,0-10,4.477-10,10s4.477,10,10,10h0.11c5.523,0,10-4.477,10-10
			S351.537,325.993,346.014,325.993z"/>
		<path id="XMLID_1843_" d="M254.694,247.994h0.131c5.523,0,10-4.477,10-10s-4.477-10-10-10h-0.131c-5.523,0-10,4.477-10,10
			S249.171,247.994,254.694,247.994z"/>
		<path id="XMLID_1844_" d="M380,227.994h-91.807c-5.523,0-10,4.477-10,10s4.477,10,10,10H380c7.72,0,14,6.28,14,14v100
			c0,7.72-6.28,14-14,14H132c-7.72,0-14-6.28-14-14v-100c0-7.72,6.28-14,14-14h88.321c5.523,0,10-4.477,10-10s-4.477-10-10-10H132
			c-18.748,0-34,15.252-34,34v100c0,18.748,15.252,34,34,34h248c18.748,0,34-15.252,34-34v-100
			C414,243.247,398.748,227.994,380,227.994z"/>
		<path id="XMLID_1847_" d="M470,78.333h-32.914c-0.606,0-1.196,0.063-1.772,0.166l-23.082-50.496
			c-1.103-2.412-3.118-4.288-5.604-5.213c-2.484-0.926-5.235-0.827-7.648,0.276L277.409,78.637
			c-0.773-0.191-1.577-0.304-2.409-0.304h-73.424l-45.677-52.865c-1.9-2.198-4.662-3.462-7.567-3.462H42c-23.159,0-42,18.841-42,42
			v383.987c0,23.159,18.841,42,42,42h428c23.159,0,42-18.841,42-42V120.333C512,97.174,493.159,78.333,470,78.333z M470,98.333
			c12.131,0,22,9.869,22,22v19.903c-6.403-3.954-13.938-6.242-22-6.242h-9.319l-16.301-35.661H470z M438.691,133.994H204.414
			L398.2,45.413L438.691,133.994z M42,42.006h101.756l45.677,52.865c1.9,2.198,4.662,3.462,7.567,3.462h37.32l-78.014,35.661H42
			c-8.062,0-15.597,2.288-22,6.242V64.006C20,51.875,29.869,42.006,42,42.006z M492,447.994c0,12.131-9.869,22-22,22H42
			c-12.131,0-22-9.869-22-22V187.561v-11.567c0-12.131,9.869-22,22-22h115.956c0.156,0.007,0.31,0.033,0.467,0.033
			c0.209,0,0.419-0.02,0.629-0.033H470c12.131,0,22,9.869,22,22v21.653V447.994z"/>
	</g>
</g>
<g>
</g>
<g>
</g>
<g>
</g>
<g>
</g>
<g>
</g>
<g>
</g>
<g>
</g>
<g>
</g>
<g>
</g>
<g>
</g>
<g>
</g>
<g>
</g>
<g>
</g>
<g>
</g>
<g>
</g>
</svg>
