<?xml version="1.0" encoding="iso-8859-1"?>
<!-- Generator: Adobe Illustrator 19.0.0, SVG Export Plug-In . SVG Version: 6.00 Build 0)  -->
<svg version="1.1" id="Layer_1" xmlns="http://www.w3.org/2000/svg" xmlns:xlink="http://www.w3.org/1999/xlink" x="0px" y="0px"
	 viewBox="0 0 512.011 512.011" style="enable-background:new 0 0 512.011 512.011;" xml:space="preserve">
<g id="XMLID_153_">
	<g id="XMLID_1719_">
		<path id="XMLID_1729_" d="M448,317.71c-5.522,0-10,4.477-10,10v142.295c0,12.131-9.869,22-22,22H96c-12.131,0-22-9.869-22-22v-22
			h24.168c18.748,0,34-15.252,34-34s-15.252-34-34-34h-1c-5.522,0-10,4.477-10,10s4.478,10,10,10h1c7.72,0,14,6.28,14,14
			s-6.28,14-14,14H74V290.133h24.168c18.748,0,34-15.252,34-34s-15.252-34-34-34h-1c-5.522,0-10,4.477-10,10s4.478,10,10,10h1
			c7.72,0,14,6.28,14,14s-6.28,14-14,14H74V132.26h24.168c18.748,0,34-15.252,34-34s-15.252-34-34-34h-1c-5.522,0-10,4.477-10,10
			s4.478,10,10,10h1c7.72,0,14,6.28,14,14s-6.28,14-14,14H74V42.006c0-12.131,9.869-22,22-22h320c12.131,0,22,9.869,22,22v17.667
			c0,5.523,4.478,10,10,10s10-4.477,10-10V42.006c0-23.159-18.841-42-42-42H96c-23.159,0-42,18.841-42,42v70.254H34
			c-7.72,0-14-6.28-14-14s6.28-14,14-14c5.522,0,10-4.477,10-10s-4.478-10-10-10c-18.748,0-34,15.252-34,34s15.252,34,34,34h20
			v137.873H34c-7.72,0-14-6.28-14-14s6.28-14,14-14c5.522,0,10-4.477,10-10s-4.478-10-10-10c-18.748,0-34,15.252-34,34
			s15.252,34,34,34h20v137.873H34c-7.72,0-14-6.28-14-14s6.28-14,14-14c5.522,0,10-4.477,10-10s-4.478-10-10-10
			c-18.748,0-34,15.252-34,34s15.252,34,34,34h20v22c0,23.159,18.841,42,42,42h320c23.159,0,42-18.841,42-42V327.71
			C458,322.187,453.522,317.71,448,317.71z"/>
		<path id="XMLID_1899_" d="M229.93,379.185c-1.86,1.87-2.93,4.44-2.93,7.07c0,2.64,1.069,5.21,2.93,7.08
			c1.86,1.86,4.44,2.92,7.07,2.92s5.21-1.06,7.069-2.92c1.86-1.87,2.931-4.44,2.931-7.08c0-2.63-1.07-5.2-2.931-7.07
			c-1.859-1.86-4.439-2.93-7.069-2.93C234.359,376.256,231.79,377.326,229.93,379.185z"/>
		<path id="XMLID_1900_" d="M159.203,376.26c-5.522,0-10,4.477-10,10s4.478,10,10,10H199c5.522,0,10-4.477,10-10s-4.478-10-10-10
			H159.203z"/>
		<path id="XMLID_1901_" d="M266,298.26c0-5.523-4.478-10-10-10h-96.797c-5.522,0-10,4.477-10,10s4.478,10,10,10H256
			C261.522,308.26,266,303.783,266,298.26z"/>
		<path id="XMLID_1902_" d="M304.026,210.26c0-5.523-4.478-10-10-10H159.203c-5.522,0-10,4.477-10,10s4.478,10,10,10h134.823
			C299.549,220.26,304.026,215.783,304.026,210.26z"/>
		<path id="XMLID_1903_" d="M339.051,122.26c0-5.523-4.478-10-10-10H159.203c-5.522,0-10,4.477-10,10s4.478,10,10,10h169.848
			C334.573,132.26,339.051,127.783,339.051,122.26z"/>
	</g>
	<path id="XMLID_1772_" d="M510.8,144.753c-2.427-9.059-8.236-16.63-16.358-21.319l-37.692-21.763
		c-16.767-9.679-38.282-3.913-47.962,12.852L273.262,349.262c-0.878,1.52-1.34,3.245-1.34,5v93.744c0,3.573,1.906,6.874,5,8.66
		c1.547,0.893,3.273,1.34,5,1.34s3.453-0.447,5-1.34l81.185-46.872c1.521-0.877,2.782-2.14,3.66-3.66l135.525-234.738
		C511.981,163.274,513.228,153.812,510.8,144.753z M331.058,408.09l-39.136-22.42v-14.088l51.185,29.551L331.058,408.09z
		 M291.922,408.72l19.097,10.94l-19.097,11.026V408.72z M359.446,387.474l-63.864-36.872l105.197-182.207l63.864,36.872
		L359.446,387.474z M489.972,161.395l-15.329,26.551l-63.864-36.872l15.329-26.55c4.166-7.215,13.426-9.695,20.642-5.531
		l37.692,21.762c3.495,2.018,5.995,5.276,7.04,9.175S491.99,157.9,489.972,161.395z"/>
</g>
<g>
</g>
<g>
</g>
<g>
</g>
<g>
</g>
<g>
</g>
<g>
</g>
<g>
</g>
<g>
</g>
<g>
</g>
<g>
</g>
<g>
</g>
<g>
</g>
<g>
</g>
<g>
</g>
<g>
</g>
</svg>
