<?xml version="1.0" encoding="iso-8859-1"?>
<!-- Generator: Adobe Illustrator 19.0.0, SVG Export Plug-In . SVG Version: 6.00 Build 0)  -->
<svg version="1.1" id="Layer_1" xmlns="http://www.w3.org/2000/svg" xmlns:xlink="http://www.w3.org/1999/xlink" x="0px" y="0px"
	 viewBox="0 0 512.001 512.001" style="enable-background:new 0 0 512.001 512.001;" xml:space="preserve">
<g id="XMLID_131_">
	<g id="XMLID_183_">
		<path id="XMLID_254_" d="M509.235,495.097l-112.596-118c-1.887-1.978-4.501-3.097-7.235-3.097H345.18l54.534-69.866
			c0.211-0.27,0.407-0.549,0.587-0.836c26.882-33.034,41.673-74.644,41.673-117.325C441.974,83.428,358.547,0,256,0
			c-30.791,0-61.299,7.684-88.227,22.221c-4.86,2.624-6.673,8.69-4.049,13.55c2.624,4.86,8.689,6.672,13.55,4.049
			C201.293,26.854,228.516,20,256,20c91.518,0,165.974,74.456,165.974,165.974c0,38.498-13.479,76.014-37.955,105.639
			c-0.333,0.403-0.63,0.827-0.892,1.268L256.002,455.746L127.679,291.267c-0.126-0.177-0.258-0.35-0.396-0.52
			c-24.025-29.477-37.256-66.686-37.256-104.773c0-34.848,10.677-68.196,30.876-96.439c3.213-4.492,2.176-10.738-2.316-13.951
			s-10.738-2.176-13.951,2.316c-22.641,31.658-34.609,69.029-34.609,108.074c0,42.526,14.721,84.076,41.465,117.055
			c0.047,0.063,0.094,0.125,0.143,0.188L166.859,374h-44.944c-2.744,0-5.367,1.127-7.256,3.119l-111.914,118
			c-2.75,2.899-3.51,7.158-1.932,10.83C2.391,509.621,6.004,512,10,512h329.333c5.523,0,10-4.477,10-10s-4.477-10-10-10H33.267
			l92.945-98h56.25l65.654,84.151c1.895,2.428,4.803,3.848,7.883,3.849H256c3.08,0,5.988-1.419,7.883-3.847L329.569,394h55.555
			l93.512,98h-61.303c-5.523,0-10,4.477-10,10s4.477,10,10,10H502c4.002,0,7.619-2.386,9.193-6.065
			C512.768,502.256,511.998,497.992,509.235,495.097z"/>
		<path id="XMLID_1511_" d="M161.226,168.948H176V256h-1.894c-5.523,0-10,4.477-10,10s4.477,10,10,10h167.249
			c5.523,0,10-4.477,10-10s-4.477-10-10-10H336v-87.053h14.774c4.199,0,7.951-2.624,9.393-6.567
			c1.441-3.944,0.265-8.369-2.945-11.076l-94.774-79.947c-3.725-3.142-9.171-3.142-12.895,0l-94.774,79.947
			c-3.21,2.708-4.386,7.132-2.945,11.076C153.275,166.324,157.027,168.948,161.226,168.948z M272.021,256h-32.042v-24.958
			c0-8.834,7.187-16.021,16.021-16.021c8.834,0,16.021,7.187,16.021,16.021V256z M316,256h-23.979v-24.958
			c0-19.862-16.159-36.021-36.021-36.021s-36.021,16.159-36.021,36.021V256H196v-87.053h120V256z M256,92.083l67.411,56.865H188.59
			L256,92.083z"/>
		<path id="XMLID_1514_" d="M138.58,64.91c2.64,0,5.21-1.07,7.07-2.93c1.87-1.86,2.93-4.44,2.93-7.07c0-2.63-1.06-5.21-2.93-7.07
			c-1.86-1.86-4.43-2.93-7.07-2.93c-2.63,0-5.21,1.07-7.07,2.93s-2.93,4.44-2.93,7.07c0,2.63,1.07,5.21,2.93,7.07
			C133.37,63.84,135.95,64.91,138.58,64.91z"/>
		<path id="XMLID_1515_" d="M379.33,492c-2.63,0-5.21,1.07-7.07,2.93c-1.86,1.86-2.93,4.44-2.93,7.07c0,2.63,1.07,5.21,2.93,7.07
			s4.44,2.93,7.07,2.93c2.64,0,5.21-1.07,7.07-2.93c1.87-1.86,2.93-4.44,2.93-7.07c0-2.63-1.06-5.21-2.93-7.07
			C384.54,493.07,381.97,492,379.33,492z"/>
	</g>
</g>
<g>
</g>
<g>
</g>
<g>
</g>
<g>
</g>
<g>
</g>
<g>
</g>
<g>
</g>
<g>
</g>
<g>
</g>
<g>
</g>
<g>
</g>
<g>
</g>
<g>
</g>
<g>
</g>
<g>
</g>
</svg>
