<?xml version="1.0" encoding="iso-8859-1"?>
<!-- Generator: Adobe Illustrator 19.0.0, SVG Export Plug-In . SVG Version: 6.00 Build 0)  -->
<svg version="1.1" id="Layer_1" xmlns="http://www.w3.org/2000/svg" xmlns:xlink="http://www.w3.org/1999/xlink" x="0px" y="0px"
	 viewBox="0 0 512 512" style="enable-background:new 0 0 512 512;" xml:space="preserve">
<g id="XMLID_914_">
	<g id="XMLID_256_">
		<path id="XMLID_2684_" d="M57,448c-2.63,0-5.21-1.07-7.07-2.93C48.07,443.21,47,440.63,47,438c0-2.63,1.07-5.21,2.93-7.07
			c1.86-1.86,4.44-2.93,7.07-2.93c2.63,0,5.21,1.07,7.07,2.93c1.86,1.86,2.93,4.44,2.93,7.07c0,2.63-1.07,5.21-2.93,7.07
			S59.63,448,57,448z"/>
	</g>
	<path id="XMLID_1799_" d="M326,224.333c5.523,0,10-4.477,10-10V58c0-31.981-26.019-58-58-58H58C26.019,0,0,26.019,0,58v396
		c0,31.981,26.019,58,58,58h220c31.981,0,58-26.019,58-58v-39.355c0-5.523-4.477-10-10-10s-10,4.477-10,10V428H103.667
		c-5.523,0-10,4.477-10,10s4.477,10,10,10H316v6c0,20.953-17.047,38-38,38H58c-20.953,0-38-17.047-38-38V85.258h296v129.076
		C316,219.856,320.477,224.333,326,224.333z M20,65.258V58c0-20.953,17.047-38,38-38h220c20.953,0,38,17.047,38,38v7.258H20z"/>
	<g id="XMLID_1195_">
		<path id="XMLID_2682_" d="M168.072,480h-0.095c-5.523,0-10-4.477-10-10s4.477-10,10-10s10.048,4.477,10.048,10
			S173.595,480,168.072,480z"/>
	</g>
	<g id="XMLID_1194_">
		<path id="XMLID_2681_" d="M213.024,52h-88c-5.523,0-10-4.477-10-10s4.477-10,10-10h88c5.523,0,10,4.477,10,10
			S218.547,52,213.024,52z"/>
	</g>
	<g id="XMLID_1189_">
		<g id="XMLID_1193_">
			<path id="XMLID_2680_" d="M61.024,234.169c-2.559,0-5.119-0.976-7.071-2.929c-3.905-3.905-3.905-10.237,0-14.143
				c30.737-30.736,71.603-47.664,115.071-47.664c43.468,0,84.334,16.928,115.071,47.664c3.905,3.905,3.905,10.237,0,14.143
				c-3.905,3.905-10.237,3.905-14.143,0c-26.959-26.959-62.803-41.807-100.929-41.807s-73.97,14.847-100.929,41.807
				C66.143,233.193,63.583,234.169,61.024,234.169z"/>
		</g>
		<g id="XMLID_1192_">
			<path id="XMLID_2679_" d="M242.121,269.073c-2.559,0-5.118-0.976-7.071-2.929c-36.407-36.406-95.644-36.406-132.051,0
				c-3.904,3.905-10.236,3.906-14.142,0c-3.905-3.905-3.905-10.237,0-14.142c44.204-44.203,116.13-44.203,160.334,0
				c3.905,3.905,3.905,10.237,0,14.142C247.239,268.097,244.68,269.073,242.121,269.073z"/>
		</g>
		<g id="XMLID_1191_">
			<path id="XMLID_2678_" d="M208.373,302.821c-2.56,0-5.118-0.976-7.071-2.929c-8.622-8.622-20.084-13.37-32.277-13.37
				c-12.193,0-23.656,4.748-32.277,13.37c-3.905,3.905-10.237,3.905-14.143,0c-3.905-3.905-3.905-10.237,0-14.143
				c12.399-12.399,28.885-19.228,46.42-19.228c17.535,0,34.02,6.829,46.419,19.228c3.905,3.905,3.905,10.237,0,14.142
				C213.491,301.845,210.932,302.821,208.373,302.821z"/>
		</g>
		<g id="XMLID_1190_">
			<path id="XMLID_2677_" d="M169.02,342.57c-2.63,0-5.21-1.07-7.07-2.93c-1.86-1.86-2.93-4.44-2.93-7.07
				c0-2.64,1.07-5.21,2.93-7.07c1.86-1.87,4.44-2.93,7.07-2.93c2.64,0,5.21,1.06,7.08,2.93c1.86,1.86,2.93,4.43,2.93,7.07
				c0,2.63-1.07,5.21-2.93,7.07C174.23,341.5,171.66,342.57,169.02,342.57z"/>
		</g>
	</g>
	<g id="XMLID_54_">
		<path id="XMLID_2674_" d="M410,424.645c-56.243,0-102-45.757-102-102s45.757-102,102-102s102,45.757,102,102
			S466.243,424.645,410,424.645z M410,240.645c-45.215,0-82,36.785-82,82s36.785,82,82,82s82-36.785,82-82
			S455.215,240.645,410,240.645z"/>
	</g>
	<g id="XMLID_18_">
		<path id="XMLID_2673_" d="M401.397,349.325c-2.559,0-5.119-0.976-7.071-2.929l-18.872-18.872c-3.905-3.905-3.905-10.237,0-14.143
			c3.905-3.905,10.237-3.905,14.143,0l11.8,11.801l32.921-32.922c3.905-3.905,10.237-3.905,14.143,0
			c3.905,3.905,3.905,10.237,0,14.143l-39.993,39.993C406.516,348.349,403.956,349.325,401.397,349.325z"/>
	</g>
</g>
<g>
</g>
<g>
</g>
<g>
</g>
<g>
</g>
<g>
</g>
<g>
</g>
<g>
</g>
<g>
</g>
<g>
</g>
<g>
</g>
<g>
</g>
<g>
</g>
<g>
</g>
<g>
</g>
<g>
</g>
</svg>
