<?xml version="1.0" encoding="iso-8859-1"?>
<!-- Generator: Adobe Illustrator 19.0.0, SVG Export Plug-In . SVG Version: 6.00 Build 0)  -->
<svg version="1.1" id="Layer_1" xmlns="http://www.w3.org/2000/svg" xmlns:xlink="http://www.w3.org/1999/xlink" x="0px" y="0px"
	 viewBox="0 0 512.127 512.127" style="enable-background:new 0 0 512.127 512.127;" xml:space="preserve">
<g id="XMLID_350_">
	<g id="XMLID_2066_">
		<path id="XMLID_2118_" d="M501.228,465.063H485V326.95c0-5.523-4.478-10-10-10s-10,4.477-10,10v52.114H210V223.089
			c0-5.523-4.478-10-10-10s-10,4.477-10,10v241.974H47v-266.1c3.979,0.846,8.1,1.3,12.327,1.3c20.481,0,38.567-10.455,49.2-26.308
			c10.633,15.854,28.718,26.308,49.199,26.308s38.567-10.455,49.2-26.308c10.633,15.854,28.719,26.308,49.2,26.308
			s38.567-10.455,49.2-26.308c10.633,15.854,28.719,26.308,49.2,26.308s38.566-10.455,49.199-26.308
			c10.633,15.854,28.719,26.308,49.2,26.308c4.137,0,8.174-0.43,12.073-1.241v63.374c0,5.523,4.478,10,10,10s10-4.477,10-10v-71.613
			c16.306-10.555,27.127-28.892,27.127-49.72c0-2.05-0.619-3.954-1.677-5.541L462.512,32.833c-1.644-3.52-5.177-5.77-9.062-5.77
			H59.2c-3.866,0-7.386,2.229-9.039,5.724l-49.2,104c-0.917,1.939-1.173,4.087-0.787,6.132C0.793,162.869,11.32,180.357,27,190.62
			v274.443H10.771c-5.522,0-10,4.477-10,10s4.478,10,10,10H37h438h26.229c5.522,0,10-4.477,10-10S506.751,465.063,501.228,465.063z
			 M59.327,180.264c-18.16,0-33.47-12.414-37.903-29.2H97.23C92.797,167.85,77.486,180.264,59.327,180.264z M393.946,131.063
			h-78.474v-84h78.474V131.063z M295.472,131.063H217v-84h78.473V131.063z M197,131.063h-78.473v-84H197V131.063z M157.726,180.264
			c-18.159,0-33.469-12.414-37.902-29.2h75.805C191.196,167.85,175.886,180.264,157.726,180.264z M256.127,180.264
			c-18.16,0-33.47-12.414-37.903-29.2h75.806C289.597,167.85,274.286,180.264,256.127,180.264z M354.527,180.264
			c-18.16,0-33.47-12.414-37.903-29.2h75.805C387.996,167.85,372.686,180.264,354.527,180.264z M415.024,151.063h75.806
			c-4.433,16.786-19.743,29.2-37.903,29.2S419.456,167.85,415.024,151.063z M486.296,131.063h-72.35v-84h33.137L486.296,131.063z
			 M65.532,47.063h32.995v84H25.793L65.532,47.063z M210,465.063v-66h255v66H210z"/>
		<path id="XMLID_2135_" d="M151.04,319.883c-1.86,1.86-2.931,4.43-2.931,7.07c0,2.63,1.07,5.21,2.931,7.07
			c1.859,1.86,4.439,2.93,7.069,2.93c2.631,0,5.21-1.07,7.07-2.93c1.86-1.86,2.93-4.44,2.93-7.07c0-2.64-1.069-5.21-2.93-7.07
			s-4.43-2.93-7.07-2.93C155.479,316.953,152.899,318.023,151.04,319.883z"/>
		<path id="XMLID_2136_" d="M346.342,241.785c-3.906-3.905-10.236-3.905-14.143,0l-67.739,67.739
			c-3.905,3.905-3.905,10.237,0,14.143c1.953,1.953,4.512,2.929,7.071,2.929s5.118-0.976,7.071-2.929l67.739-67.739
			C350.248,252.022,350.248,245.69,346.342,241.785z"/>
		<path id="XMLID_2140_" d="M248.2,329.933c-2.631,0-5.21,1.06-7.07,2.92c-1.86,1.87-2.93,4.44-2.93,7.07
			c0,2.64,1.069,5.21,2.93,7.07c1.86,1.87,4.439,2.93,7.07,2.93c2.63,0,5.21-1.06,7.069-2.93c1.86-1.86,2.931-4.43,2.931-7.07
			c0-2.63-1.07-5.21-2.931-7.07C253.41,330.993,250.83,329.933,248.2,329.933z"/>
		<path id="XMLID_2141_" d="M354.235,318.054c2.56,0,5.118-0.976,7.071-2.929l68.265-68.265c3.905-3.905,3.905-10.237,0-14.143
			c-3.906-3.905-10.236-3.905-14.143,0l-68.265,68.265c-3.905,3.905-3.905,10.237,0,14.143
			C349.117,317.077,351.675,318.054,354.235,318.054z"/>
		<path id="XMLID_2142_" d="M475,284.393c-2.63,0-5.21,1.07-7.07,2.93s-2.93,4.43-2.93,7.07c0,2.63,1.069,5.21,2.93,7.07
			s4.44,2.93,7.07,2.93s5.21-1.07,7.069-2.93c1.86-1.86,2.931-4.44,2.931-7.07c0-2.63-1.07-5.21-2.931-7.07
			C480.21,285.463,477.63,284.393,475,284.393z"/>
	</g>
</g>
<g>
</g>
<g>
</g>
<g>
</g>
<g>
</g>
<g>
</g>
<g>
</g>
<g>
</g>
<g>
</g>
<g>
</g>
<g>
</g>
<g>
</g>
<g>
</g>
<g>
</g>
<g>
</g>
<g>
</g>
</svg>
