<?xml version="1.0" encoding="iso-8859-1"?>
<!-- Generator: Adobe Illustrator 19.0.0, SVG Export Plug-In . SVG Version: 6.00 Build 0)  -->
<svg version="1.1" id="Layer_1" xmlns="http://www.w3.org/2000/svg" xmlns:xlink="http://www.w3.org/1999/xlink" x="0px" y="0px"
	 viewBox="0 0 512.072 512.072" style="enable-background:new 0 0 512.072 512.072;" xml:space="preserve">
<g id="XMLID_444_">
	<g id="XMLID_445_">
		<path id="XMLID_2116_" d="M354.832,409.003c4.579-4.442,3.8-10.747,0.399-14.275c-3.398-3.528-9.669-4.541-14.279-0.13
			c-0.032,0.031-0.065,0.063-0.098,0.095c-4.549,4.474-3.727,10.772-0.303,14.277c1.818,1.862,4.442,3.009,7.189,3.009
			C350.165,411.979,352.685,411.086,354.832,409.003z"/>
		<path id="XMLID_2119_" d="M432.931,196.285c-5.179,1.918-7.822,7.671-5.904,12.851c8.633,23.307,13.01,47.847,13.01,72.937
			c0,115.794-94.206,210-210,210c-42.968,0-84.273-12.884-119.453-37.259c-4.538-3.145-10.77-2.016-13.915,2.524
			c-3.146,4.54-2.016,10.77,2.524,13.915c38.541,26.705,83.786,40.82,130.844,40.82c61.436,0,119.193-23.924,162.635-67.366
			c43.441-43.441,67.365-101.199,67.365-162.634c0-27.469-4.796-54.346-14.254-79.883
			C443.863,197.01,438.111,194.369,432.931,196.285z"/>
		<path id="XMLID_2120_" d="M20.036,282.072c0-115.794,94.206-210,210-210c24.281,0,48.073,4.105,70.715,12.201
			c5.2,1.86,10.925-0.848,12.783-6.049c1.859-5.2-0.849-10.923-6.049-12.783c-24.81-8.871-50.867-13.369-77.449-13.369
			c-61.436,0-119.193,23.924-162.635,67.365C23.96,162.879,0.036,220.637,0.036,282.072c0,47.642,14.438,93.35,41.756,132.184
			c1.946,2.768,5.042,4.248,8.188,4.248c1.987,0,3.995-0.591,5.744-1.822c4.518-3.178,5.604-9.416,2.426-13.933
			C33.216,367.302,20.036,325.573,20.036,282.072z"/>
		<path id="XMLID_2144_" d="M511.275,82.932c-1.548-3.737-5.194-6.173-9.239-6.173h-52.544l5.651-5.651
			c3.905-3.905,3.905-10.237,0-14.143c-3.906-3.905-10.236-3.905-14.143,0l-5.723,5.723V10.001c0-4.044-2.437-7.691-6.173-9.239
			c-3.737-1.548-8.039-0.692-10.898,2.167l-88.156,88.156c-1.875,1.875-2.929,4.419-2.929,7.071v34.69
			c-28.845-18.869-62.099-28.774-97.086-28.774c-98.149,0-178,79.851-178,178s79.851,178,178,178
			c32.577,0,64.447-8.884,92.166-25.691c4.723-2.863,6.229-9.013,3.366-13.736c-2.862-4.722-9.012-6.231-13.735-3.366
			c-24.592,14.911-52.877,22.792-81.797,22.792c-87.121,0-158-70.878-158-158s70.879-158,158-158
			c35.575,0,69.128,11.531,97.086,33.345v13.427l-18.224,18.224c-21.282-18.074-48.818-28.996-78.862-28.996
			c-67.271,0-122,54.729-122,122s54.729,122,122,122s122-54.729,122-122c0-30.043-10.922-57.579-28.996-78.862l18.296-18.296h13.304
			c21.558,27.629,33.396,61.999,33.396,97.158c0,29.481-8.17,58.236-23.626,83.155c-2.911,4.693-1.466,10.858,3.228,13.769
			c1.641,1.018,3.462,1.503,5.261,1.503c3.346,0,6.615-1.679,8.508-4.73c17.422-28.087,26.63-60.487,26.63-93.697
			c0-34.542-10.146-68.41-28.853-97.158h34.696c2.652,0,5.195-1.054,7.071-2.929l88.156-88.156
			C511.967,90.97,512.822,86.669,511.275,82.932z M415.278,34.143v48.545l-68.156,68.156v-48.545L415.278,34.143z M332.036,282.072
			c0,56.243-45.757,102-102,102s-102-45.757-102-102s45.757-102,102-102c24.528,0,47.06,8.704,64.674,23.184l-22.775,22.775
			c-11.689-8.762-26.198-13.959-41.898-13.959c-38.598,0-70,31.402-70,70s31.402,70,70,70s70-31.402,70-70
			c0-15.7-5.197-30.209-13.959-41.899l22.775-22.775C323.332,235.012,332.036,257.544,332.036,282.072z M280.036,282.072
			c0,27.57-22.43,50-50,50s-50-22.43-50-50s22.43-50,50-50c10.176,0,19.646,3.063,27.553,8.305l-34.624,34.624
			c-3.905,3.905-3.905,10.237,0,14.143c1.953,1.953,4.512,2.929,7.071,2.929s5.118-0.976,7.071-2.929l34.624-34.624
			C276.973,262.426,280.036,271.896,280.036,282.072z M409.737,164.915h-48.401l68.156-68.156h48.401L409.737,164.915z"/>
		<path id="XMLID_2148_" d="M74.276,427.43c-2.641,0-5.221,1.07-7.07,2.93c-1.87,1.86-2.93,4.44-2.93,7.07
			c0,2.63,1.06,5.21,2.93,7.07c1.859,1.86,4.43,2.93,7.07,2.93c2.63,0,5.21-1.07,7.069-2.93c1.86-1.86,2.931-4.44,2.931-7.07
			c0-2.63-1.07-5.2-2.931-7.07C79.486,428.501,76.906,427.43,74.276,427.43z"/>
	</g>
</g>
<g>
</g>
<g>
</g>
<g>
</g>
<g>
</g>
<g>
</g>
<g>
</g>
<g>
</g>
<g>
</g>
<g>
</g>
<g>
</g>
<g>
</g>
<g>
</g>
<g>
</g>
<g>
</g>
<g>
</g>
</svg>
