<?xml version="1.0" encoding="iso-8859-1"?>
<!-- Generator: Adobe Illustrator 19.0.0, SVG Export Plug-In . SVG Version: 6.00 Build 0)  -->
<svg version="1.1" id="Layer_1" xmlns="http://www.w3.org/2000/svg" xmlns:xlink="http://www.w3.org/1999/xlink" x="0px" y="0px"
	 viewBox="0 0 512.003 512.003" style="enable-background:new 0 0 512.003 512.003;" xml:space="preserve">
<g id="XMLID_761_">
	<g id="XMLID_1112_">
		<path id="XMLID_2260_" d="M483.729,282.044c18.514-29.34,28.272-63.116,28.272-98.044c0-101.458-82.542-184-184-184
			c-33.984,0-67.188,9.341-96.021,27.013c-4.709,2.886-6.187,9.042-3.3,13.751c2.885,4.708,9.041,6.187,13.751,3.3
			C268.118,28.321,297.708,20,328.002,20c90.43,0,164,73.57,164,164c0,32.797-9.647,64.448-27.9,91.531
			c-2.421,3.592-2.214,8.236,0.277,11.571l10.958,40.896l-43.984-11.786c-2.881-0.772-5.956-0.219-8.386,1.511
			C395.129,337.531,362.291,348,328.002,348c-19.533,0-38.638-3.412-56.808-10.125c-12.791-47.105-49.958-84.273-97.064-97.064
			c-6.714-18.17-10.128-37.272-10.128-56.811c0-30.63,8.495-60.501,24.567-86.385c2.913-4.692,1.471-10.857-3.221-13.771
			c-4.69-2.913-10.857-1.472-13.771,3.221c-18.041,29.054-27.576,62.573-27.576,96.935c0,17.987,2.582,35.649,7.672,52.68
			c-4.499-0.444-9.059-0.677-13.672-0.677c-76.093,0-138,61.907-138,138c0,27.309,7.896,53.524,22.878,76.122L12.177,490.07
			c-0.925,3.451,0.062,7.133,2.588,9.66c2.526,2.526,6.207,3.512,9.659,2.588l40.935-10.969
			c21.801,13.526,46.817,20.654,72.642,20.654c26.285,0,51.852-7.42,73.937-21.458c4.661-2.963,6.037-9.143,3.075-13.804
			c-2.963-4.661-9.145-6.037-13.804-3.075c-18.873,11.997-40.729,18.337-63.208,18.337c-23.4,0-46.017-6.838-65.404-19.776
			c-2.393-1.597-5.358-2.087-8.139-1.341l-28.48,7.631l7.414-27.669c0.773-2.885,0.216-5.965-1.519-8.396
			c-14.309-20.056-21.872-43.725-21.872-68.449c0-65.065,52.935-118,118-118s118,52.935,118,118c0,13.895-2.389,27.494-7.101,40.42
			c-1.892,5.188,0.781,10.928,5.97,12.82c5.188,1.891,10.929-0.781,12.82-5.97c5.515-15.127,8.311-31.031,8.311-47.27
			c0-4.613-0.232-9.172-0.676-13.67c17.032,5.089,34.696,7.667,52.677,7.667c36.875,0,72.26-10.796,102.647-31.271l56.242,15.07
			c3.453,0.925,7.133-0.062,9.66-2.588c2.526-2.526,3.513-6.208,2.588-9.66L483.729,282.044z"/>
		<path id="XMLID_2263_" d="M379.552,205.296H277.698c-5.523,0-10,4.477-10,10c0,33.595,27.332,60.927,60.927,60.927
			s60.927-27.332,60.927-60.927C389.552,209.773,385.074,205.296,379.552,205.296z M328.625,256.223
			c-19.118,0-35.217-13.178-39.691-30.927h79.383C363.842,243.044,347.743,256.223,328.625,256.223z"/>
		<path id="XMLID_2264_" d="M396.692,165.865c1.793,0,3.609-0.482,5.247-1.495l1.281-0.791c4.702-2.897,6.166-9.057,3.269-13.759
			c-2.898-4.703-9.059-6.165-13.759-3.269l-1.304,0.805c-4.698,2.903-6.154,9.065-3.25,13.763
			C390.067,164.181,393.341,165.865,396.692,165.865z"/>
		<path id="XMLID_2265_" d="M255.322,146.551l-1.304,0.805c-4.699,2.903-6.154,9.065-3.25,13.763
			c1.891,3.061,5.165,4.745,8.516,4.745c1.793,0,3.609-0.482,5.247-1.495l1.281-0.791c4.702-2.897,6.166-9.057,3.269-13.759
			C266.183,145.117,260.021,143.655,255.322,146.551z"/>
		<path id="XMLID_2266_" d="M75.931,366.931c-1.86,1.86-2.93,4.44-2.93,7.07c0,2.63,1.07,5.21,2.93,7.07
			c1.86,1.86,4.44,2.93,7.07,2.93c2.63,0,5.21-1.07,7.07-2.93s2.93-4.44,2.93-7.07c0-2.63-1.07-5.21-2.93-7.07
			c-1.86-1.86-4.44-2.93-7.07-2.93C80.371,364.001,77.792,365.071,75.931,366.931z"/>
		<path id="XMLID_2267_" d="M130.931,366.931c-1.86,1.86-2.93,4.44-2.93,7.07c0,2.63,1.07,5.21,2.93,7.07
			c1.86,1.86,4.44,2.93,7.07,2.93c2.63,0,5.21-1.07,7.07-2.93s2.93-4.44,2.93-7.07c0-2.63-1.07-5.21-2.93-7.07
			c-1.86-1.86-4.44-2.93-7.07-2.93C135.371,364.001,132.792,365.071,130.931,366.931z"/>
		<path id="XMLID_2268_" d="M185.931,366.931c-1.86,1.86-2.93,4.44-2.93,7.07c0,2.63,1.07,5.21,2.93,7.07
			c1.86,1.86,4.44,2.93,7.07,2.93c2.63,0,5.21-1.07,7.07-2.93s2.93-4.44,2.93-7.07c0-2.63-1.07-5.21-2.93-7.07
			c-1.86-1.86-4.44-2.93-7.07-2.93C190.371,364.001,187.792,365.071,185.931,366.931z"/>
		<path id="XMLID_2270_" d="M237.761,444.201c-2.64,0-5.21,1.07-7.07,2.93s-2.93,4.44-2.93,7.07s1.07,5.21,2.93,7.07
			c1.86,1.86,4.43,2.93,7.07,2.93c2.63,0,5.21-1.07,7.07-2.93c1.86-1.86,2.93-4.44,2.93-7.07s-1.07-5.21-2.93-7.07
			C242.971,445.271,240.391,444.201,237.761,444.201z"/>
		<path id="XMLID_2271_" d="M205.302,70.631c2.63,0,5.21-1.06,7.07-2.92c1.86-1.86,2.93-4.44,2.93-7.07c0-2.64-1.07-5.21-2.93-7.08
			c-1.86-1.86-4.44-2.92-7.07-2.92c-2.64,0-5.21,1.06-7.07,2.92c-1.87,1.87-2.93,4.44-2.93,7.08c0,2.63,1.06,5.21,2.93,7.07
			C200.092,69.571,202.661,70.631,205.302,70.631z"/>
	</g>
</g>
<g>
</g>
<g>
</g>
<g>
</g>
<g>
</g>
<g>
</g>
<g>
</g>
<g>
</g>
<g>
</g>
<g>
</g>
<g>
</g>
<g>
</g>
<g>
</g>
<g>
</g>
<g>
</g>
<g>
</g>
</svg>
