<?xml version="1.0" encoding="iso-8859-1"?>
<!-- Generator: Adobe Illustrator 19.0.0, SVG Export Plug-In . SVG Version: 6.00 Build 0)  -->
<svg version="1.1" id="Layer_1" xmlns="http://www.w3.org/2000/svg" xmlns:xlink="http://www.w3.org/1999/xlink" x="0px" y="0px"
	 viewBox="0 0 512.039 512.039" style="enable-background:new 0 0 512.039 512.039;" xml:space="preserve">
<g id="XMLID_180_">
	<g id="XMLID_2109_">
		<path id="XMLID_2162_" d="M496.994,35.282L496.994,35.282c-20.027-20.027-52.612-20.026-72.64,0l-1.512,1.511
			c-0.001,0.002-0.003,0.003-0.005,0.005c-0.003,0.003-0.006,0.007-0.01,0.01l-44.123,44.123c-0.001,0.002-0.003,0.003-0.005,0.005
			c-0.003,0.003-0.006,0.007-0.01,0.01L255.407,204.229c-30.174-6-61.761,3.433-83.655,25.326
			c-28.555,28.555-26.54,55.763-24.592,82.075c1.551,20.941,3.154,42.595-8.938,69.181c-1.291,2.837-1.185,6.114,0.287,8.862
			s4.141,4.652,7.218,5.15c17.397,2.816,33.731,4.222,48.979,4.222c46.165,0,82.378-12.886,108.014-38.521
			c0.146-0.146,0.284-0.296,0.428-0.443c0.271-0.252,0.529-0.517,0.77-0.796c21.03-21.835,30.016-52.801,24.128-82.415
			l168.948-168.948c9.701-9.702,15.045-22.6,15.045-36.32C512.039,57.882,506.695,44.983,496.994,35.282z M431.251,145.38
			c-9.839-12.513-15.192-27.834-15.192-43.978c0-19.049,7.43-36.971,20.922-50.462l1.517-1.517c0.705-0.705,1.439-1.37,2.197-1.998
			c-2.689,24.403,4.569,48.882,20.466,68.045L431.251,145.38z M417.021,159.611l-29.907,29.907
			c-9.839-12.513-15.192-27.834-15.192-43.978c0-19.048,7.429-36.968,20.919-50.459l3.789-3.789c-0.366,3.336-0.57,6.707-0.57,10.11
			C396.059,122.895,403.451,143.258,417.021,159.611z M372.883,203.748l-9.73,9.73l-44.355-44.355l33.693-33.693
			c-0.366,3.336-0.57,6.706-0.57,10.11C351.921,167.033,359.313,187.396,372.883,203.748z M304.655,183.266l44.355,44.355
			l-31.944,31.944l-44.355-44.355L304.655,183.266z M161.308,376.857c8.831-25.737,7.231-47.34,5.798-66.704
			c-0.875-11.815-1.632-22.125-0.073-31.957c0.044-0.025,0.089-0.043,0.133-0.069c0.121-0.071,12.507-6.972,26.358-2.348
			c12.122,4.049,22.295,15.724,30.236,34.702c12.805,30.602,31.911,43.205,45.685,48.388c0.833,0.314,1.654,0.598,2.468,0.868
			C244.988,376.913,207.933,382.662,161.308,376.857z M291.697,343.056c-8.689,0.036-33.982-3.239-49.488-40.294
			c-10.266-24.535-24.515-39.995-42.351-45.952c-8.469-2.828-16.489-3.032-23.25-2.157c2.503-3.588,5.552-7.222,9.286-10.956
			c17.645-17.645,43.326-24.971,67.583-19.435l54.536,54.537C313.208,301.573,307.068,325.601,291.697,343.056z M482.852,93.779
			l-7.47,7.47c-13.539-17.224-18.407-39.576-13.143-60.973c7.79,0.38,15.059,3.594,20.612,9.148c0,0,0,0,0,0
			c5.925,5.924,9.188,13.8,9.188,22.177S488.776,87.855,482.852,93.779z"/>
		<path id="XMLID_2181_" d="M400.013,266.02c2.63,0,5.21-1.07,7.069-2.93c1.86-1.86,2.931-4.44,2.931-7.07
			c0-2.63-1.07-5.21-2.931-7.07c-1.859-1.86-4.439-2.93-7.069-2.93s-5.21,1.07-7.07,2.93c-1.86,1.86-2.93,4.44-2.93,7.07
			c0,2.63,1.069,5.21,2.93,7.07S397.383,266.02,400.013,266.02z"/>
	</g>
	<g id="XMLID_1613_">
		<g id="XMLID_1896_">
			<path id="XMLID_750_" d="M195.782,68.02c-2.63,0-5.21-1.07-7.069-2.93c-1.86-1.86-2.931-4.44-2.931-7.07
				c0-2.63,1.07-5.21,2.931-7.07c1.859-1.86,4.439-2.93,7.069-2.93s5.21,1.07,7.07,2.93c1.86,1.86,2.93,4.44,2.93,7.07
				c0,2.63-1.069,5.21-2.93,7.07S198.412,68.02,195.782,68.02z"/>
		</g>
		<path id="XMLID_755_" d="M461.822,436.02h-51.81v-139c0-5.523-4.478-10-10-10s-10,4.477-10,10v139H122c-5.522,0-10,4.477-10,10
			c0,25.364-20.636,46-46,46s-46-20.636-46-46v-378h133.721c5.522,0,10-4.477,10-10s-4.478-10-10-10H20v-28h370.023v10.218
			c0,5.523,4.478,10,10,10s10-4.477,10-10V10.02c0-5.523-4.478-10-10-10H10c-5.522,0-10,4.477-10,10v436
			c0,35.269,27.806,64.165,62.647,65.916c0.427,0.055,0.861,0.084,1.303,0.084h341.872c36.393,0,66-29.607,66-66
			C471.822,440.497,467.345,436.02,461.822,436.02z M405.822,492.02H113.285c9.374-9.633,15.839-22.112,17.959-36h319.483
			C446.148,476.591,427.753,492.02,405.822,492.02z"/>
	</g>
</g>
<g>
</g>
<g>
</g>
<g>
</g>
<g>
</g>
<g>
</g>
<g>
</g>
<g>
</g>
<g>
</g>
<g>
</g>
<g>
</g>
<g>
</g>
<g>
</g>
<g>
</g>
<g>
</g>
<g>
</g>
</svg>
