<?xml version="1.0" encoding="iso-8859-1"?>
<!-- Generator: Adobe Illustrator 19.0.0, SVG Export Plug-In . SVG Version: 6.00 Build 0)  -->
<svg version="1.1" id="Layer_1" xmlns="http://www.w3.org/2000/svg" xmlns:xlink="http://www.w3.org/1999/xlink" x="0px" y="0px"
	 viewBox="0 0 512 512" style="enable-background:new 0 0 512 512;" xml:space="preserve">
<g id="XMLID_547_">
	<g id="XMLID_2069_">
		<path id="XMLID_2150_" d="M482,108H373.987V78c0-38.598-31.402-70-70-70h-95.949c-38.598,0-70,31.402-70,70v30H30
			c-16.542,0-30,13.458-30,30v106c0,15.102,8.016,28.364,20.013,35.766V474c0,16.542,13.458,30,30,30H220.01c5.522,0,10-4.477,10-10
			s-4.478-10-10-10H50.013c-5.514,0-10-4.486-10-10V285.95C40.672,285.98,41.333,286,42,286h63.699
			c1.509,22.048,19.916,39.528,42.339,39.528s40.831-17.48,42.339-39.528h131.271c1.509,22.048,19.916,39.528,42.339,39.528
			s40.831-17.48,42.339-39.528H470c0.675,0,1.345-0.019,2.013-0.051V474c0,5.514-4.486,10-10,10H300.016c-5.522,0-10,4.477-10,10
			s4.478,10,10,10h161.997c16.542,0,30-13.458,30-30V279.75C503.996,272.345,512,259.092,512,244V138
			C512,121.458,498.542,108,482,108z M158.038,78c0-27.57,22.43-50,50-50h95.949c27.57,0,50,22.43,50,50v30h-20V78
			c0-16.542-13.458-30-30-30h-95.949c-16.542,0-30,13.458-30,30v30h-20V78z M198.038,108V78c0-5.514,4.486-10,10-10h95.949
			c5.514,0,10,4.486,10,10v30H198.038z M148.038,305.528c-12.38,0-22.451-10.072-22.451-22.451V258h44.902v17.981
			c0,0.006-0.001,0.013-0.001,0.019s0.001,0.013,0.001,0.019v7.057C170.489,295.456,160.418,305.528,148.038,305.528z
			 M386.438,283.077c0,12.379-10.071,22.451-22.451,22.451s-22.451-10.072-22.451-22.451V258h44.902V283.077z M406.438,266v-18
			c0-5.523-4.478-10-10-10h-64.902c-5.522,0-10,4.477-10,10v18H190.489v-18c0-5.523-4.478-10-10-10h-64.902c-5.522,0-10,4.477-10,10
			v18H42c-12.131,0-22-9.869-22-22V138c0-5.514,4.486-10,10-10h118.038h40h135.949h40H482c5.514,0,10,4.486,10,10v106
			c0,12.131-9.869,22-22,22H406.438z"/>
		<path id="XMLID_2158_" d="M260.532,484c-2.63,0-5.2,1.07-7.069,2.93c-1.86,1.86-2.921,4.44-2.921,7.07
			c0,2.63,1.061,5.21,2.921,7.07c1.869,1.86,4.449,2.93,7.069,2.93c2.63,0,5.21-1.07,7.08-2.93c1.86-1.86,2.92-4.44,2.92-7.07
			c0-2.63-1.06-5.21-2.92-7.07C265.742,485.07,263.173,484,260.532,484z"/>
	</g>
	<g id="XMLID_1878_">
		<g id="XMLID_1880_">
			<path id="XMLID_763_" d="M322.013,176.5c-2.63,0-5.21-1.07-7.07-2.93s-2.93-4.44-2.93-7.07c0-2.63,1.069-5.21,2.93-7.07
				c1.86-1.86,4.44-2.93,7.07-2.93s5.21,1.07,7.069,2.93c1.86,1.86,2.931,4.44,2.931,7.07c0,2.63-1.07,5.21-2.931,7.07
				C327.223,175.43,324.643,176.5,322.013,176.5z"/>
		</g>
		<g id="XMLID_1879_">
			<path id="XMLID_762_" d="M498.98,176.5H364.075c-5.522,0-10-4.477-10-10s4.478-10,10-10H498.98c5.522,0,10,4.477,10,10
				S504.503,176.5,498.98,176.5z"/>
		</g>
	</g>
</g>
<g>
</g>
<g>
</g>
<g>
</g>
<g>
</g>
<g>
</g>
<g>
</g>
<g>
</g>
<g>
</g>
<g>
</g>
<g>
</g>
<g>
</g>
<g>
</g>
<g>
</g>
<g>
</g>
<g>
</g>
</svg>
