<?xml version="1.0" encoding="iso-8859-1"?>
<!-- Generator: Adobe Illustrator 19.0.0, SVG Export Plug-In . SVG Version: 6.00 Build 0)  -->
<svg version="1.1" id="Layer_1" xmlns="http://www.w3.org/2000/svg" xmlns:xlink="http://www.w3.org/1999/xlink" x="0px" y="0px"
	 viewBox="0 0 512 512" style="enable-background:new 0 0 512 512;" xml:space="preserve">
<g id="XMLID_288_">
	<g id="XMLID_2381_">
		<path id="XMLID_2382_" d="M355.81,417.069c1.86-1.859,2.93-4.439,2.93-7.069s-1.07-5.21-2.93-7.07c-1.86-1.86-4.44-2.93-7.08-2.93
			c-2.63,0-5.21,1.069-7.06,2.93c-1.87,1.86-2.93,4.43-2.93,7.07c0,2.63,1.06,5.21,2.93,7.069c1.86,1.86,4.43,2.931,7.06,2.931
			C351.37,420,353.94,418.93,355.81,417.069z"/>
		<path id="XMLID_2400_" d="M510.009,204.012C508.121,201.487,505.153,200,502,200h-40.785V10c0-5.522-4.477-10-10-10h-184
			c-5.523,0-10,4.478-10,10v77H154.088c-5.523,0-10,4.478-10,10v103H107c-3.153,0-6.121,1.487-8.009,4.012
			c-1.888,2.525-2.475,5.793-1.583,8.817l58.987,200c1.254,4.252,5.158,7.171,9.591,7.171H304.5c5.523,0,10-4.478,10-10
			s-4.477-10-10-10H173.464l-53.088-180h33.713H334.08h117.136h37.409l-53.088,180H399c-5.523,0-10,4.478-10,10s4.477,10,10,10
			h44.013c4.433,0,8.337-2.919,9.591-7.171l58.987-200C512.483,209.805,511.897,206.537,510.009,204.012z M164.088,107h103.127
			h56.864v93H164.088V107z M344.08,200V97c0-5.522-4.477-10-10-10h-56.864V20h164v180H344.08z"/>
		<path id="XMLID_2404_" d="M454.101,438H145.552L62.68,157.017c-1.254-4.252-5.158-7.171-9.591-7.171H10c-5.523,0-10,4.478-10,10
			s4.477,10,10,10h35.612l82.873,280.983c1.254,4.252,5.158,7.171,9.591,7.171h49.616c-2.647,5.094-4.153,10.873-4.153,17
			c0,20.402,16.598,37,37,37s37-16.598,37-37c0-6.127-1.506-11.906-4.153-17h81.856c-2.647,5.094-4.153,10.873-4.153,17
			c0,20.402,16.598,37,37,37s37-16.598,37-37c0-6.127-1.506-11.906-4.153-17h53.166c5.523,0,10-4.478,10-10S459.624,438,454.101,438
			z M237.539,475c0,9.374-7.626,17-17,17s-17-7.626-17-17s7.626-17,17-17S237.539,465.626,237.539,475z M385.088,475
			c0,9.374-7.626,17-17,17s-17-7.626-17-17s7.626-17,17-17S385.088,465.626,385.088,475z"/>
	</g>
	<g id="XMLID_265_">
		<g id="XMLID_272_">
			<path id="XMLID_773_" d="M244.08,269c-2.63,0-5.2-1.07-7.07-2.931c-1.86-1.859-2.92-4.439-2.92-7.069s1.06-5.21,2.92-7.07
				s4.44-2.93,7.07-2.93c2.64,0,5.22,1.069,7.08,2.93c1.86,1.86,2.92,4.44,2.92,7.07s-1.06,5.21-2.92,7.069
				C249.29,267.93,246.72,269,244.08,269z"/>
		</g>
		<g id="XMLID_271_">
			<path id="XMLID_764_" d="M202.021,269h-72.606c-5.523,0-10-4.478-10-10s4.477-10,10-10h72.606c5.523,0,10,4.478,10,10
				S207.544,269,202.021,269z"/>
		</g>
	</g>
</g>
<g>
</g>
<g>
</g>
<g>
</g>
<g>
</g>
<g>
</g>
<g>
</g>
<g>
</g>
<g>
</g>
<g>
</g>
<g>
</g>
<g>
</g>
<g>
</g>
<g>
</g>
<g>
</g>
<g>
</g>
</svg>
