<?xml version="1.0" encoding="iso-8859-1"?>
<!-- Generator: Adobe Illustrator 19.0.0, SVG Export Plug-In . SVG Version: 6.00 Build 0)  -->
<svg version="1.1" id="Layer_1" xmlns="http://www.w3.org/2000/svg" xmlns:xlink="http://www.w3.org/1999/xlink" x="0px" y="0px"
	 viewBox="0 0 512 512" style="enable-background:new 0 0 512 512;" xml:space="preserve">
<g id="XMLID_181_">
	<g id="XMLID_1328_">
		<path id="XMLID_2420_" d="M206.172,299.777c-0.722,15.52,5.887,30.615,17.723,40.604v35.242c0,17.768,14.455,32.223,32.222,32.223
			s32.222-14.455,32.222-32.223v-35.241c11.313-9.535,17.778-23.407,17.778-38.229c0-13.617-5.376-26.346-15.139-35.843
			c-9.76-9.493-22.654-14.526-36.271-14.138C228.7,252.893,207.382,273.803,206.172,299.777z M226.151,300.707
			c0.725-15.573,13.511-28.11,29.108-28.542c0.287-0.008,0.573-0.012,0.859-0.012c7.866,0,15.265,2.998,20.915,8.493
			c5.858,5.699,9.084,13.337,9.084,21.507c0,9.106-4.071,17.617-11.167,23.35c-4.201,3.392-6.611,8.462-6.611,13.908v36.213
			c0,6.739-5.483,12.223-12.222,12.223s-12.222-5.483-12.222-12.223v-36.213c0-5.446-2.408-10.515-6.607-13.905
			c0-0.001,0-0.001,0-0.001C229.76,319.426,225.7,310.388,226.151,300.707z"/>
		<path id="XMLID_2426_" d="M386.117,202.767V130c0-71.683-58.318-130-130-130s-130,58.317-130,130v72.638
			c-24.381,24.918-41.3,56.501-48.297,90.667c-1.108,5.41,2.38,10.694,7.791,11.803c5.414,1.109,10.695-2.38,11.803-7.791
			C112.758,222.386,179.503,168,256.117,168c89.327,0,162,72.673,162,162s-72.673,162-162,162
			c-76.626,0-143.373-54.396-158.708-129.341c-1.107-5.41-6.386-8.901-11.802-7.792c-5.411,1.107-8.899,6.391-7.792,11.802
			c8.282,40.473,30.488,77.325,62.529,103.768C172.821,497.239,213.937,512,256.117,512c100.355,0,182-81.645,182-182
			C438.117,280.524,418.264,235.605,386.117,202.767z M256.117,20c60.654,0,110,49.346,110,110v55.106
			c-8.75-6.659-18.115-12.546-28-17.556V130c0-45.215-36.785-82-82-82s-82,36.785-82,82v37.535c-9.809,4.944-19.189,10.78-28,17.465
			v-55C146.117,69.346,195.463,20,256.117,20z M194.117,158.907V130c0-34.187,27.813-62,62-62s62,27.813,62,62v28.881
			c-19.36-7.036-40.239-10.881-62-10.881C234.856,148,213.867,151.755,194.117,158.907z"/>
		<path id="XMLID_2428_" d="M377.047,322.93c-1.86,1.86-2.93,4.44-2.93,7.07s1.07,5.21,2.93,7.069c1.86,1.86,4.44,2.931,7.07,2.931
			c2.63,0,5.21-1.07,7.07-2.931c1.86-1.859,2.93-4.439,2.93-7.069s-1.07-5.21-2.93-7.07s-4.44-2.93-7.07-2.93
			C381.487,320,378.907,321.069,377.047,322.93z"/>
		<path id="XMLID_2429_" d="M342.366,222.267C318.016,202.749,287.385,192,256.117,192c-5.523,0-10,4.478-10,10s4.477,10,10,10
			c55.007,0,102.234,37.332,114.848,90.785c1.086,4.604,5.191,7.705,9.725,7.705c0.76,0,1.533-0.087,2.305-0.27
			c5.375-1.269,8.704-6.654,7.436-12.029C383.412,268.449,366.342,241.485,342.366,222.267z"/>
		<path id="XMLID_2430_" d="M84.352,340c5.523,0,10-4.478,10-10s-4.477-10-10-10h-0.469c-5.523,0-10,4.478-10,10s4.477,10,10,10
			H84.352z"/>
	</g>
</g>
<g>
</g>
<g>
</g>
<g>
</g>
<g>
</g>
<g>
</g>
<g>
</g>
<g>
</g>
<g>
</g>
<g>
</g>
<g>
</g>
<g>
</g>
<g>
</g>
<g>
</g>
<g>
</g>
<g>
</g>
</svg>
