<?xml version="1.0" encoding="iso-8859-1"?>
<!-- Generator: Adobe Illustrator 19.0.0, SVG Export Plug-In . SVG Version: 6.00 Build 0)  -->
<svg version="1.1" id="Layer_1" xmlns="http://www.w3.org/2000/svg" xmlns:xlink="http://www.w3.org/1999/xlink" x="0px" y="0px"
	 viewBox="0 0 512.012 512.012" style="enable-background:new 0 0 512.012 512.012;" xml:space="preserve">
<g id="XMLID_783_">
	<g id="XMLID_2432_">
		<path id="XMLID_2476_" d="M256.13,83c-0.346,0-0.694,0.002-1.041,0.004c-41.122,0.29-80.226,18.446-107.284,49.812
			c-3.607,4.182-3.142,10.496,1.04,14.104c4.183,3.608,10.497,3.14,14.104-1.04c23.291-26.999,56.926-42.627,92.28-42.876
			c0.301-0.002,0.597-0.004,0.896-0.004c32.702,0,63.454,12.668,86.675,35.725c23.437,23.271,36.344,54.275,36.344,87.302
			c0,31.54-11.922,61.532-33.57,84.451c-22.729,24.063-36.069,54.519-38.071,86.534h-19.497v-106h6.333
			c14.521,0,26.334-11.813,26.334-26.333v-1.334c0-14.521-11.813-26.333-26.334-26.333s-26.333,11.813-26.333,26.333v7.667h-24
			v-7.667c0-14.521-11.813-26.333-26.333-26.333h-1.694c-14.521,0-26.333,11.813-26.333,26.333v1.334
			c0,14.521,11.813,26.333,26.333,26.333h8.027v106h-19.259c-1.94-32.371-15.015-62.545-37.309-85.721
			c-23.021-23.937-35.203-55.438-34.299-88.701c0.15-5.521-4.203-10.118-9.725-10.268c-5.545-0.188-10.117,4.203-10.268,9.725
			c-1.051,38.662,13.11,75.279,39.877,103.108c20.619,21.436,31.975,49.954,31.975,80.302v1.555v27.383
			c0,21.389,16.221,39.054,37.007,41.356v2.261c0,18.748,15.252,34,34,34s34-15.252,34-34v-2.232
			c20.895-2.198,37.233-19.917,37.233-41.385v-27.383v-1.552c0-29.95,11.675-58.805,32.874-81.249
			c25.17-26.646,39.031-61.516,39.031-98.185c0-38.396-15.005-74.439-42.252-101.494C329.896,97.726,294.148,83,256.13,83z
			 M288.006,263.345c0-3.492,2.841-6.333,6.333-6.333s6.334,2.841,6.334,6.333v1.334c0,3.492-2.842,6.333-6.334,6.333h-6.333
			V263.345z M215.979,271.012c-3.492,0-6.333-2.841-6.333-6.333v-1.334c0-3.492,2.841-6.333,6.333-6.333h1.694
			c3.492,0,6.333,2.841,6.333,6.333v7.667H215.979z M244.006,291.012h24v106h-24V291.012z M270.006,478.012c0,7.72-6.28,14-14,14
			s-14-6.28-14-14v-2h28V478.012z M307.239,434.395c0,11.92-9.697,21.617-21.617,21.617h-5.616h-48h-5.39
			c-11.92,0-21.617-9.697-21.617-21.617v-17.383h102.24V434.395z"/>
		<path id="XMLID_2482_" d="M256.006,57.345c5.522,0,10-4.478,10-10V10c0-5.522-4.478-10-10-10s-10,4.478-10,10v37.345
			C246.006,52.867,250.483,57.345,256.006,57.345z"/>
		<path id="XMLID_2483_" d="M472.031,216.026h-37.345c-5.522,0-10,4.478-10,10s4.478,10,10,10h37.345c5.522,0,10-4.478,10-10
			S477.554,216.026,472.031,216.026z"/>
		<path id="XMLID_2484_" d="M77.325,216.026H39.98c-5.522,0-10,4.478-10,10s4.478,10,10,10h37.345c5.522,0,10-4.478,10-10
			S82.848,216.026,77.325,216.026z"/>
		<path id="XMLID_2485_" d="M129.659,109.68c2.559,0,5.118-0.977,7.071-2.929c3.905-3.905,3.905-10.237,0-14.143l-26.406-26.407
			c-3.905-3.903-10.235-3.905-14.143,0c-3.905,3.905-3.905,10.237,0,14.143l26.406,26.407
			C124.541,108.703,127.1,109.68,129.659,109.68z"/>
		<path id="XMLID_2486_" d="M401.688,66.201l-26.406,26.407c-3.905,3.905-3.905,10.237,0,14.143
			c1.953,1.952,4.512,2.929,7.071,2.929s5.118-0.977,7.071-2.929l26.406-26.407c3.905-3.905,3.905-10.237,0-14.143
			C411.924,62.297,405.594,62.297,401.688,66.201z"/>
		<path id="XMLID_2487_" d="M312.771,142.49c-16.832-11.495-36.507-17.559-56.951-17.559c-0.242,0-0.488,0.001-0.73,0.002
			c-5.523,0.039-9.969,4.548-9.93,10.07c0.039,5.499,4.509,9.93,9.999,9.93c0.023,0,0.048,0,0.071,0
			c0.199-0.002,0.394-0.002,0.592-0.002c33.298,0,62.793,19.892,75.248,50.808c1.57,3.898,5.318,6.267,9.278,6.267
			c1.244,0,2.51-0.234,3.733-0.728c5.123-2.063,7.603-7.89,5.539-13.012C342.127,169.667,329.385,153.838,312.771,142.49z"/>
		<path id="XMLID_2488_" d="M339.836,218.956c-1.86,1.859-2.92,4.439-2.92,7.069s1.06,5.21,2.92,7.07
			c1.859,1.86,4.439,2.93,7.08,2.93c2.63,0,5.21-1.069,7.069-2.93c1.86-1.86,2.92-4.44,2.92-7.07s-1.06-5.21-2.92-7.069
			c-1.859-1.86-4.439-2.931-7.069-2.931C344.275,216.025,341.695,217.096,339.836,218.956z"/>
		<path id="XMLID_2489_" d="M126.436,167.436c-1.86,1.87-2.93,4.44-2.93,7.08c0,2.63,1.069,5.2,2.93,7.07
			c1.86,1.859,4.44,2.93,7.07,2.93s5.21-1.07,7.069-2.93c1.86-1.87,2.931-4.44,2.931-7.07c0-2.64-1.07-5.21-2.931-7.08
			c-1.859-1.86-4.439-2.92-7.069-2.92S128.296,165.575,126.436,167.436z"/>
	</g>
</g>
<g>
</g>
<g>
</g>
<g>
</g>
<g>
</g>
<g>
</g>
<g>
</g>
<g>
</g>
<g>
</g>
<g>
</g>
<g>
</g>
<g>
</g>
<g>
</g>
<g>
</g>
<g>
</g>
<g>
</g>
</svg>
