<?xml version="1.0" encoding="iso-8859-1"?>
<!-- Generator: Adobe Illustrator 19.0.0, SVG Export Plug-In . SVG Version: 6.00 Build 0)  -->
<svg version="1.1" id="Layer_1" xmlns="http://www.w3.org/2000/svg" xmlns:xlink="http://www.w3.org/1999/xlink" x="0px" y="0px"
	 viewBox="0 0 512 512" style="enable-background:new 0 0 512 512;" xml:space="preserve">
<g id="XMLID_896_">
	<g id="XMLID_2450_">
		<path id="XMLID_2465_" d="M418.616,99.347C382.331,63.07,336.057,40.42,286,33.94V30c0-16.542-13.458-30-30-30s-30,13.458-30,30
			v3.962c-47.109,6.152-91.183,26.708-126.436,59.431c-4.048,3.757-4.284,10.085-0.526,14.132
			c3.758,4.048,10.084,4.283,14.133,0.526c29.5-27.383,65.767-45.436,104.732-52.584c-8.602,11.72-16.336,27.737-23.014,47.858
			c-13.323,40.138-20.993,92.588-21.814,148.62H46.234c1.131-24.184,6.353-47.689,15.563-70.007
			c2.107-5.105-0.323-10.952-5.428-13.059c-5.106-2.11-10.952,0.323-13.059,5.428C31.831,202.122,26.007,231.606,26,261.943
			c-0.001,2.652,1.053,5.196,2.928,7.072c1.876,1.876,4.42,2.93,7.072,2.93h190v169.563c0,5.58-4.31,10.283-9.606,10.483
			c-2.777,0.104-5.343-0.889-7.321-2.793C207.091,447.291,206,444.734,206,442v-13.667c0-16.542-13.458-30-30-30s-30,13.458-30,30
			v12.756c0,38.516,30.915,70.322,68.915,70.903c0.366,0.006,0.73,0.008,1.097,0.008c18.476,0,35.869-7.129,49.084-20.144
			C278.576,478.58,286,460.874,286,442v-35c0-5.522-4.478-10-10-10s-10,4.478-10,10v35c0,13.475-5.305,26.119-14.938,35.606
			c-9.63,9.484-22.32,14.607-35.843,14.388C188.08,491.58,166,468.743,166,441.089v-12.756c0-5.514,4.486-10,10-10s10,4.486,10,10
			V442c0,8.22,3.268,15.893,9.2,21.605c5.929,5.711,13.718,8.687,21.948,8.373c16.179-0.612,28.852-13.996,28.852-30.47V271.945h20
			V324.5c0,5.522,4.478,10,10,10s10-4.478,10-10v-52.555h190c2.652,0,5.196-1.054,7.072-2.93c1.875-1.876,2.929-4.42,2.928-7.072
			C485.985,200.52,462.055,142.774,418.616,99.347z M246,30c0-5.514,4.486-10,10-10s10,4.486,10,10v2.225
			c-3.322-0.141-6.654-0.225-9.999-0.225c-3.344,0-6.677,0.081-10.001,0.224V30z M236,251.945h-42.925
			c0.81-53.916,8.12-104.131,20.795-142.319c11.965-36.049,27.715-57.57,42.13-57.57s30.165,21.521,42.13,57.57
			c12.675,38.188,19.985,88.403,20.795,142.319H276H236z M338.926,251.945c-0.821-56.032-8.491-108.482-21.814-148.62
			c-6.676-20.114-14.407-36.126-23.005-47.845c94.451,17.391,166.996,98.193,171.656,196.465H338.926z"/>
		<path id="XMLID_2468_" d="M74.22,148.05c2.63,0,5.21-1.07,7.07-2.93c1.859-1.87,2.93-4.44,2.93-7.07s-1.07-5.21-2.93-7.07
			c-1.86-1.859-4.44-2.93-7.07-2.93s-5.21,1.07-7.07,2.93c-1.859,1.86-2.93,4.431-2.93,7.07c0,2.63,1.07,5.21,2.93,7.07
			C69.01,146.979,71.59,148.05,74.22,148.05z"/>
		<path id="XMLID_2469_" d="M276,354c-2.63,0-5.21,1.069-7.07,2.93S266,361.37,266,364s1.069,5.21,2.93,7.069
			c1.86,1.86,4.44,2.931,7.07,2.931s5.21-1.07,7.069-2.931C284.93,369.21,286,366.63,286,364s-1.07-5.21-2.931-7.07
			C281.21,355.069,278.63,354,276,354z"/>
	</g>
</g>
<g>
</g>
<g>
</g>
<g>
</g>
<g>
</g>
<g>
</g>
<g>
</g>
<g>
</g>
<g>
</g>
<g>
</g>
<g>
</g>
<g>
</g>
<g>
</g>
<g>
</g>
<g>
</g>
<g>
</g>
</svg>
