<?xml version="1.0" encoding="iso-8859-1"?>
<!-- Generator: Adobe Illustrator 19.0.0, SVG Export Plug-In . SVG Version: 6.00 Build 0)  -->
<svg version="1.1" id="Layer_1" xmlns="http://www.w3.org/2000/svg" xmlns:xlink="http://www.w3.org/1999/xlink" x="0px" y="0px"
	 viewBox="0 0 512.002 512.002" style="enable-background:new 0 0 512.002 512.002;" xml:space="preserve">
<g id="XMLID_1361_">
	<g id="XMLID_2_">
		<path id="XMLID_3077_" d="M502.002,235.987H286.026c-5.522,0-10-4.478-10-10v-59.909c0-5.522,4.478-10,10-10s10,4.478,10,10
			v49.909h194.465c-16.54-100.072-94.394-177.93-194.465-194.476v75.576c0,5.522-4.478,10-10,10s-10-4.478-10-10V10.001
			c0-2.855,1.221-5.575,3.355-7.473c2.134-1.897,4.974-2.791,7.813-2.459c56.889,6.697,110.617,32.785,151.288,73.458
			s66.756,94.402,73.45,151.291c0.334,2.837-0.562,5.68-2.459,7.814C507.577,234.767,504.857,235.987,502.002,235.987z"/>
	</g>
	<g id="XMLID_3_">
		<path id="XMLID_3076_" d="M286.026,141.295c-5.522,0-10-4.478-10-10v-0.264c0-5.522,4.478-10,10-10s10,4.478,10,10v0.264
			C296.026,136.817,291.549,141.295,286.026,141.295z"/>
	</g>
	<g id="XMLID_4_">
		<g id="XMLID_8_">
			<g id="XMLID_6_">
				<path id="XMLID_3075_" d="M235.335,462.775c-0.082,0-0.164-0.001-0.246-0.003c-44.707-1.081-87.017-16.319-122.356-44.067
					c-4.344-3.411-5.101-9.697-1.689-14.041c3.41-4.345,9.695-5.102,14.041-1.689c31.921,25.064,70.127,38.828,110.487,39.804
					c5.521,0.134,9.89,4.718,9.756,10.238C245.195,458.456,240.745,462.775,235.335,462.775z"/>
			</g>
			<g id="XMLID_7_">
				<g id="XMLID_10_">
					<g id="XMLID_9_">
						<g id="XMLID_12_">
							<g id="XMLID_11_">
								<path id="XMLID_3074_" d="M263.697,461.419c-4.994,0-9.311-3.734-9.917-8.816c-0.654-5.484,3.262-10.46,8.745-11.114
									l0.213-0.025c5.478-0.653,10.459,3.261,11.114,8.745c0.654,5.484-3.262,10.46-8.745,11.114l-0.213,0.025
									C264.492,461.395,264.093,461.419,263.697,461.419z"/>
							</g>
						</g>
					</g>
				</g>
			</g>
		</g>
	</g>
	<path id="XMLID_325_" d="M474,260.001c-0.177,0-0.353,0.005-0.527,0.014H252V38.001c0-5.522-4.478-10-10-10
		c-64.641,0-125.412,25.173-171.12,70.88C25.173,144.589,0,205.36,0,270.001s25.173,125.412,70.88,171.12
		c45.708,45.707,106.479,70.88,171.12,70.88s125.412-25.173,171.12-70.88C458.827,395.413,484,334.642,484,270.001
		C484,264.478,479.522,260.001,474,260.001z M242,492.001c-122.411,0-222-99.589-222-222c0-119.057,94.216-216.525,212-221.777
		v221.791c0,3.331,1.635,6.273,4.139,8.09c-0.001,0.003-0.003,0.006-0.004,0.009l179.53,130.016
		C374.957,459.206,312.24,492.001,242,492.001z M427.416,391.946L272.858,280.015h190.919
		C461.939,321.222,448.803,359.535,427.416,391.946z"/>
</g>
<g>
</g>
<g>
</g>
<g>
</g>
<g>
</g>
<g>
</g>
<g>
</g>
<g>
</g>
<g>
</g>
<g>
</g>
<g>
</g>
<g>
</g>
<g>
</g>
<g>
</g>
<g>
</g>
<g>
</g>
</svg>
