<?xml version="1.0" encoding="iso-8859-1"?>
<!-- Generator: Adobe Illustrator 19.0.0, SVG Export Plug-In . SVG Version: 6.00 Build 0)  -->
<svg version="1.1" id="Layer_1" xmlns="http://www.w3.org/2000/svg" xmlns:xlink="http://www.w3.org/1999/xlink" x="0px" y="0px"
	 viewBox="0 0 512 512" style="enable-background:new 0 0 512 512;" xml:space="preserve">
<g id="XMLID_905_">
	<g id="XMLID_645_">
		<path id="XMLID_654_" d="M204.43,491.691c-2.64,0-5.21,1.069-7.07,2.93s-2.93,4.44-2.93,7.07s1.07,5.21,2.93,7.069
			c1.86,1.86,4.44,2.931,7.07,2.931c2.63,0,5.21-1.07,7.07-2.931c1.86-1.859,2.93-4.439,2.93-7.069s-1.07-5.21-2.93-7.07
			C209.64,492.76,207.06,491.691,204.43,491.691z"/>
		<path id="XMLID_855_" d="M48,323.166v92.833c0,5.522,4.477,10,10,10s10-4.478,10-10v-92.833c0-5.522-4.477-10-10-10
			S48,317.643,48,323.166z"/>
		<path id="XMLID_856_" d="M65.07,274.431c-1.86-1.86-4.44-2.931-7.07-2.931s-5.21,1.07-7.07,2.931
			c-1.86,1.859-2.93,4.43-2.93,7.069c0,2.63,1.07,5.21,2.93,7.07c1.86,1.86,4.44,2.93,7.07,2.93s5.21-1.069,7.07-2.93
			s2.93-4.44,2.93-7.07S66.93,276.291,65.07,274.431z"/>
		<path id="XMLID_944_" d="M512,270.691c0-23.943-17.267-43.917-40-48.157v-64.843c0-27.57-22.43-50-50-50h-52.256L265.29,3.237
			c-3.905-3.904-10.237-3.904-14.143,0l-23.245,23.245L204.657,3.237c-3.905-3.904-10.237-3.904-14.142,0L85.44,108.312
			c-1.074-0.394-2.229-0.62-3.44-0.62H50c-27.57,0-50,22.43-50,50c0,0.729,0.024,1.453,0.055,2.174
			C0.019,160.209,0,160.558,0,160.911v300.78c0,27.57,22.43,50,50,50h112.333c5.523,0,10-4.478,10-10s-4.477-10-10-10H50
			c-16.542,0-30-13.458-30-30V197.664c8.363,6.292,18.753,10.027,30,10.027l209.326,0.203H372.93c0.326,0,0.652-0.017,0.976-0.048
			c0.019-0.002,0.038-0.005,0.057-0.007c15.156,1.493,27.037,14.31,27.037,29.853v62H280c-27.57,0-50,22.43-50,50s22.43,50,50,50
			h121v62c0,16.542-13.458,30-30,30H246.333c-5.523,0-10,4.478-10,10s4.477,10,10,10H371c27.57,0,50-22.43,50-50v-4h1
			c27.57,0,50-22.43,50-50v-9.006c22.795-4.646,40-24.847,40-48.994v-77c0-0.209-0.006-0.417-0.019-0.623
			C511.994,271.611,512,271.151,512,270.691z M222.365,60.305c10.673,7.662,23.26,11.506,35.854,11.506s25.181-3.843,35.854-11.506
			l65.298,65.298c-13.125,18.282-15.014,42.189-5.657,62.088h-88.275c-3.776-6.962-8.51-13.326-14.152-18.968
			c-15.587-15.587-36.311-24.171-58.354-24.171s-42.767,8.584-58.354,24.171c-5.643,5.642-10.377,12.006-14.152,18.968h-25.45
			L222.365,60.305z M241.489,187.691h-97.11c1.36-1.675,2.805-3.287,4.344-4.825c11.809-11.81,27.511-18.313,44.211-18.313
			s32.402,6.504,44.211,18.313C238.684,184.404,240.129,186.017,241.489,187.691z M373.796,140.028l21.429,21.429l-21.429,21.429
			C365.886,169.753,365.886,153.16,373.796,140.028z M258.219,24.451l21.429,21.429c-12.783,7.699-28.842,7.9-41.8,0.611
			c0.449-0.836,0.767-1.722,0.962-2.63L258.219,24.451z M50,127.691h16.061l-43.063,43.063C21.079,166.803,20,162.371,20,157.691
			C20,141.149,33.458,127.691,50,127.691z M37.214,184.823L197.586,24.451l16.174,16.174L66.693,187.691H50
			C45.429,187.691,41.095,186.659,37.214,184.823z M392.437,192.529l24.001-24.001c3.905-3.905,3.905-10.237,0-14.143
			l-26.694-26.694H422c16.542,0,30,13.458,30,30v142h-31v-62C421,217.789,409.31,200.571,392.437,192.529z M422,437.691h-1v-38h31v8
			C452,424.233,438.542,437.691,422,437.691z M492,349.691c0,16.542-13.458,30-30,30H280c-16.542,0-30-13.458-30-30s13.458-30,30-30
			h183c10.843,0,20.875-3.54,29-9.525V349.691z M472,298.254v-55.126c11.597,3.796,20,14.714,20,27.563S483.597,294.458,472,298.254
			z"/>
		<path id="XMLID_2558_" d="M282,339.691c-2.63,0-5.21,1.069-7.07,2.93c-1.86,1.86-2.93,4.44-2.93,7.07s1.07,5.21,2.93,7.069
			c1.86,1.86,4.44,2.931,7.07,2.931c2.63,0,5.21-1.07,7.07-2.931c1.86-1.859,2.93-4.439,2.93-7.069s-1.07-5.21-2.93-7.07
			S284.63,339.691,282,339.691z"/>
		<path id="XMLID_2559_" d="M269.125,160.551c2.559,0,5.119-0.977,7.071-2.929l17.38-17.38c3.905-3.905,3.906-10.237,0-14.143
			c-3.906-3.903-10.237-3.904-14.142,0l-17.38,17.38c-3.905,3.905-3.906,10.237,0,14.143
			C264.006,159.574,266.565,160.551,269.125,160.551z"/>
	</g>
</g>
<g>
</g>
<g>
</g>
<g>
</g>
<g>
</g>
<g>
</g>
<g>
</g>
<g>
</g>
<g>
</g>
<g>
</g>
<g>
</g>
<g>
</g>
<g>
</g>
<g>
</g>
<g>
</g>
<g>
</g>
</svg>
