<?xml version="1.0" encoding="iso-8859-1"?>
<!-- Generator: Adobe Illustrator 19.0.0, SVG Export Plug-In . SVG Version: 6.00 Build 0)  -->
<svg version="1.1" id="Layer_1" xmlns="http://www.w3.org/2000/svg" xmlns:xlink="http://www.w3.org/1999/xlink" x="0px" y="0px"
	 viewBox="0 0 511.971 511.971" style="enable-background:new 0 0 511.971 511.971;" xml:space="preserve">
<g id="XMLID_2585_">
	<g id="XMLID_621_">
		<path id="XMLID_859_" d="M197.99,347.939c82.71,0,150-67.29,150-150s-67.29-150-150-150s-150,67.29-150,150
			S115.28,347.939,197.99,347.939z M197.99,67.939c71.682,0,130,58.317,130,130s-58.318,130-130,130s-130-58.317-130-130
			S126.308,67.939,197.99,67.939z"/>
		<path id="XMLID_953_" d="M72.125,323.805c-3.905-3.904-10.237-3.904-14.143,0c-3.905,3.905-3.905,10.237,0,14.143l0.928,0.922
			c1.949,1.926,4.49,2.888,7.029,2.888c2.579,0,5.156-0.991,7.112-2.97c3.883-3.928,3.846-10.26-0.082-14.143L72.125,323.805z"/>
		<path id="XMLID_970_" d="M500.056,442.377L363.823,306.146c50.102-76.746,41.499-180.888-25.826-248.214
			c-77.2-77.199-202.814-77.199-280.014,0C25.944,89.972,5.727,132.391,1.055,177.374c-4.604,44.334,5.965,89.343,29.759,126.735
			c2.965,4.661,9.146,6.033,13.805,3.068s6.033-9.146,3.068-13.805c-44.358-69.71-34.081-162.78,24.438-221.299
			c69.403-69.402,182.328-69.402,251.73,0c69.402,69.402,69.402,182.328,0,251.73c-59.868,59.87-154.332,69.238-224.612,22.276
			c-4.591-3.068-10.802-1.833-13.87,2.759s-1.833,10.802,2.759,13.87c33.333,22.274,71.546,33.157,109.591,33.157
			c38.011,0,75.844-10.88,108.449-32.117l33,33c0.001,0.001,0.002,0.003,0.004,0.004c0.001,0.001,0.003,0.002,0.004,0.004
			l103.248,103.247c7.697,7.696,17.93,11.935,28.813,11.935c10.883,0,21.116-4.238,28.814-11.936
			C515.943,484.115,515.943,458.264,500.056,442.377z M337.998,337.947c4.954-4.955,9.585-10.111,13.904-15.439l23.698,23.697
			c-0.059,0.056-0.122,0.105-0.18,0.163l-29.172,29.172l-23.698-23.697C327.892,347.52,333.053,342.892,337.998,337.947z
			 M485.915,485.861c-3.92,3.92-9.131,6.078-14.673,6.078c-5.542,0-10.752-2.158-14.672-6.077l-96.18-96.179l29.172-29.172
			c0.058-0.058,0.107-0.121,0.163-0.18l96.19,96.189C494.003,464.608,494.003,477.772,485.915,485.861z"/>
		<path id="XMLID_1008_" d="M228.924,123.054c30.414,12.578,50.066,41.973,50.066,74.886c0,5.522,4.477,10,10,10s10-4.478,10-10
			c0-41.036-24.502-77.685-62.423-93.368c-5.104-2.109-10.952,0.315-13.063,5.419C221.394,115.095,223.82,120.942,228.924,123.054z"
			/>
		<path id="XMLID_1009_" d="M197.99,116.939c0.372,0,0.742,0.003,1.113,0.008c0.048,0.001,0.095,0.001,0.143,0.001
			c5.457,0,9.919-4.385,9.996-9.859c0.078-5.522-4.336-10.063-9.859-10.14c-0.464-0.007-0.928-0.01-1.394-0.01
			c-5.523,0-10,4.478-10,10S192.467,116.939,197.99,116.939z"/>
	</g>
</g>
<g>
</g>
<g>
</g>
<g>
</g>
<g>
</g>
<g>
</g>
<g>
</g>
<g>
</g>
<g>
</g>
<g>
</g>
<g>
</g>
<g>
</g>
<g>
</g>
<g>
</g>
<g>
</g>
<g>
</g>
</svg>
