<?xml version="1.0" encoding="iso-8859-1"?>
<!-- Generator: Adobe Illustrator 19.0.0, SVG Export Plug-In . SVG Version: 6.00 Build 0)  -->
<svg version="1.1" id="Layer_1" xmlns="http://www.w3.org/2000/svg" xmlns:xlink="http://www.w3.org/1999/xlink" x="0px" y="0px"
	 viewBox="0 0 512.008 512.008" style="enable-background:new 0 0 512.008 512.008;" xml:space="preserve">
<g id="XMLID_2463_">
	<g id="XMLID_2499_">
		<path id="XMLID_2519_" d="M251.294,291.069c1.859-1.859,2.93-4.439,2.93-7.069s-1.07-5.21-2.93-7.07
			c-1.86-1.86-4.431-2.93-7.07-2.93c-2.63,0-5.21,1.069-7.07,2.93c-1.859,1.86-2.93,4.44-2.93,7.07s1.07,5.21,2.93,7.069
			c1.86,1.86,4.44,2.931,7.07,2.931S249.434,292.93,251.294,291.069z"/>
		<path id="XMLID_2561_" d="M474.004,218h-24.111c-14.207-29.552-44.442-50-79.364-50s-65.157,20.448-79.364,50H38.004
			c-20.953,0-38,17.047-38,38s17.047,38,38,38h160.333c5.522,0,10-4.478,10-10s-4.478-10-10-10H38.004c-9.925,0-18-8.075-18-18
			s8.075-18,18-18h246.378c-1.213,5.813-1.854,11.833-1.854,18c0,48.523,39.477,88,88,88c34.922,0,65.157-20.448,79.364-50h24.111
			c20.953,0,38-17.047,38-38S494.957,218,474.004,218z M370.528,324c-37.495,0-68-30.505-68-68s30.505-68,68-68s68,30.505,68,68
			S408.023,324,370.528,324z M474.004,274h-17.329c1.213-5.813,1.854-11.833,1.854-18s-0.641-12.188-1.854-18h17.329
			c9.925,0,18,8.075,18,18S483.929,274,474.004,274z"/>
		<path id="XMLID_2565_" d="M474.004,386.125H245.646c-14.183-29.614-44.451-50.117-79.419-50.117s-65.236,20.503-79.419,50.117
			H38.004c-20.953,0-38,17.047-38,38s17.047,38,38,38h48.913c14.23,29.489,44.433,49.883,79.309,49.883s65.079-20.394,79.309-49.883
			h228.468c20.953,0,38-17.047,38-38S494.957,386.125,474.004,386.125z M38.004,442.125c-9.925,0-18-8.075-18-18s8.075-18,18-18
			h42.051c-1.197,5.776-1.828,11.757-1.828,17.883c0,6.209,0.65,12.268,1.879,18.117H38.004z M166.227,492.008
			c-37.495,0-68-30.505-68-68s30.505-68,68-68s68,30.505,68,68S203.722,492.008,166.227,492.008z M474.004,442.125H252.347
			c1.229-5.849,1.879-11.908,1.879-18.117c0-6.126-0.631-12.107-1.828-17.883h221.605c9.925,0,18,8.075,18,18
			S483.929,442.125,474.004,442.125z"/>
		<path id="XMLID_2568_" d="M349.004,70c2.63,0,5.21-1.07,7.069-2.931c1.86-1.859,2.931-4.439,2.931-7.069s-1.07-5.21-2.931-7.07
			c-1.859-1.86-4.439-2.93-7.069-2.93s-5.21,1.069-7.07,2.93s-2.93,4.44-2.93,7.07s1.069,5.21,2.93,7.069
			C343.794,68.93,346.374,70,349.004,70z"/>
		<path id="XMLID_2571_" d="M38.004,126h48.858c14.207,29.552,44.442,50,79.364,50s65.157-20.448,79.364-50h228.413
			c20.953,0,38-17.047,38-38s-17.047-38-38-38h-88.5c-5.522,0-10,4.478-10,10s4.478,10,10,10h88.5c9.925,0,18,8.075,18,18
			s-8.075,18-18,18H252.373c1.213-5.813,1.854-11.833,1.854-18s-0.641-12.188-1.854-18h54.631c5.522,0,10-4.478,10-10
			s-4.478-10-10-10h-61.413c-14.207-29.552-44.442-50-79.364-50s-65.157,20.448-79.364,50H38.004c-20.953,0-38,17.047-38,38
			S17.051,126,38.004,126z M166.227,20c37.495,0,68,30.505,68,68s-30.505,68-68,68s-68-30.505-68-68S128.731,20,166.227,20z
			 M38.004,70H80.08c-1.213,5.813-1.854,11.833-1.854,18s0.641,12.188,1.854,18H38.004c-9.925,0-18-8.075-18-18S28.079,70,38.004,70
			z"/>
	</g>
</g>
<g>
</g>
<g>
</g>
<g>
</g>
<g>
</g>
<g>
</g>
<g>
</g>
<g>
</g>
<g>
</g>
<g>
</g>
<g>
</g>
<g>
</g>
<g>
</g>
<g>
</g>
<g>
</g>
<g>
</g>
</svg>
