<?xml version="1.0" encoding="iso-8859-1"?>
<!-- Generator: Adobe Illustrator 19.0.0, SVG Export Plug-In . SVG Version: 6.00 Build 0)  -->
<svg version="1.1" id="Layer_1" xmlns="http://www.w3.org/2000/svg" xmlns:xlink="http://www.w3.org/1999/xlink" x="0px" y="0px"
	 viewBox="0 0 511.985 511.985" style="enable-background:new 0 0 511.985 511.985;" xml:space="preserve">
<g id="XMLID_355_">
	<g id="XMLID_1606_">
		<path id="XMLID_1608_" d="M364.274,78.586c5.522,0,10-4.477,10-10V32.862c0-5.523-4.478-10-10-10s-10,4.477-10,10v35.724
			C354.274,74.109,358.752,78.586,364.274,78.586z"/>
		<path id="XMLID_1890_" d="M442.553,111.01c2.56,0,5.118-0.977,7.071-2.929l40.941-40.941c3.905-3.905,3.905-10.237,0-14.143
			c-3.906-3.904-10.236-3.904-14.143,0l-40.941,40.941c-3.905,3.905-3.905,10.237,0,14.143
			C437.435,110.034,439.994,111.01,442.553,111.01z"/>
		<path id="XMLID_1891_" d="M186.331,335.021c-3.904-3.905-10.234-3.905-14.143,0l-74.056,74.055
			c-3.905,3.905-3.905,10.237,0,14.143c1.953,1.953,4.512,2.929,7.071,2.929c2.559,0,5.119-0.977,7.071-2.929l74.056-74.055
			C190.236,345.258,190.236,338.926,186.331,335.021z"/>
		<path id="XMLID_1892_" d="M319.048,339.965l-47.492,47.493c-3.905,3.905-3.905,10.237,0,14.142
			c1.953,1.953,4.512,2.929,7.071,2.929s5.118-0.977,7.071-2.929l47.492-47.493c3.905-3.905,3.905-10.237,0-14.142
			C329.284,336.059,322.954,336.059,319.048,339.965z"/>
		<path id="XMLID_1894_" d="M233.068,425.945l-15.298,15.298c-3.905,3.905-3.905,10.237,0,14.142
			c1.953,1.953,4.512,2.929,7.071,2.929s5.118-0.977,7.071-2.929l15.298-15.298c3.905-3.905,3.905-10.237,0-14.142
			C243.304,422.039,236.974,422.039,233.068,425.945z"/>
		<path id="XMLID_1895_" d="M245.376,335.626l-65.632,65.631c-3.905,3.905-3.905,10.237,0,14.142
			c1.953,1.953,4.512,2.929,7.071,2.929c2.559,0,5.118-0.977,7.071-2.929l65.632-65.631c3.905-3.905,3.905-10.237,0-14.143
			C255.614,331.722,249.284,331.721,245.376,335.626z"/>
		<path id="XMLID_2269_" d="M142.109,438.892l-33.16,33.16c-3.905,3.905-3.905,10.237,0,14.143c1.953,1.953,4.512,2.929,7.071,2.929
			s5.118-0.976,7.071-2.929l33.16-33.16c3.905-3.905,3.905-10.237,0-14.143C152.345,434.987,146.015,434.987,142.109,438.892z"/>
		<path id="XMLID_2283_" d="M501.985,169.289h-27.008c-5.522,0-10,4.477-10,10s4.478,10,10,10h27.008c5.522,0,10-4.477,10-10
			S507.508,169.289,501.985,169.289z"/>
		<path id="XMLID_3406_" d="M143.949,186.288c2.754-36.055,33.275-64.298,69.486-64.298c5.522,0,10-4.477,10-10s-4.478-10-10-10
			c-22.75,0-44.446,8.531-61.091,24.022c-16.557,15.408-26.62,36.274-28.337,58.753c-0.421,5.507,3.702,10.312,9.209,10.733
			c0.26,0.02,0.517,0.029,0.772,0.029C139.166,195.527,143.549,191.536,143.949,186.288z"/>
		<path id="XMLID_3407_" d="M261.048,126.902c1.86-1.87,2.931-4.45,2.931-7.08c0-2.63-1.07-5.21-2.931-7.07
			c-1.859-1.86-4.439-2.93-7.069-2.93s-5.21,1.07-7.07,2.93s-2.93,4.44-2.93,7.07c0,2.64,1.069,5.21,2.93,7.08
			c1.86,1.86,4.44,2.92,7.07,2.92S259.188,128.763,261.048,126.902z"/>
		<path id="XMLID_3410_" d="M450.94,179.289c0-47.788-38.878-86.666-86.666-86.666c-14.975,0-29.524,3.829-42.459,11.122
			c-26.109-30.713-65.004-50.236-108.379-50.236c-36.077,0-70.481,13.528-96.876,38.092c-24.085,22.416-39.505,52.109-43.991,84.38
			c-11.404,1.218-22.477,4.853-32.447,10.699C1.487,209.334-11.514,259.196,11.14,297.83c14.641,24.969,41.281,40.142,70.09,40.142
			c0.698,0,1.396-0.009,2.098-0.027c0.231,0.016,0.465,0.024,0.701,0.024h34.224c5.522,0,10-4.477,10-10s-4.478-10-10-10H85.046
			c-0.463-0.047-0.933-0.062-1.404-0.044c-22.629,0.883-43.807-10.698-55.249-30.211c-8.271-14.107-10.555-30.59-6.429-46.415
			c4.126-15.824,14.167-29.094,28.274-37.366c9.388-5.505,20.064-8.408,30.905-8.408c0.149,0,0.302,0.003,0.452,0.001
			c5.223,0,9.571-4.023,9.97-9.238c4.83-63.241,58.361-112.779,121.87-112.779c67.398,0,122.23,54.832,122.23,122.23
			c0,6.619-0.543,13.3-1.614,19.857c-0.686,4.194,1.355,8.363,5.087,10.395c3.73,2.031,8.34,1.484,11.492-1.368
			c9.867-8.929,22.635-13.847,35.949-13.847c29.553,0,53.596,24.043,53.596,53.597s-24.043,53.596-53.596,53.596h-18.353
			c-5.522,0-10,4.477-10,10s4.478,10,10,10h18.353c40.581,0,73.596-33.015,73.596-73.596c0-18.225-6.673-34.911-17.685-47.778
			C448.024,204.997,450.94,192.195,450.94,179.289z M355.654,197.579c0.008-0.614,0.012-1.227,0.012-1.84
			c0-27.814-8.033-53.784-21.89-75.727c9.395-4.851,19.804-7.389,30.498-7.389c36.76,0,66.666,29.906,66.666,66.666
			c0,8.009-1.462,15.964-4.258,23.42c-11.546-7.535-25.316-11.934-40.103-11.934C375.789,190.776,365.258,193.129,355.654,197.579z"
			/>
	</g>
</g>
<g>
</g>
<g>
</g>
<g>
</g>
<g>
</g>
<g>
</g>
<g>
</g>
<g>
</g>
<g>
</g>
<g>
</g>
<g>
</g>
<g>
</g>
<g>
</g>
<g>
</g>
<g>
</g>
<g>
</g>
</svg>
