<?xml version="1.0" encoding="iso-8859-1"?>
<!-- Generator: Adobe Illustrator 19.0.0, SVG Export Plug-In . SVG Version: 6.00 Build 0)  -->
<svg version="1.1" id="Layer_1" xmlns="http://www.w3.org/2000/svg" xmlns:xlink="http://www.w3.org/1999/xlink" x="0px" y="0px"
	 viewBox="0 0 512 512" style="enable-background:new 0 0 512 512;" xml:space="preserve">
<g id="XMLID_1864_">
	<g id="XMLID_1527_">
		<path id="XMLID_779_" d="M190.77,184c-2.63,0-5.21-1.07-7.069-2.931c-1.86-1.859-2.931-4.439-2.931-7.069s1.07-5.21,2.931-7.07
			c1.859-1.86,4.439-2.93,7.069-2.93s5.21,1.069,7.07,2.93s2.93,4.44,2.93,7.07s-1.069,5.21-2.93,7.069
			C195.979,182.93,193.399,184,190.77,184z"/>
	</g>
	<g id="XMLID_1707_">
		<path id="XMLID_839_" d="M442.774,172.64H396V126c0-5.522-4.478-10-10-10H10c-5.522,0-10,4.478-10,10v275
			c0,61.206,49.794,111,111,111h174c57.631,0,105.138-44.149,110.491-100.402h47.283c38.171,0,69.226-31.055,69.226-69.226V241.864
			C512,203.693,480.945,172.64,442.774,172.64z M376,401c0,50.178-40.822,91-91,91H111c-50.178,0-91-40.822-91-91V184h128.708
			c5.522,0,10-4.478,10-10s-4.478-10-10-10H20v-28h270v150h-34c-5.522,0-10,4.478-10,10v98c0,5.522,4.478,10,10,10h88
			c5.522,0,10-4.478,10-10v-98c0-5.522-4.478-10-10-10h-34V136h66V401z M334,306v78h-68v-78H334z M396,232.64h45.319
			c5.89,0,10.681,4.791,10.681,10.68v97.598c0,5.89-4.791,10.681-10.681,10.681H396V232.64z M492,342.372
			c0,27.144-22.083,49.226-49.226,49.226H396v-20h45.319c16.917,0,30.681-13.764,30.681-30.681v-97.598
			c0-16.917-13.764-30.68-30.681-30.68H396v-20h46.774c27.143,0,49.226,22.082,49.226,49.225V342.372z"/>
		<path id="XMLID_2547_" d="M262,56.333c5.522,0,10-4.478,10-10V10c0-5.522-4.478-10-10-10s-10,4.478-10,10v36.333
			C252,51.855,256.478,56.333,262,56.333z"/>
		<path id="XMLID_2548_" d="M262,91.67c2.63,0,5.21-1.07,7.069-2.93c1.86-1.87,2.931-4.44,2.931-7.07c0-2.64-1.07-5.21-2.931-7.07
			c-1.859-1.87-4.439-2.93-7.069-2.93s-5.21,1.06-7.07,2.93c-1.86,1.86-2.93,4.431-2.93,7.07c0,2.63,1.069,5.2,2.93,7.07
			C256.79,90.6,259.37,91.67,262,91.67z"/>
		<path id="XMLID_2549_" d="M198,102c5.522,0,10-4.478,10-10V10c0-5.522-4.478-10-10-10s-10,4.478-10,10v82
			C188,97.522,192.478,102,198,102z"/>
		<path id="XMLID_2550_" d="M134,74c5.522,0,10-4.478,10-10V10c0-5.522-4.478-10-10-10s-10,4.478-10,10v54
			C124,69.522,128.478,74,134,74z"/>
	</g>
</g>
<g>
</g>
<g>
</g>
<g>
</g>
<g>
</g>
<g>
</g>
<g>
</g>
<g>
</g>
<g>
</g>
<g>
</g>
<g>
</g>
<g>
</g>
<g>
</g>
<g>
</g>
<g>
</g>
<g>
</g>
</svg>
