<?xml version="1.0" encoding="iso-8859-1"?>
<!-- Generator: Adobe Illustrator 19.0.0, SVG Export Plug-In . SVG Version: 6.00 Build 0)  -->
<svg version="1.1" id="Layer_1" xmlns="http://www.w3.org/2000/svg" xmlns:xlink="http://www.w3.org/1999/xlink" x="0px" y="0px"
	 viewBox="0 0 512 512" style="enable-background:new 0 0 512 512;" xml:space="preserve">
<g id="XMLID_658_">
	<g id="XMLID_659_">
		<path id="XMLID_698_" d="M442.882,378.053c-10.825-9.896-17.034-23.927-17.034-38.495V240c0-5.522-4.477-10-10-10s-10,4.478-10,10
			v99.558c0,20.17,8.58,39.581,23.54,53.257c5.377,4.915,8.46,11.908,8.46,19.188c0,14.335-11.663,25.998-25.998,25.998H99.847
			c-14.335,0-25.998-11.663-25.998-25.998c0-7.279,3.083-14.272,8.46-19.188c14.96-13.676,23.54-33.087,23.54-53.257V224
			c0-82.71,67.29-150,150-150c22.748,0,45.154,5.173,65.446,15.012c-7.053,11.33-11.143,24.688-11.143,38.988
			c0,40.804,33.196,74,74,74s74-33.196,74-74s-33.196-74-74-74c-19.123,0-36.576,7.292-49.723,19.241
			c-14.906-7.775-30.897-13.273-47.41-16.344c3.684-5.75,5.83-12.576,5.83-19.897c0-20.401-16.598-36.999-37-36.999
			s-37,16.598-37,36.999c0,7.313,2.141,14.131,5.817,19.878C145.77,71.563,85.849,140.911,85.849,224v115.558
			c0,14.568-6.208,28.599-17.034,38.495c-9.511,8.694-14.966,21.068-14.966,33.949c0,25.363,20.635,45.998,45.998,45.998h92.788
			c4.816,30.556,31.326,54,63.214,54s58.398-23.444,63.214-54h92.788c25.363,0,45.998-20.635,45.998-45.998
			C457.849,399.121,452.394,386.747,442.882,378.053z M438.151,128c0,29.775-24.224,54-54,54s-54-24.225-54-54s24.224-54,54-54
			S438.151,98.225,438.151,128z M255.849,20c9.374,0,17,7.626,17,16.999c0,9.374-7.626,17-17,17s-17-7.626-17-17
			C238.849,27.626,246.475,20,255.849,20z M255.849,492c-20.821,0-38.298-14.542-42.84-34h85.68
			C294.147,477.458,276.67,492,255.849,492z"/>
		<path id="XMLID_702_" d="M143.849,213.792c-5.523,0-10,4.478-10,10V224c0,5.522,4.477,10,10,10s10-4.478,10-10v-0.208
			C153.849,218.27,149.372,213.792,143.849,213.792z"/>
		<path id="XMLID_703_" d="M161.913,184.177C177.947,146.406,214.819,122,255.849,122c5.523,0,10-4.478,10-10s-4.477-10-10-10
			c-49.071,0-93.17,29.188-112.346,74.362c-2.158,5.083,0.214,10.954,5.297,13.112c1.275,0.541,2.6,0.798,3.903,0.798
			C156.595,190.272,160.296,187.985,161.913,184.177z"/>
		<path id="XMLID_715_" d="M373.849,126.221v18.112c0,5.522,4.477,10,10,10s10-4.478,10-10v-39.5c0-4.045-2.437-7.691-6.173-9.239
			c-3.735-1.544-8.037-0.692-10.898,2.168l-11.5,11.5c-3.905,3.905-3.905,10.237,0,14.143
			C367.612,125.738,370.815,126.68,373.849,126.221z"/>
	</g>
</g>
<g>
</g>
<g>
</g>
<g>
</g>
<g>
</g>
<g>
</g>
<g>
</g>
<g>
</g>
<g>
</g>
<g>
</g>
<g>
</g>
<g>
</g>
<g>
</g>
<g>
</g>
<g>
</g>
<g>
</g>
</svg>
