<?xml version="1.0" encoding="iso-8859-1"?>
<!-- Generator: Adobe Illustrator 19.0.0, SVG Export Plug-In . SVG Version: 6.00 Build 0)  -->
<svg version="1.1" id="Layer_1" xmlns="http://www.w3.org/2000/svg" xmlns:xlink="http://www.w3.org/1999/xlink" x="0px" y="0px"
	 viewBox="0 0 512 512" style="enable-background:new 0 0 512 512;" xml:space="preserve">
<g id="XMLID_639_">
	<g id="XMLID_719_">
		<path id="XMLID_791_" d="M161.07,141.582c2.64,0,5.21-1.06,7.08-2.92c1.86-1.869,2.93-4.439,2.93-7.08
			c0-2.63-1.07-5.199-2.93-7.069c-1.87-1.86-4.44-2.931-7.08-2.931c-2.63,0-5.2,1.07-7.07,2.931c-1.86,1.87-2.93,4.439-2.93,7.069
			c0,2.641,1.07,5.211,2.93,7.08C155.87,140.522,158.44,141.582,161.07,141.582z"/>
		<path id="XMLID_810_" d="M460.606,0.012H282.648c-2.652,0-5.196,1.054-7.071,2.929l-95.324,95.324
			c-3.905,3.905-3.905,10.237,0,14.143c3.905,3.904,10.237,3.904,14.143,0l92.395-92.396h173.816
			c17.311,0,31.394,14.083,31.394,31.394v173.815L234.405,482.817c-12.242,12.241-32.159,12.239-44.398,0L29.195,322.005
			c-5.93-5.93-9.195-13.813-9.195-22.199s3.266-16.269,9.195-22.198l108.7-108.7c3.905-3.905,3.905-10.237,0-14.143
			c-3.905-3.904-10.237-3.904-14.143,0l-108.7,108.7C5.346,273.172,0,286.079,0,299.806s5.346,26.634,15.053,36.342l160.812,160.812
			c10.02,10.019,23.18,15.028,36.341,15.028c13.161,0,26.322-5.01,36.342-15.028l260.523-260.524
			c1.875-1.876,2.929-4.419,2.929-7.071V51.406C512,23.067,488.945,0.012,460.606,0.012z"/>
		<path id="XMLID_813_" d="M458.113,100.125c0-25.364-20.636-46-46-46s-46,20.636-46,46s20.636,46,46,46
			S458.113,125.49,458.113,100.125z M386.113,100.125c0-14.337,11.664-26,26-26s26,11.663,26,26s-11.664,26-26,26
			S386.113,114.462,386.113,100.125z"/>
		<path id="XMLID_817_" d="M286.667,92.364c-11.926,0-23.138,4.645-31.571,13.077L92.762,267.774
			c-8.433,8.434-13.077,19.646-13.077,31.571c0,11.927,4.645,23.139,13.077,31.571l88.333,88.334
			c8.704,8.704,20.138,13.056,31.571,13.056c11.434,0,22.867-4.353,31.571-13.056l162.333-162.334h0
			c8.433-8.433,13.077-19.645,13.077-31.571c0-11.926-4.644-23.138-13.077-31.571l-88.333-88.333
			C309.805,97.008,298.593,92.364,286.667,92.364z M399.648,225.345c0,6.584-2.563,12.773-7.219,17.429h0l-11.976,11.976
			l-48.609-48.608c-3.905-3.904-10.237-3.904-14.142,0c-3.905,3.905-3.905,10.237,0,14.143l48.609,48.608L230.096,405.108
			c-9.61,9.609-25.248,9.61-34.858,0l-88.333-88.334c-4.655-4.655-7.219-10.845-7.219-17.429s2.564-12.773,7.22-17.429
			l162.333-162.333c4.655-4.656,10.845-7.22,17.429-7.22c6.584,0,12.773,2.563,17.429,7.22l88.333,88.333
			C397.084,212.572,399.648,218.761,399.648,225.345z"/>
		<path id="XMLID_818_" d="M295.03,173.472c-2.63,0-5.21,1.07-7.07,2.93c-1.86,1.86-2.93,4.43-2.93,7.07c0,2.63,1.07,5.21,2.93,7.07
			c1.86,1.859,4.44,2.93,7.07,2.93s5.21-1.07,7.07-2.93c1.86-1.86,2.93-4.44,2.93-7.07c0-2.641-1.07-5.21-2.93-7.07
			C300.24,174.542,297.66,173.472,295.03,173.472z"/>
	</g>
</g>
<g>
</g>
<g>
</g>
<g>
</g>
<g>
</g>
<g>
</g>
<g>
</g>
<g>
</g>
<g>
</g>
<g>
</g>
<g>
</g>
<g>
</g>
<g>
</g>
<g>
</g>
<g>
</g>
<g>
</g>
</svg>
