<?xml version="1.0" encoding="iso-8859-1"?>
<!-- Generator: Adobe Illustrator 19.0.0, SVG Export Plug-In . SVG Version: 6.00 Build 0)  -->
<svg version="1.1" id="Layer_1" xmlns="http://www.w3.org/2000/svg" xmlns:xlink="http://www.w3.org/1999/xlink" x="0px" y="0px"
	 viewBox="0 0 512.254 512.254" style="enable-background:new 0 0 512.254 512.254;" xml:space="preserve">
<g id="XMLID_673_">
	<g id="XMLID_1359_">
		<path id="XMLID_3271_" d="M320.127,148.127h-128c-5.523,0-10-4.478-10-10v-128c0-5.522,4.477-10,10-10h128c5.523,0,10,4.478,10,10
			v128C330.127,143.649,325.65,148.127,320.127,148.127z M202.127,128.127h108v-108h-108V128.127z"/>
	</g>
	<g id="XMLID_1358_">
		<path id="XMLID_3268_" d="M502.254,148.127h-128c-5.523,0-10-4.478-10-10v-128c0-5.522,4.477-10,10-10h128c5.523,0,10,4.478,10,10
			v128C512.254,143.649,507.777,148.127,502.254,148.127z M384.254,128.127h108v-108h-108V128.127z"/>
	</g>
	<g id="XMLID_1357_">
		<path id="XMLID_3265_" d="M138,330.127H10c-5.523,0-10-4.478-10-10v-128c0-5.522,4.477-10,10-10h128c5.523,0,10,4.478,10,10v128
			C148,325.649,143.523,330.127,138,330.127z M20,310.127h108v-108H20V310.127z"/>
	</g>
	<g id="XMLID_1356_">
		<path id="XMLID_3262_" d="M320.127,330.127h-128c-5.523,0-10-4.478-10-10v-128c0-5.522,4.477-10,10-10h128c5.523,0,10,4.478,10,10
			v128C330.127,325.649,325.65,330.127,320.127,330.127z M202.127,310.127h108v-108h-108V310.127z"/>
	</g>
	<g id="XMLID_1355_">
		<path id="XMLID_3259_" d="M502.254,330.127h-128c-5.523,0-10-4.478-10-10v-128c0-5.522,4.477-10,10-10h128c5.523,0,10,4.478,10,10
			v128C512.254,325.649,507.777,330.127,502.254,330.127z M384.254,310.127h108v-108h-108V310.127z"/>
	</g>
	<g id="XMLID_1354_">
		<path id="XMLID_3256_" d="M138,512.127H10c-5.523,0-10-4.478-10-10v-128c0-5.522,4.477-10,10-10h128c5.523,0,10,4.478,10,10v128
			C148,507.649,143.523,512.127,138,512.127z M20,492.127h108v-108H20V492.127z"/>
	</g>
	<g id="XMLID_1353_">
		<path id="XMLID_3253_" d="M320.127,512.127h-128c-5.523,0-10-4.478-10-10v-128c0-5.522,4.477-10,10-10h128c5.523,0,10,4.478,10,10
			v128C330.127,507.649,325.65,512.127,320.127,512.127z M202.127,492.127h108v-108h-108V492.127z"/>
	</g>
	<g id="XMLID_1352_">
		<path id="XMLID_3252_" d="M441.67,384.127c-2.64,0-5.21-1.07-7.07-2.931c-1.87-1.859-2.93-4.439-2.93-7.069s1.06-5.21,2.93-7.07
			c1.86-1.86,4.43-2.93,7.07-2.93c2.63,0,5.21,1.069,7.07,2.93s2.93,4.44,2.93,7.07s-1.07,5.21-2.93,7.069
			C446.88,383.057,444.3,384.127,441.67,384.127z"/>
	</g>
	<g id="XMLID_1351_">
		<path id="XMLID_3251_" d="M502.254,512.127h-128c-5.523,0-10-4.478-10-10v-128c0-5.522,4.477-10,10-10h23.413
			c5.523,0,10,4.478,10,10s-4.477,10-10,10h-13.413v108h108v-108H487c-5.523,0-10-4.478-10-10s4.477-10,10-10h15.254
			c5.523,0,10,4.478,10,10v128C512.254,507.649,507.777,512.127,502.254,512.127z"/>
	</g>
	<g id="XMLID_1350_">
		<path id="XMLID_3250_" d="M70.59,148.127c-2.63,0-5.21-1.07-7.07-2.931c-1.86-1.859-2.93-4.439-2.93-7.069s1.07-5.21,2.93-7.07
			c1.86-1.86,4.43-2.93,7.07-2.93c2.63,0,5.21,1.069,7.07,2.93c1.86,1.86,2.93,4.44,2.93,7.07s-1.07,5.21-2.93,7.069
			C75.8,147.057,73.22,148.127,70.59,148.127z"/>
	</g>
	<g id="XMLID_1349_">
		<path id="XMLID_3249_" d="M138,148.127h-23.413c-5.523,0-10-4.478-10-10s4.477-10,10-10H128v-108H20v108h5.254
			c5.523,0,10,4.478,10,10s-4.477,10-10,10H10c-5.523,0-10-4.478-10-10v-128c0-5.522,4.477-10,10-10h128c5.523,0,10,4.478,10,10v128
			C148,143.649,143.523,148.127,138,148.127z"/>
	</g>
</g>
<g>
</g>
<g>
</g>
<g>
</g>
<g>
</g>
<g>
</g>
<g>
</g>
<g>
</g>
<g>
</g>
<g>
</g>
<g>
</g>
<g>
</g>
<g>
</g>
<g>
</g>
<g>
</g>
<g>
</g>
</svg>
