<?xml version="1.0" encoding="iso-8859-1"?>
<!-- Generator: Adobe Illustrator 19.0.0, SVG Export Plug-In . SVG Version: 6.00 Build 0)  -->
<svg version="1.1" id="Layer_1" xmlns="http://www.w3.org/2000/svg" xmlns:xlink="http://www.w3.org/1999/xlink" x="0px" y="0px"
	 viewBox="0 0 512.004 512.004" style="enable-background:new 0 0 512.004 512.004;" xml:space="preserve">
<g id="XMLID_700_">
	<g id="XMLID_1400_">
		<path id="XMLID_3283_" d="M125.752,306.754c-2.63,0-5.21-1.07-7.07-2.931c-1.86-1.859-2.93-4.439-2.93-7.069s1.07-5.21,2.93-7.07
			c1.86-1.86,4.44-2.93,7.07-2.93c2.63,0,5.21,1.069,7.07,2.93s2.93,4.44,2.93,7.07c0,2.64-1.07,5.21-2.93,7.069
			C130.962,305.684,128.382,306.754,125.752,306.754z"/>
	</g>
	<g id="XMLID_1393_">
		<g id="XMLID_1394_">
			<path id="XMLID_3277_" d="M136.027,99.999c-27.571-0.001-50.001-22.431-50-49.999c0-13.355,5.201-25.911,14.644-35.355
				C110.115,5.201,122.671,0,136.026,0c27.57,0,50,22.43,50,50l0,0l0,0C186.027,77.568,163.598,99.998,136.027,99.999z M136.026,20
				c-8.013,0-15.547,3.121-21.213,8.787c-5.667,5.666-8.787,13.199-8.787,21.213c0,16.541,13.458,29.998,30,29.999
				c16.542-0.001,30-13.458,30-29.999l0,0C166.027,33.458,152.569,20,136.026,20z"/>
		</g>
	</g>
	<path id="XMLID_871_" d="M491.002,128.004h-72.174c8.198-9.742,13.15-22.301,13.15-36c0-30.879-25.122-56-56.001-56
		c-14.958,0-29.021,5.825-39.599,16.402c-10.578,10.577-16.402,24.64-16.402,39.598c0,13.322,4.631,25.928,13.115,36h-17.474
		c-4.731-26.122-27.625-46-55.089-46c-14.958,0-29.021,5.825-39.599,16.402c-8.179,8.179-13.502,18.447-15.501,29.598H21.002
		c-5.523,0-10,4.478-10,10v54c0,2.652,1.054,5.195,2.929,7.071l78.75,78.75c3.905,3.904,10.237,3.904,14.143,0
		c3.905-3.905,3.905-10.237,0-14.143l-61.679-61.679h344.857c5.523,0,10-4.478,10-10s-4.477-10-10-10h-359v-34h450v39.857
		L296.931,371.933c-1.875,1.876-2.929,4.419-2.929,7.071v81.933l-76,26.917v-108.85c0-2.652-1.054-5.195-2.929-7.071l-57-57
		c-3.905-3.904-10.237-3.904-14.143,0c-3.905,3.905-3.905,10.237,0,14.143l54.071,54.071v118.857c0,3.247,1.577,6.292,4.229,8.166
		c1.711,1.21,3.731,1.834,5.772,1.834c1.122,0,2.251-0.189,3.337-0.574l96-34c3.993-1.414,6.662-5.19,6.662-9.426v-84.857
		l184.071-184.071c1.875-1.876,2.929-4.419,2.929-7.071v-54C501.002,132.481,496.525,128.004,491.002,128.004z M350.52,117.459
		c-6.8-6.8-10.544-15.84-10.544-25.455c0-9.616,3.744-18.656,10.544-25.455c6.8-6.8,15.84-10.545,25.457-10.545
		c19.851,0,36.001,16.149,36.001,36c0,19.85-16.15,35.999-36,36C366.361,128.004,357.32,124.259,350.52,117.459z M235.072,112.549
		c6.8-6.8,15.84-10.545,25.457-10.545c16.381,0,30.232,11.001,34.578,26h-69.169C227.599,122.222,230.7,116.92,235.072,112.549z"/>
	<g id="XMLID_1389_">
		<path id="XMLID_3274_" d="M427.002,202.004c-2.63,0-5.21-1.07-7.07-2.931c-1.86-1.859-2.93-4.439-2.93-7.069s1.07-5.21,2.93-7.07
			c1.86-1.86,4.44-2.93,7.07-2.93c2.63,0,5.21,1.069,7.07,2.93s2.93,4.44,2.93,7.07s-1.07,5.21-2.93,7.069
			C432.212,200.934,429.632,202.004,427.002,202.004z"/>
	</g>
</g>
<g>
</g>
<g>
</g>
<g>
</g>
<g>
</g>
<g>
</g>
<g>
</g>
<g>
</g>
<g>
</g>
<g>
</g>
<g>
</g>
<g>
</g>
<g>
</g>
<g>
</g>
<g>
</g>
<g>
</g>
</svg>
