<?xml version="1.0" encoding="iso-8859-1"?>
<!-- Generator: Adobe Illustrator 19.0.0, SVG Export Plug-In . SVG Version: 6.00 Build 0)  -->
<svg version="1.1" id="Layer_1" xmlns="http://www.w3.org/2000/svg" xmlns:xlink="http://www.w3.org/1999/xlink" x="0px" y="0px"
	 viewBox="0 0 512.254 512.254" style="enable-background:new 0 0 512.254 512.254;" xml:space="preserve">
<g id="XMLID_1628_">
	<g id="XMLID_925_">
		<path id="XMLID_926_" d="M343,249.127c-2.63,0-5.21,1.069-7.07,2.93s-2.93,4.44-2.93,7.07s1.069,5.21,2.93,7.069
			c1.86,1.86,4.44,2.931,7.07,2.931s5.2-1.07,7.069-2.931c1.86-1.859,2.931-4.439,2.931-7.069s-1.07-5.21-2.931-7.07
			C348.21,250.196,345.63,249.127,343,249.127z"/>
		<path id="XMLID_973_" d="M320.127,337.127H266v-68h40c5.522,0,10-4.478,10-10s-4.478-10-10-10h-40v-42h150c5.522,0,10-4.478,10-10
			v-160c0-5.522-4.478-10-10-10H96c-5.522,0-10,4.478-10,10v160c0,5.522,4.478,10,10,10h150v42H75.168c-5.522,0-10,4.478-10,10v78
			H10c-5.522,0-10,4.478-10,10v128c0,5.522,4.478,10,10,10h128c5.522,0,10-4.478,10-10v-128c0-5.522-4.478-10-10-10H85.168v-68H246
			v68h-53.873c-5.522,0-10,4.478-10,10v128c0,5.522,4.478,10,10,10h128c5.522,0,10-4.478,10-10v-128
			C330.127,341.604,325.649,337.127,320.127,337.127z M106,87.127h67.744c5.522,0,10-4.478,10-10s-4.478-10-10-10H106v-20h300v140
			H106V87.127z M128,465.127H20v-108h108V465.127z M310.127,465.127h-108v-108h108V465.127z"/>
		<path id="XMLID_979_" d="M502.254,337.127h-55.422v-78c0-5.522-4.478-10-10-10H382c-5.522,0-10,4.478-10,10s4.478,10,10,10h44.832
			v68h-52.578c-5.522,0-10,4.478-10,10v128c0,5.522,4.478,10,10,10h128c5.522,0,10-4.478,10-10v-128
			C512.254,341.604,507.776,337.127,502.254,337.127z M492.254,465.127h-108v-108h108V465.127z"/>
		<path id="XMLID_980_" d="M215.81,67.127c-2.64,0-5.21,1.069-7.08,2.93c-1.859,1.86-2.92,4.44-2.92,7.07s1.061,5.21,2.92,7.069
			c1.87,1.86,4.45,2.931,7.08,2.931s5.2-1.07,7.07-2.931c1.86-1.859,2.93-4.439,2.93-7.069s-1.069-5.21-2.93-7.07
			S218.439,67.127,215.81,67.127z"/>
	</g>
</g>
<g>
</g>
<g>
</g>
<g>
</g>
<g>
</g>
<g>
</g>
<g>
</g>
<g>
</g>
<g>
</g>
<g>
</g>
<g>
</g>
<g>
</g>
<g>
</g>
<g>
</g>
<g>
</g>
<g>
</g>
</svg>
